<svg width="124" height="45" viewBox="0 0 124 45" fill="none" xmlns="http://www.w3.org/2000/svg">
<g clip-path="url(#clip0_3115_1296)">
<path d="M119.927 44.5005C120.768 44.5005 121.467 44.2546 121.946 43.7772C122.411 43.3111 122.679 42.6221 122.679 41.6987V36.6068H120.928V41.6215C120.928 42.5221 120.529 42.9109 119.887 42.9109C119.345 42.9109 118.911 42.6221 118.466 42.1332L117.391 43.334C117.925 43.9687 118.723 44.5005 119.93 44.5005M111.593 41.1326L112.625 38.6081L113.658 41.1326H111.596H111.593ZM108.533 44.389H110.272L110.983 42.645H114.265L114.975 44.389H116.761L113.432 36.5525H111.858L108.533 44.389ZM102.6 40.3864V38.1507H104.297C105.13 38.1507 105.638 38.528 105.638 39.2628V39.2857C105.638 39.9404 105.161 40.3864 104.329 40.3864H102.597H102.6ZM100.892 44.389H102.6V41.8988H103.941L105.603 44.389H107.6L105.703 41.61C106.69 41.2441 107.366 40.455 107.366 39.197V39.1742C107.366 38.4394 107.132 37.8304 106.701 37.3959C106.191 36.8841 105.427 36.6068 104.44 36.6068H100.892V44.389ZM92.7176 44.389H94.426V42.0103L95.3244 41.0754L97.7316 44.389H99.7822L96.4766 39.9089L99.6368 36.6068H97.5747L94.426 40.009V36.6068H92.7176V44.389ZM83.6507 35.9978H84.937L86.4457 34.8857L84.994 34.251L83.6535 35.995L83.6507 35.9978ZM83.4853 44.389H85.1937V41.287L88.177 36.6068H86.2375L84.3523 39.7317L82.5013 36.6068H80.5048L83.4881 41.3213V44.389H83.4853ZM72.7642 44.389H74.4726V42.0103L75.371 41.0754L77.7782 44.389H79.8288L76.5232 39.9089L79.6834 36.6068H77.6213L74.4726 40.009V36.6068H72.7642V44.389ZM68.3348 44.5005C70.009 44.5005 71.1841 43.6342 71.1841 42.0875V42.0646C71.1841 40.7095 70.2971 40.1405 68.7227 39.7288C67.3822 39.3857 67.0485 39.2171 67.0485 38.7053V38.6824C67.0485 38.305 67.3908 38.0048 68.0468 38.0048C68.7027 38.0048 69.3787 38.2936 70.0661 38.7711L70.9531 37.4816C70.1659 36.8469 69.2019 36.4924 68.0696 36.4924C66.4838 36.4924 65.3515 37.4273 65.3515 38.8368V38.8597C65.3515 40.4035 66.3612 40.8381 67.9241 41.2384C69.2218 41.5729 69.4871 41.793 69.4871 42.2276V42.2505C69.4871 42.705 69.065 42.9852 68.3662 42.9852C67.4792 42.9852 66.7462 42.6193 66.0474 42.0389L65.0378 43.2511C65.9704 44.0859 67.1569 44.4976 68.332 44.4976M59.9582 44.4404H61.4669L64.6043 36.6039H62.7646L60.7339 42.0846L58.7061 36.6039H56.8208L59.9582 44.4404ZM51.9665 41.1269L52.999 38.6024L54.0315 41.1269H51.9694H51.9665ZM48.9062 44.3833H50.646L51.3562 42.6393H54.639L55.3491 44.3833H57.1346L53.809 36.5468H52.2346L48.9091 44.3833H48.9062ZM42.4091 44.3833H47.9878V42.828H44.1175V36.6039H42.4091V44.3861V44.3833ZM37.9798 44.4948C39.6539 44.4948 40.829 43.6285 40.829 42.0818V42.0589C40.829 40.7037 39.942 40.1348 38.3676 39.7231C37.0271 39.38 36.6935 39.2113 36.6935 38.6996V38.6767C36.6935 38.2993 37.0386 37.9991 37.6917 37.9991C38.3448 37.9991 39.0236 38.2879 39.711 38.7653L40.598 37.4759C39.8108 36.8412 38.8468 36.4867 37.7145 36.4867C36.1287 36.4867 34.9964 37.4216 34.9964 38.8311V38.854C34.9964 40.3978 36.0061 40.8324 37.569 41.2327C38.8668 41.5672 39.132 41.7873 39.132 42.2219V42.2447C39.132 42.6993 38.7099 42.9795 38.0111 42.9795C37.1241 42.9795 36.3911 42.6136 35.6924 42.0332L34.6827 43.2454C35.6153 44.0802 36.8018 44.4919 37.9769 44.4919M31.534 44.3804H33.2424V36.5982H31.534V44.3804ZM26.2005 44.3804H27.9089V38.1792H30.2705V36.6011H23.839V38.1792H26.2005V44.3804ZM19.0389 41.124L20.0713 38.5995L21.1038 41.124H19.0417H19.0389ZM15.9785 44.3804H17.7183L18.4285 42.6364H21.7113L22.4215 44.3804H24.2069L20.8813 36.5439H19.307L15.9814 44.3804H15.9785ZM10.0461 40.3778V38.1421H11.7431C12.576 38.1421 13.0836 38.5195 13.0836 39.2542V39.2771C13.0836 39.9318 12.6073 40.3778 11.7745 40.3778H10.0433H10.0461ZM8.33772 44.3804H10.0461V41.8902H11.3895L13.0523 44.3804H15.0487L13.1521 41.6015C14.1389 41.2355 14.8149 40.4464 14.8149 39.1885V39.1656C14.8149 38.4308 14.581 37.8219 14.1503 37.3873C13.6398 36.8755 12.8754 36.5982 11.8886 36.5982H8.34057V44.3804H8.33772ZM1.83489 42.8794V41.1669H3.80856C4.68415 41.1669 5.07204 41.49 5.07204 42.0132V42.036C5.07204 42.6135 4.61856 42.8823 3.86275 42.8823H1.8463L1.83489 42.8794ZM1.83489 39.746V38.102H3.52049C4.24208 38.102 4.64137 38.3908 4.64137 38.9026V38.9254C4.64137 39.503 4.16507 39.7488 3.40926 39.7488H1.8463L1.83489 39.746ZM0.180664 44.389H3.87415C5.62535 44.389 6.78046 43.6771 6.78046 42.2562V42.2333C6.78046 41.1898 6.22715 40.6666 5.32873 40.3206C5.88204 40.009 6.34979 39.5201 6.34979 38.6424V38.6195C6.34979 38.0849 6.17296 37.6532 5.81644 37.2958C5.37151 36.8498 4.6756 36.6068 3.78574 36.6068H0.180664V44.389Z" fill="white"/>
<path d="M84.1407 15.4638C84.1407 18.0226 82.6291 20.4527 80.122 21.4906C79.3035 21.8308 78.4621 21.988 77.635 21.988C75.0824 21.988 72.6581 20.4728 71.6227 17.9626C71.2833 17.142 71.1265 16.3015 71.1236 15.4695C71.1236 12.9107 72.6352 10.4806 75.1423 9.44274C75.9608 9.10252 76.7993 8.94241 77.6293 8.94241C80.1819 8.94241 82.6062 10.4577 83.6416 12.9707C83.9781 13.7913 84.1378 14.6318 84.1378 15.4609M87.3293 13.3024L91.9384 11.3897L90.6235 8.20479L86.0174 10.1175C85.2216 8.8595 84.172 7.82454 82.9656 7.05833L84.8708 2.44105L81.6936 1.12305L79.7883 5.73461C79.0839 5.57737 78.3566 5.49446 77.6236 5.49446C76.9077 5.49446 76.1861 5.58309 75.4702 5.74319L73.5622 1.12305L70.3849 2.4439L72.293 7.06119C71.0381 7.85885 70.0056 8.91096 69.2412 10.1203L64.6351 8.21051L63.3202 11.3954L67.9207 13.3052C67.7638 14.0114 67.6811 14.7405 67.6811 15.4724C67.6811 16.19 67.7667 16.9133 67.9264 17.6309L63.3174 19.5436L64.6322 22.7285L69.2384 20.8158C70.0341 22.0738 71.0837 23.1059 72.2901 23.875L70.3821 28.4894L73.5593 29.8074L75.4645 25.1958C76.169 25.3531 76.8934 25.436 77.6264 25.436C78.3423 25.436 79.0639 25.3474 79.7798 25.1872L81.6879 29.8074L84.8651 28.4865L82.957 23.8692C84.212 23.0716 85.2416 22.0195 86.0088 20.8101L90.615 22.7228L91.9298 19.5379L87.3293 17.6281C87.4862 16.9219 87.5689 16.1928 87.5689 15.4609C87.5689 14.7433 87.4834 14.02 87.3236 13.3024" fill="white"/>
<path d="M97.8541 23.0542L95.1816 25.2242C95.2472 25.3042 96.0487 26.2934 97.4747 27.3141C98.8922 28.3262 100.977 29.3983 103.573 29.404H103.61C105.763 29.404 108.179 28.5949 110.515 26.6336C112.232 25.2184 113.683 24.8182 114.992 24.8096C116.564 24.8039 118.024 25.4729 119.099 26.1991C119.636 26.5593 120.066 26.9253 120.354 27.1911C120.5 27.3255 120.605 27.4342 120.674 27.5056C120.708 27.5399 120.731 27.5685 120.745 27.5828C120.751 27.5885 120.754 27.5914 120.757 27.5943L121.162 27.2312L123.335 25.3185C123.269 25.2442 122.442 24.3064 121.013 23.3429C119.587 22.388 117.522 21.3731 114.99 21.3674C112.893 21.3559 110.54 22.1193 108.313 23.9862C106.45 25.5244 104.91 25.9532 103.567 25.9618C101.967 25.9675 100.527 25.2699 99.4655 24.5123C98.9379 24.1349 98.5186 23.7546 98.2391 23.4744C98.0994 23.3344 97.9938 23.2229 97.9282 23.1485C97.894 23.1114 97.874 23.0856 97.8598 23.0713C97.8569 23.0656 97.8541 23.0656 97.8512 23.0628M97.3806 23.443L97.8512 23.0628C97.8512 23.0628 97.8484 23.0599 97.8484 23.057L97.3835 23.443H97.3806ZM121.139 7.97867L123.335 6.04599C123.269 5.97166 122.442 5.0339 121.013 4.07042C119.587 3.11552 117.522 2.10057 114.99 2.09485C112.89 2.08342 110.54 2.84677 108.313 4.71656C106.45 6.25184 104.91 6.68355 103.567 6.69212C101.967 6.69784 100.527 6.00025 99.4655 5.24261C98.9379 4.86808 98.5186 4.48498 98.2391 4.20765C98.0994 4.06756 97.9938 3.9532 97.9282 3.88173C97.894 3.84456 97.874 3.81883 97.8598 3.80168C97.8598 3.79882 97.8541 3.79596 97.8541 3.7931C97.8541 3.7931 97.8541 3.7931 97.8512 3.7931L97.4034 4.16477L95.1816 5.9688C95.2472 6.04599 96.0487 7.03806 97.4747 8.05873C98.8922 9.07081 100.977 10.1429 103.573 10.1487H103.607C105.76 10.1487 108.176 9.33956 110.515 7.37828C112.232 5.96308 113.683 5.56282 114.992 5.55424C116.564 5.54852 118.024 6.21753 119.099 6.94372C119.636 7.30395 120.066 7.66704 120.354 7.93579C120.5 8.07016 120.605 8.1788 120.674 8.24742C120.708 8.28173 120.731 8.30746 120.745 8.32461C120.751 8.33033 120.754 8.33319 120.757 8.33605L121.142 7.99011L120.754 8.33319L121.147 7.98439L121.142 7.99011L121.139 7.97867ZM120.751 17.9566L123.335 15.6808C123.269 15.6065 122.442 14.6687 121.013 13.7052C119.587 12.7503 117.522 11.7354 114.99 11.7297C112.89 11.7211 110.54 12.4816 108.313 14.3514C106.45 15.8867 104.91 16.3184 103.567 16.327C101.967 16.3327 100.527 15.6351 99.4655 14.8774C98.9379 14.5029 98.5186 14.1198 98.2391 13.8425C98.0994 13.7024 97.9938 13.588 97.9282 13.5166C97.894 13.4794 97.874 13.4537 97.8598 13.4394C97.8598 13.4365 97.8541 13.4336 97.8541 13.4308C97.8541 13.4308 97.8541 13.4308 97.8512 13.4279L97.3949 13.8082L95.1845 15.6036C95.2501 15.6837 96.0515 16.6729 97.4776 17.6936C98.8951 18.7056 100.98 19.7778 103.575 19.7835C103.587 19.7835 103.601 19.7835 103.612 19.7835C105.766 19.7835 108.182 18.9744 110.517 17.0131C112.234 15.5979 113.686 15.1976 114.995 15.1891C116.567 15.1834 118.027 15.8524 119.102 16.5785C119.639 16.9388 120.069 17.3047 120.357 17.5706C120.503 17.705 120.608 17.8136 120.677 17.8822C120.711 17.9166 120.734 17.9423 120.748 17.9594C120.751 17.9623 120.754 17.9652 120.757 17.968V17.9737L121.15 17.6221L120.757 17.968L120.751 17.9566Z" fill="white"/>
<path d="M0.137695 28.8411H3.57735V2.66406H0.137695V28.8411ZM6.0701 8.94528H9.50975V2.66406H6.0701V8.94528ZM12.0025 8.94528H15.4421V2.66406H12.0025V8.94528ZM17.9349 8.94528H21.3745V2.66406H17.9349V8.94528ZM27.307 2.66406H23.8673V28.8411H27.307V2.66406Z" fill="white"/>
<path d="M20.3166 28.8413V21.8825C20.3166 18.2315 17.3647 15.2725 13.7225 15.2725C10.0804 15.2725 7.12842 18.2315 7.12842 21.8825V28.8413H10.4911V21.9568C10.4911 20.1671 11.9371 18.7176 13.7225 18.7176C15.5079 18.7176 16.954 20.1671 16.954 21.9568V28.8413H20.3166Z" fill="white"/>
<path d="M40.4154 22.2741L40.635 21.3878C40.9744 20.0183 42.3577 19.1864 43.7238 19.5266L44.608 19.7467C45.9741 20.0869 46.8041 21.4736 46.4647 22.843L46.2451 23.7293C45.9057 25.0988 44.5224 25.9307 43.1563 25.5905L42.2721 25.3704C40.9059 25.0301 40.076 23.6435 40.4154 22.2741ZM37.047 21.7509C36.2941 24.7757 38.1308 27.8405 41.1512 28.5953L42.6343 28.967C45.6519 29.7218 48.7093 27.8806 49.4623 24.8529L49.8302 23.3662C50.5832 20.3414 48.7464 17.2765 45.7289 16.5218L44.2458 16.1501C41.2282 15.3953 38.1708 17.2365 37.4178 20.2613L37.047 21.748V21.7509ZM41.947 9.78596C41.947 11.1983 40.8061 12.3419 39.3972 12.3419H38.4873C37.0784 12.3419 35.9376 11.1983 35.9376 9.78596V8.87394C35.9376 7.46159 37.0784 6.31799 38.4873 6.31799H39.3972C40.8061 6.31799 41.947 7.46159 41.947 8.87394V9.78596ZM45.341 10.0947V8.56231C45.341 5.44314 42.8197 2.91578 39.708 2.91578H38.1793C35.0677 2.91578 32.5464 5.44314 32.5464 8.56231V10.0947C32.5464 13.2139 35.0677 15.7413 38.1793 15.7413H39.708C42.8197 15.7413 45.341 13.2139 45.341 10.0947ZM48.7578 7.21286L50.2209 1.3319L46.884 0.49707L45.4208 6.37803L48.7578 7.21286ZM56.159 13.6199L55.7312 14.4261C55.0695 15.6726 53.5265 16.1444 52.283 15.4811L51.4787 15.0522C50.2352 14.389 49.7646 12.8422 50.4234 11.5957L50.8513 10.7895C51.513 9.54295 53.0559 9.07121 54.2995 9.73164L55.1038 10.1605C56.3473 10.8238 56.8179 12.3705 56.159 13.617M56.9719 7.30435L55.6228 6.58674C52.8763 5.12293 49.4651 6.16933 48.0049 8.92254L47.289 10.2748C45.8287 13.0281 46.8726 16.4474 49.6192 17.9112L50.9682 18.6288C53.7148 20.0927 57.1259 19.0463 58.5862 16.293L59.3049 14.9407C60.7652 12.1875 59.7213 8.76816 56.9748 7.30435" fill="white"/>
</g>
<defs>
<clipPath id="clip0_3115_1296">
<rect width="123.2" height="44" fill="white" transform="translate(0.137695 0.5)"/>
</clipPath>
</defs>
</svg>
