<svg width="63" height="74" viewBox="0 0 63 74" fill="none" xmlns="http://www.w3.org/2000/svg">
<path d="M46.6891 30.8514C46.6891 30.8514 44.7941 30.5544 43.301 30.8894C41.808 31.2243 41.5013 30.9181 41.1855 30.3806C40.8696 29.843 40.5825 29.8142 40.2862 30.026C39.9899 30.2378 39.9129 30.8801 40.8696 31.4165C41.8263 31.9541 43.6065 31.3014 44.1234 31.1955C44.6402 31.0896 46.0953 31.0609 46.8028 31.2727L46.6891 30.8514Z" fill="#9E9E9E" stroke="black" stroke-width="0.155919" stroke-linecap="round" stroke-linejoin="round"/>
<path d="M42.7343 29.8547C42.7343 29.8547 42.3232 30.5361 42.8974 30.977C42.8974 30.977 42.9641 31.015 43.1846 31.015C43.1846 31.015 42.917 30.7652 43.0502 30.4878C43.0846 30.3612 43.2029 30.3347 43.2029 30.3347C43.2029 30.3347 43.1547 30.8619 43.4993 30.8619C43.4993 30.8619 43.4705 30.6984 43.5659 30.6029C43.6612 30.5074 43.6612 30.1805 43.6612 30.1805C43.6612 30.1805 43.6612 30.794 43.9679 30.794C43.9679 30.794 44.1596 30.8032 44.2171 30.1517C44.2171 30.1517 44.255 30.794 44.696 30.7364C44.696 30.7364 44.6868 30.6524 44.6868 30.5638C44.6868 30.4164 44.8063 30.1517 44.8063 30.1517C44.8063 30.1517 44.8304 30.7364 45.2036 30.7364C45.2036 30.7364 45.1807 30.6386 45.299 30.52C45.4529 30.3669 45.5103 30.1229 45.5103 30.1229C45.5103 30.1229 44.3135 29.7108 42.7343 29.8547Z" fill="white" stroke="black" stroke-width="0.155919" stroke-linecap="round" stroke-linejoin="round"/>
<path d="M43.2806 32.1465C43.214 32.1465 42.6443 31.6331 43.2806 31.1877C43.2806 31.1877 43.3047 31.6723 43.5769 31.7632C43.5769 31.7632 43.5574 31.1589 43.864 31.0634C43.864 31.0634 43.9881 31.6481 44.2086 31.6481C44.2086 31.6481 44.1029 31.0438 44.4188 30.9862C44.4188 30.9862 44.7254 31.2164 44.7254 31.6193C44.7254 31.6193 44.8024 31.015 45.0413 30.9482C45.0413 30.9482 45.1423 31.1543 45.2905 31.3028C45.4387 31.4513 45.4387 31.6573 45.4387 31.6573C45.4387 31.6573 45.3284 31.312 45.5099 31.015C45.5099 31.015 45.7488 31.4271 45.9406 31.533C45.9417 31.533 43.9031 32.1465 43.2806 32.1465Z" fill="white" stroke="black" stroke-width="0.155919" stroke-linecap="round" stroke-linejoin="round"/>
<path d="M43.4061 29.959C43.4061 29.959 43.2533 30.1224 43.2051 30.3331" stroke="black" stroke-width="0.155919" stroke-linecap="round" stroke-linejoin="round"/>
<path d="M42.3911 29.355C42.3911 29.355 42.3337 28.5872 43.5304 28.2131C44.7272 27.839 45.3589 28.1268 46.1628 27.321C47.0954 26.3852 48.4886 26.6212 48.4886 26.6212C48.4886 26.6212 48.4403 25.576 49.1731 25.3884C49.9058 25.2008 50.5651 25.4321 50.6949 26.2517C50.6949 26.2517 51.168 25.6762 52.0868 25.9639C53.0057 26.2517 53.1641 27.115 52.9919 27.5754C52.8196 28.151 52.4176 28.151 52.5612 28.669C52.7047 29.1869 53.3364 29.8488 53.2503 32.1084C53.1641 34.368 53.1285 35.5397 51.9295 36.7415C50.7305 37.9432 50.2779 38.612 50.7236 41.0005C51.1692 43.389 51.5137 41.8776 52.3602 45.1156C52.8196 46.2667 53.3226 46.2667 53.3226 46.2667C53.3226 46.2667 51.9306 47.4039 51.2266 45.7924C51.2266 45.7924 50.4939 47.519 51.4127 47.9357C52.3315 48.3524 53.9968 47.4315 54.7571 48.1947C55.5174 48.9579 55.3452 50.9573 55.2452 52.0646C55.1453 53.172 54.7721 54.0077 53.0057 55.0287C51.2392 56.0497 50.2779 56.4537 49.1719 55.9633C48.6344 55.7251 47.8075 55.1196 47.6042 54.772C47.3883 54.4048 49.7933 52.9533 50.6363 52.5677C51.4839 52.1786 51.268 51.2151 50.9234 51.0275C50.5789 50.8399 50.5789 50.841 48.755 51.1564C46.9312 51.4718 46.1847 50.6672 46.1847 50.6672C46.1847 50.6672 46.9025 51.1852 46.8026 52.509C46.7026 53.8327 45.955 54.3369 45.3531 54.8111C44.3482 55.5018 41.5631 56.0485 41.5631 56.0485L38.8503 54.4681C38.8503 54.4681 38.477 54.1665 39.668 53.7199C40.859 53.2733 42.2533 53.599 42.7127 52.3179C43.1721 51.0367 42.6254 50.3818 42.6254 49.82C42.6254 49.2583 42.0948 47.389 44.478 46.0652C44.478 46.0652 44.0473 45.6819 43.8463 45.2215C43.8463 45.2215 41.8559 46.4301 41.1278 45.9892C40.4008 45.5484 39.482 45.0684 39.482 44.5504C39.482 44.0324 40.1332 43.4373 41.0899 42.9389C42.0466 42.4405 42.6599 42.2287 42.6599 42.2287C42.6599 42.2287 40.975 40.2143 41.1289 38.2954C41.1289 38.2954 40.0574 38.9665 38.7366 38.2379C37.4158 37.5092 36.497 37.2019 36.497 37.2019C36.497 37.2019 35.2531 36.2431 33.7406 35.4177C32.7643 34.7846 33.8359 31.2163 33.8359 31.2163C33.8359 31.2163 35.3668 33.4989 38.0279 33.7867C40.689 34.0744 42.3349 34.17 42.7564 34.0549C43.1779 33.9398 43.5798 33.614 44.5744 33.614C45.5702 33.614 46.2972 33.5369 46.6222 32.8462C46.6222 32.8462 46.1628 32.7691 45.723 32.5585C45.3325 32.3708 45.0465 32.3202 44.4516 32.4042C44.3757 32.4146 44.1369 32.4767 44.0323 32.5147C43.8256 32.5884 43.4948 32.6759 43.3582 32.5389C43.1526 32.3328 43.0665 32.0451 43.3869 31.839C43.7073 31.633 44.3723 31.5317 45.1292 31.618C45.8849 31.7044 45.9423 31.2819 45.9423 30.879C45.9423 30.4762 45.3198 30.2459 44.5067 30.1976C43.6935 30.1492 42.7506 30.269 42.4876 29.728C42.3613 29.4436 42.3911 29.355 42.3911 29.355Z" fill="white" stroke="black" stroke-width="0.311839" stroke-linecap="round" stroke-linejoin="round"/>
<path d="M46.6211 32.8477C46.6211 32.8477 50.7753 32.675 50.6409 30.123" stroke="black" stroke-width="0.311839" stroke-linecap="round" stroke-linejoin="round"/>
<path d="M48.4883 26.6214C48.4883 26.6214 49.9331 26.7849 50.2593 26.8804C50.2593 26.8804 50.4798 26.4684 50.6946 26.252" stroke="black" stroke-width="0.311839" stroke-linecap="round" stroke-linejoin="round"/>
<path d="M51.0039 26.8222C51.0039 26.8222 51.3485 26.3042 52.018 26.7071C52.6876 27.11 52.1903 27.7811 52.1903 27.7811" stroke="black" stroke-width="0.467758" stroke-linecap="round" stroke-linejoin="round"/>
<path d="M41.127 38.2955C41.127 38.2955 40.9088 35.3073 43.7169 33.7119" stroke="black" stroke-width="0.311839" stroke-linecap="round" stroke-linejoin="round"/>
<path d="M42.6602 42.2283C42.6602 42.2283 44.7849 41.5377 44.9767 40.5017C45.1685 39.4658 45.3408 38.9673 45.0915 38.2571C44.8423 37.5469 44.6896 37.1256 44.8423 36.6836" stroke="black" stroke-width="0.311839" stroke-linecap="round" stroke-linejoin="round"/>
<path d="M43.8457 45.2215C43.8457 45.2215 46.9662 43.7827 47.3682 42.6892C47.7702 41.5956 48.3823 39.9841 48.9761 38.9481C49.5699 37.9122 49.5883 37.8166 49.7226 37.0293" stroke="black" stroke-width="0.311839" stroke-linecap="round" stroke-linejoin="round"/>
<path d="M44.4766 46.0654C44.4766 46.0654 45.2231 46.5638 45.4528 47.5998C45.6825 48.6358 45.3862 49.7097 46.1855 50.6697" stroke="black" stroke-width="0.311839" stroke-linecap="round" stroke-linejoin="round"/>
<path d="M44.3164 45.0244C44.3164 45.0244 45.1204 46.0385 45.249 47.0112" stroke="black" stroke-width="0.311839" stroke-linecap="round" stroke-linejoin="round"/>
<path d="M43.0879 29.5379C43.0879 29.9074 42.787 30.2067 42.416 30.2067C42.045 30.2067 41.7441 29.9074 41.7441 29.5379C41.7441 29.1684 42.045 28.8691 42.416 28.8691C42.787 28.868 43.0879 29.1673 43.0879 29.5379Z" fill="black" stroke="black" stroke-width="0.311839" stroke-linecap="round" stroke-linejoin="round"/>
<path d="M42.1802 29.7056C42.1802 29.7056 41.9172 29.2981 42.3088 29.1162" stroke="white" stroke-width="0.311839" stroke-linecap="round" stroke-linejoin="round"/>
<path d="M45.8652 28.3669C45.8652 28.3669 46.0329 28.3531 46.1328 28.2518C46.2328 28.1505 46.3338 27.9352 46.5922 27.8972C46.8507 27.8592 47.449 27.8731 47.7316 28.1562C48.0141 28.4394 48.0187 28.6454 48.1623 28.7893C48.1623 28.7893 48.2725 28.8331 48.1244 28.9815C47.9762 29.13 47.8947 29.0483 47.6845 29.2601C47.4743 29.4708 46.9471 29.5479 46.6129 29.366C46.2776 29.1841 46.1535 29.0115 46.0674 28.6178C45.9801 28.3956 45.8652 28.3669 45.8652 28.3669Z" fill="black" stroke="black" stroke-width="0.0389799" stroke-linecap="round" stroke-linejoin="round"/>
<path d="M46.9421 28.1945C46.9421 28.1945 46.9754 28.1035 46.8513 28.1035C46.7273 28.1035 46.5447 28.1127 46.4115 28.1703C46.2771 28.2278 46.168 28.3429 46.168 28.549C46.168 28.755 46.3161 29.0359 46.5148 29.1441C46.7135 29.2523 46.8766 29.273 46.9673 29.2396C47.0581 29.2062 46.996 29.1291 46.8961 29.0911C46.7951 29.0532 46.6285 29.0773 46.4792 28.7896C46.3311 28.5018 46.3885 28.3487 46.4884 28.3004C46.5883 28.252 46.9421 28.2428 46.9421 28.1945Z" fill="white" stroke="white" stroke-width="0.0389799" stroke-linecap="round" stroke-linejoin="round"/>
<path d="M46.7025 28.5065C46.7094 28.488 46.7358 28.3672 46.9127 28.3672C47.0896 28.3672 47.1757 28.4535 47.1516 28.6458C47.1275 28.838 46.9024 28.838 46.8312 28.838C46.7278 28.8057 46.6497 28.64 46.7025 28.5065Z" fill="white" stroke="white" stroke-width="0.0389799" stroke-linecap="round" stroke-linejoin="round"/>
<path d="M47.4596 28.3187C47.4596 28.3187 47.5308 28.2232 47.6893 28.3809C47.8478 28.5386 47.8042 28.8171 47.7605 28.9127C47.7169 29.0082 47.5883 29.1337 47.5308 29.0761C47.4734 29.0186 47.5745 28.9656 47.617 28.8747C47.6606 28.7838 47.6652 28.6491 47.5791 28.5627C47.4929 28.4764 47.3873 28.3912 47.4596 28.3187Z" fill="white" stroke="white" stroke-width="0.0389799" stroke-linecap="round" stroke-linejoin="round"/>
<path d="M38.5487 46.1516C38.5108 46.2207 38.2443 45.2215 38.9794 44.5977C39.4388 44.2305 39.6467 44.4964 39.6467 44.4964C39.6467 44.4964 39.8327 44.6333 39.6467 44.8774C39.6467 44.8774 39.8982 44.6253 40.0843 44.7554C40.2703 44.8854 40.1095 45.0466 40.1095 45.0466C40.1095 45.0466 40.3553 44.8578 40.5437 45.0466C40.732 45.2354 40.5218 45.5036 40.5218 45.5036C40.5218 45.5036 40.809 45.2227 41.0456 45.4598C41.2144 45.629 41.1099 45.8489 40.9812 45.9928C40.9812 45.9928 41.3465 45.5818 41.6267 45.8627C41.9069 46.1436 41.5831 46.3738 41.3614 46.467C41.1397 46.5603 40.6218 46.9988 40.5505 47.381C40.5505 47.381 40.2634 47.0356 40.4862 46.5464C40.4862 46.5464 40.2703 46.726 40.1853 47.122C40.1853 47.122 39.9338 46.4382 40.1853 45.9709C40.1853 45.9709 39.8189 46.3738 39.6042 46.9712C39.6042 46.9712 39.3354 46.4279 39.6042 45.7982C39.6042 45.7982 39.224 46.2449 39.123 46.6615C39.123 46.6615 38.822 45.7913 39.2091 45.2941C39.2079 45.2952 38.8209 45.6624 38.5487 46.1516Z" fill="white" stroke="black" stroke-width="0.233879" stroke-linecap="round" stroke-linejoin="round"/>
<path d="M39.6466 44.8789C39.6466 44.8789 39.2836 45.1793 39.209 45.2956" stroke="black" stroke-width="0.233879" stroke-linecap="round" stroke-linejoin="round"/>
<path d="M40.11 45.0479C40.11 45.0479 39.7333 45.4979 39.6035 45.7995" stroke="black" stroke-width="0.233879" stroke-linecap="round" stroke-linejoin="round"/>
<path d="M40.5213 45.5039C40.5213 45.5039 40.2605 45.771 40.1836 45.9712" stroke="black" stroke-width="0.233879" stroke-linecap="round" stroke-linejoin="round"/>
<path d="M40.9825 45.9941C40.9825 45.9941 40.7091 46.2186 40.4863 46.5467" stroke="black" stroke-width="0.233879" stroke-linecap="round" stroke-linejoin="round"/>
<path d="M47.3347 56.691C47.3026 56.7751 46.826 55.7069 47.5667 54.8827C48.033 54.3935 48.3179 54.6525 48.3179 54.6525C48.3179 54.6525 48.5556 54.7722 48.3822 55.0772C48.3822 55.0772 48.628 54.7526 48.8657 54.8643C49.1023 54.9759 48.9438 55.1843 48.9438 55.1843C48.9438 55.1843 49.1942 54.9299 49.4434 55.1083C49.6926 55.2856 49.4962 55.6217 49.4962 55.6217C49.4962 55.6217 49.7788 55.258 50.0923 55.4813C50.3151 55.6401 50.2324 55.9037 50.1095 56.0867C50.1095 56.0867 50.461 55.5641 50.8297 55.8277C51.1995 56.0913 50.8664 56.4044 50.6264 56.5483C50.3863 56.6922 49.8661 57.2723 49.8477 57.7098C49.8477 57.7098 49.4583 57.3748 49.6318 56.7912C49.6318 56.7912 49.4147 57.0295 49.3825 57.4853C49.3825 57.4853 48.9771 56.7682 49.1873 56.2018C49.1873 56.2018 48.8347 56.7152 48.6888 57.4185C48.6888 57.4185 48.288 56.8603 48.4901 56.1109C48.4901 56.1109 48.1284 56.6749 48.0836 57.1584C48.0836 57.1584 47.5886 56.241 47.9503 55.6194C47.9492 55.6194 47.5656 56.0971 47.3347 56.691Z" fill="white" stroke="black" stroke-width="0.233879" stroke-linecap="round" stroke-linejoin="round"/>
<path d="M48.3822 55.0771C48.3822 55.0771 48.0158 55.4754 47.9492 55.6193" stroke="black" stroke-width="0.233879" stroke-linecap="round" stroke-linejoin="round"/>
<path d="M48.9431 55.1846C48.9431 55.1846 48.5859 55.7521 48.4883 56.1112" stroke="black" stroke-width="0.233879" stroke-linecap="round" stroke-linejoin="round"/>
<path d="M49.4964 55.6221C49.4964 55.6221 49.2415 55.9662 49.1875 56.2022" stroke="black" stroke-width="0.233879" stroke-linecap="round" stroke-linejoin="round"/>
<path d="M50.1075 56.0869C50.1075 56.0869 49.8318 56.385 49.6309 56.7902" stroke="black" stroke-width="0.233879" stroke-linecap="round" stroke-linejoin="round"/>
<path d="M38.3517 56.2587C38.3115 56.3392 37.9589 55.2181 38.7617 54.4745C39.2648 54.0348 39.514 54.326 39.514 54.326C39.514 54.326 39.7322 54.4722 39.5335 54.7588C39.5335 54.7588 39.8057 54.4607 40.024 54.5977C40.2422 54.7346 40.0676 54.9269 40.0676 54.9269C40.0676 54.9269 40.3364 54.7001 40.5603 54.905C40.7843 55.1099 40.5592 55.4241 40.5592 55.4241C40.5592 55.4241 40.8704 55.0915 41.1518 55.3482C41.3516 55.5312 41.2448 55.7867 41.1059 55.9559C41.1059 55.9559 41.4998 55.4713 41.8317 55.7752C42.1636 56.0791 41.8087 56.3565 41.5607 56.4739C41.3126 56.5913 40.9175 56.947 40.8555 57.3833C40.8555 57.3833 40.5684 56.8584 40.7958 56.292C40.7958 56.292 40.3364 56.8238 40.2583 57.2774C40.2583 57.2774 39.939 56.5154 40.1997 55.972C40.1997 55.972 39.8046 56.2541 39.591 56.9424C39.591 56.9424 39.259 56.5326 39.5312 55.8051C39.5312 55.8051 39.1224 56.33 39.0293 56.8089C39.0293 56.8089 38.6434 55.8362 39.0581 55.2538C39.0569 55.2538 38.6366 55.69 38.3517 56.2587Z" fill="white" stroke="black" stroke-width="0.233879" stroke-linecap="round" stroke-linejoin="round"/>
<path d="M39.5321 54.7588C39.5321 54.7588 39.1359 55.1179 39.0566 55.2549" stroke="black" stroke-width="0.233879" stroke-linecap="round" stroke-linejoin="round"/>
<path d="M40.0657 54.9268C40.0657 54.9268 39.6614 55.4563 39.5293 55.805" stroke="black" stroke-width="0.233879" stroke-linecap="round" stroke-linejoin="round"/>
<path d="M40.5587 55.4238C40.5587 55.4238 40.2762 55.7404 40.1992 55.9717" stroke="black" stroke-width="0.233879" stroke-linecap="round" stroke-linejoin="round"/>
<path d="M41.105 55.957C41.105 55.957 40.958 56.0606 40.7949 56.2931" stroke="black" stroke-width="0.233879" stroke-linecap="round" stroke-linejoin="round"/>
<path d="M34.5997 61.3744H33.1067V15.4463L32.5898 14.065L33.7958 10.1514L35.0017 14.065L34.37 15.7341L34.5997 61.3744Z" fill="white" stroke="black" stroke-width="0.233879" stroke-linecap="round" stroke-linejoin="round"/>
<path d="M33.1071 31.1445C33.1071 31.1445 32.519 31.3886 32.3892 31.6913C32.3892 31.6913 31.9735 31.7201 31.9011 32.1805C31.8288 32.6409 32.2457 32.7054 32.2457 32.7054C32.2457 32.7054 31.707 32.6122 31.707 33.0645C31.707 33.5169 32.31 33.5181 32.31 33.5181C32.31 33.5181 31.815 33.4824 31.8575 34.0499C31.8575 34.5322 32.3674 34.3307 32.3674 34.3307C32.3674 34.3307 31.8368 34.5471 32.1021 35.0651C32.3674 35.5831 32.9601 34.9891 33.068 34.8821C33.176 34.775 33.6744 34.4539 33.8329 34.4539C33.8329 34.4539 33.1438 34.2674 32.6339 34.2674C32.6339 34.2674 33.3448 33.8864 33.725 33.7782C33.725 33.7782 32.9853 33.6631 32.6201 33.5411C32.6201 33.5411 33.4378 33.3396 33.6894 33.1819C33.6894 33.1819 33.0393 33.007 32.5052 32.7722C32.5052 32.7722 33.2357 32.832 33.5125 32.5546C33.5125 32.5546 34.0477 33.1463 34.3854 33.19C34.723 33.2337 35.0067 32.5707 34.7713 32.2553C34.5358 31.9388 33.8903 31.9676 33.4516 32.0113C33.1071 32.055 33.1071 32.055 33.1071 32.055V31.1445Z" fill="white" stroke="black" stroke-width="0.233879" stroke-linecap="round" stroke-linejoin="round"/>
<path d="M32.3887 31.6904C32.3887 31.6904 32.6919 32.1762 33.1065 32.3373C33.5211 32.4985 33.5108 32.5514 33.5108 32.5514" stroke="black" stroke-width="0.233879" stroke-linecap="round" stroke-linejoin="round"/>
<path d="M32.2461 32.7051L32.5045 32.7695" stroke="black" stroke-width="0.233879" stroke-linecap="round" stroke-linejoin="round"/>
<path d="M32.3105 33.5186L32.6195 33.5404" stroke="black" stroke-width="0.233879" stroke-linecap="round" stroke-linejoin="round"/>
<path d="M32.3672 34.3311L32.6336 34.2666" stroke="black" stroke-width="0.233879" stroke-linecap="round" stroke-linejoin="round"/>
<path d="M33.1074 32.0508V32.3386" stroke="black" stroke-width="0.233879" stroke-linecap="round" stroke-linejoin="round"/>
<path d="M33.1074 28.1086V15.8496L42.6401 18.382V16.6174C42.6401 16.6174 42.5631 15.7921 43.444 15.9843C44.3249 16.1765 53.8575 19.0151 53.8575 19.0151L45.9524 21.2021V24.0027C45.9524 24.0027 46.0477 24.5403 44.612 25.0007C43.1764 25.4611 33.1074 28.1086 33.1074 28.1086Z" fill="#9E9E9E" stroke="black" stroke-width="0.233879" stroke-linecap="round" stroke-linejoin="round"/>
<path d="M42.6406 18.3818L42.7359 22.1424C42.7359 22.1424 42.7359 22.6604 43.9993 22.9482C45.2627 23.2359 46.0207 23.5306 45.9196 24.1695" stroke="black" stroke-width="0.233879" stroke-linecap="round" stroke-linejoin="round"/>
<path d="M45.9511 21.2021L43.2521 21.8928C43.2521 21.8928 42.6859 22.0286 42.811 22.3348" stroke="black" stroke-width="0.233879" stroke-linecap="round" stroke-linejoin="round"/>
<path d="M38.2693 24.0351C38.7149 24.0351 38.685 24.3804 38.685 24.3804V25.5177H41.685V25.3381H41.6137V25.1942H41.5276V23.5183H42.0088V22.2809H41.5276V21.1804H41.9078V20.3459H41.3266V20.7557H41.0533V20.0938H40.3998V20.7557H40.1138V20.3459H39.5533V21.1804H39.8979V22.2809H39.5097V22.9427H39.28V19.3525H39.9691V18.3165H39.2225V18.8127H38.8562V18.0645H38.3681H38.1165H37.6284V18.8127H37.262V18.3165H36.5155V19.3525H37.2046V22.9427H36.9749V22.2809H36.5867V21.1804H36.9313V20.3459H36.3708V20.7557H36.0837V20.0938H35.4302V20.7557H35.1568V20.3459H34.5757V21.1804H34.9558V22.2809H34.4746V23.5183H34.9558V25.1942H34.8697V25.3381H34.7985V25.5177H37.7984V24.3804C37.7984 24.3804 37.7697 24.0351 38.2142 24.0351H38.2693Z" fill="white" stroke="black" stroke-width="0.11694"/>
<path d="M34.959 21.1797H36.5887" stroke="black" stroke-width="0.11694"/>
<path d="M34.959 22.2812H35.3541V22.9351H36.0719V22.2812H36.5887" stroke="black" stroke-width="0.11694"/>
<path d="M36.0802 24.8131V24.1086C36.0802 24.1086 36.0664 23.8496 36.3386 23.8496C36.6108 23.8496 36.612 24.1086 36.612 24.1086V24.8131H36.0802Z" fill="#9E9E9E" stroke="black" stroke-width="0.11694"/>
<path d="M36.2348 24.8133V24.1514C36.2348 24.1514 36.221 24.0225 36.3554 24.0225C36.4817 24.0225 36.4725 24.1514 36.4725 24.1514V24.8133" stroke="black" stroke-width="0.11694"/>
<path d="M35.5763 22.1084V21.6422C35.5763 21.6422 35.5648 21.4707 35.783 21.4707C36.0012 21.4707 36.0012 21.6422 36.0012 21.6422V22.1084H35.5763Z" fill="#9E9E9E" stroke="black" stroke-width="0.11694"/>
<path d="M35.6995 22.1085V21.6711C35.6995 21.6711 35.6892 21.5859 35.796 21.5859C35.897 21.5859 35.889 21.6711 35.889 21.6711V22.1085" stroke="black" stroke-width="0.11694"/>
<path d="M34.875 25.3379H37.6234" stroke="black" stroke-width="0.11694"/>
<path d="M34.959 25.1943H37.6224" stroke="black" stroke-width="0.11694"/>
<path d="M41.5282 21.1797H39.8984" stroke="black" stroke-width="0.11694"/>
<path d="M41.5282 22.2812H41.1342V22.9351H40.4153V22.2812H39.8984" stroke="black" stroke-width="0.11694"/>
<path d="M40.4087 24.8131V24.1086C40.4087 24.1086 40.4225 23.8496 40.1503 23.8496C39.8781 23.8496 39.877 24.1086 39.877 24.1086V24.8131H40.4087Z" fill="#9E9E9E" stroke="black" stroke-width="0.11694"/>
<path d="M40.2535 24.8133V24.1514C40.2535 24.1514 40.2673 24.0225 40.1329 24.0225C40.0066 24.0225 40.0158 24.1514 40.0158 24.1514V24.8133" stroke="black" stroke-width="0.11694"/>
<path d="M40.9113 22.1084V21.6422C40.9113 21.6422 40.9228 21.4707 40.7045 21.4707C40.4863 21.4707 40.4863 21.6422 40.4863 21.6422V22.1084H40.9113Z" fill="#9E9E9E" stroke="black" stroke-width="0.11694"/>
<path d="M40.7893 22.1085V21.6711C40.7893 21.6711 40.7996 21.5859 40.6928 21.5859C40.5917 21.5859 40.5998 21.6711 40.5998 21.6711V22.1085" stroke="black" stroke-width="0.11694"/>
<path d="M38.8638 25.5181V24.3233C38.8638 24.3233 38.8707 23.8271 38.3033 23.8271H38.1816C37.6142 23.8271 37.6211 24.3233 37.6211 24.3233V25.5181" stroke="black" stroke-width="0.11694"/>
<path d="M41.6128 25.3379H38.8633" stroke="black" stroke-width="0.11694"/>
<path d="M41.5267 25.1943H38.8633" stroke="black" stroke-width="0.11694"/>
<path d="M37.207 19.3525H39.2812" stroke="black" stroke-width="0.11694"/>
<path d="M37.207 22.9414H37.7216V22.3037H38.7552V22.9414H39.2812" stroke="black" stroke-width="0.11694"/>
<path d="M34.959 23.5176H41.5273" stroke="black" stroke-width="0.11694"/>
<path d="M38.5248 21.0771H37.9023V22.0751H38.5248V21.0771Z" fill="#9E9E9E" stroke="black" stroke-width="0.11694"/>
<path d="M38.3613 21.2871H38.0547V21.911H38.3613V21.2871Z" stroke="black" stroke-width="0.11694"/>
<path d="M15.8785 30.8514C15.8785 30.8514 17.7736 30.5544 19.2666 30.8894C20.7597 31.2243 21.0663 30.9181 21.3822 30.3806C21.698 29.843 21.9851 29.8142 22.2815 30.026C22.5778 30.2378 22.6547 30.8801 21.698 31.4165C20.7413 31.9541 18.9611 31.3014 18.4443 31.1955C17.9275 31.0896 16.4723 31.0632 15.7637 31.2738L15.8785 30.8514Z" fill="#9E9E9E" stroke="black" stroke-width="0.155919" stroke-linecap="round" stroke-linejoin="round"/>
<path d="M19.8314 29.8548C19.8314 29.8548 20.2426 30.5362 19.6684 30.9771C19.6684 30.9771 19.6017 31.0151 19.3812 31.0151C19.3812 31.0151 19.6488 30.7653 19.5156 30.4879C19.4811 30.3613 19.3628 30.3348 19.3628 30.3348C19.3628 30.3348 19.4111 30.862 19.0665 30.862C19.0665 30.862 19.0952 30.6985 18.9999 30.603C18.9046 30.5074 18.9046 30.1805 18.9046 30.1805C18.9046 30.1805 18.9046 30.7941 18.5979 30.7941C18.5979 30.7941 18.4061 30.8033 18.3487 30.1518C18.3487 30.1518 18.3108 30.7941 17.8698 30.7365C17.8698 30.7365 17.879 30.6525 17.879 30.5638C17.879 30.4165 17.7595 30.1518 17.7595 30.1518C17.7595 30.1518 17.7354 30.7365 17.3621 30.7365C17.3621 30.7365 17.3851 30.6387 17.2668 30.5201C17.1141 30.367 17.0566 30.1218 17.0566 30.1218C17.0566 30.1218 18.2522 29.7109 19.8314 29.8548Z" fill="white" stroke="black" stroke-width="0.155919" stroke-linecap="round" stroke-linejoin="round"/>
<path d="M19.2869 32.1465C19.3535 32.1465 19.9232 31.6331 19.2869 31.1877C19.2869 31.1877 19.2628 31.6723 18.9906 31.7632C18.9906 31.7632 19.0101 31.1589 18.7035 31.0634C18.7035 31.0634 18.5794 31.6481 18.3589 31.6481C18.3589 31.6481 18.4646 31.0438 18.1487 30.9862C18.1487 30.9862 17.8421 31.2164 17.8421 31.6193C17.8421 31.6193 17.7651 31.015 17.5262 30.9482C17.5262 30.9482 17.4252 31.1543 17.277 31.3028C17.1289 31.4513 17.1289 31.6573 17.1289 31.6573C17.1289 31.6573 17.2391 31.312 17.0576 31.015C17.0576 31.015 16.8188 31.4271 16.627 31.533C16.6258 31.533 18.6644 32.1465 19.2869 32.1465Z" fill="white" stroke="black" stroke-width="0.155919" stroke-linecap="round" stroke-linejoin="round"/>
<path d="M19.1621 29.959C19.1621 29.959 19.3149 30.1224 19.3631 30.3331" stroke="black" stroke-width="0.155919" stroke-linecap="round" stroke-linejoin="round"/>
<path d="M20.1769 29.355C20.1769 29.355 20.2343 28.5872 19.0376 28.2131C17.8408 27.839 17.2091 28.1268 16.4052 27.321C15.4726 26.3852 14.0794 26.6212 14.0794 26.6212C14.0794 26.6212 14.1277 25.576 13.3949 25.3884C12.6622 25.2008 12.0029 25.4321 11.8732 26.2517C11.8732 26.2517 11.4 25.6762 10.4812 25.9639C9.56235 26.2517 9.40386 27.115 9.57614 27.5754C9.74841 28.151 10.1504 28.151 10.0068 28.669C9.86326 29.1869 9.23158 29.8488 9.31772 32.1084C9.40386 34.368 9.43946 35.5397 10.6385 36.7415C11.8376 37.9432 12.2901 38.612 11.8444 41.0005C11.3988 43.389 11.0543 41.8776 10.2078 45.1156C9.74841 46.2667 9.24537 46.2667 9.24537 46.2667C9.24537 46.2667 10.6374 47.4039 11.3414 45.7924C11.3414 45.7924 12.0741 47.519 11.1553 47.9357C10.2365 48.3524 8.57119 47.4315 7.81088 48.1947C7.05056 48.9579 7.22284 50.9573 7.32276 52.0646C7.42268 53.172 7.79595 54.0077 9.56235 55.0287C11.3288 56.0497 12.2901 56.4537 13.3961 55.9633C13.9336 55.7251 14.7605 55.1196 14.9638 54.772C15.1797 54.4048 12.7747 52.9533 11.9317 52.5677C11.0841 52.1786 11.3 51.2151 11.6446 51.0275C11.9892 50.8399 11.9892 50.841 13.813 51.1564C15.6368 51.4718 16.3834 50.6672 16.3834 50.6672C16.3834 50.6672 15.6655 51.1852 15.7655 52.509C15.8654 53.8327 16.6131 54.3369 17.2149 54.8111C18.2198 55.5018 21.005 56.0485 21.005 56.0485L23.7177 54.4658C23.7177 54.4658 24.091 54.1642 22.9 53.7176C21.709 53.271 20.3147 53.5967 19.8553 52.3156C19.3959 51.0344 19.9426 50.3795 19.9426 49.8177C19.9426 49.256 20.4732 47.389 18.09 46.0652C18.09 46.0652 18.5207 45.6819 18.7217 45.2215C18.7217 45.2215 20.7121 46.4301 21.4402 45.9892C22.1672 45.5484 23.0861 45.0684 23.0861 44.5504C23.0861 44.0324 22.4349 43.4373 21.4781 42.9389C20.5214 42.4405 19.9081 42.2287 19.9081 42.2287C19.9081 42.2287 21.593 40.2143 21.4391 38.2954C21.4391 38.2954 22.5107 38.9665 23.8314 38.2379C25.1522 37.5092 26.071 37.2019 26.071 37.2019C26.071 37.2019 27.3149 36.2431 28.8275 35.4177C29.8037 34.7846 28.7321 31.2163 28.7321 31.2163C28.7321 31.2163 27.2012 33.4989 24.5401 33.7867C21.879 34.0744 20.2332 34.17 19.8117 34.0549C19.3902 33.9398 18.9882 33.614 17.9936 33.614C16.9978 33.614 16.2708 33.5369 15.9458 32.8462C15.9458 32.8462 16.4052 32.7691 16.8451 32.5585C17.2355 32.3708 17.5215 32.3202 18.1165 32.4042C18.1923 32.4146 18.4311 32.4767 18.5357 32.5147C18.7424 32.5884 19.0732 32.6759 19.2098 32.5389C19.4154 32.3328 19.5016 32.0451 19.1811 31.839C18.8607 31.633 18.1957 31.5317 17.4388 31.618C16.6831 31.7044 16.6257 31.2819 16.6257 30.879C16.6257 30.4762 17.2482 30.2459 18.0613 30.1976C18.8745 30.1492 19.8174 30.269 20.0804 29.728C20.2067 29.4436 20.1769 29.355 20.1769 29.355Z" fill="white" stroke="black" stroke-width="0.311839" stroke-linecap="round" stroke-linejoin="round"/>
<path d="M15.9448 32.8477C15.9448 32.8477 11.7907 32.675 11.9251 30.123" stroke="black" stroke-width="0.311839" stroke-linecap="round" stroke-linejoin="round"/>
<path d="M14.0793 26.6214C14.0793 26.6214 12.6345 26.7849 12.3083 26.8804C12.3083 26.8804 12.0878 26.4684 11.873 26.252" stroke="black" stroke-width="0.311839" stroke-linecap="round" stroke-linejoin="round"/>
<path d="M11.5633 26.8222C11.5633 26.8222 11.2187 26.3042 10.5491 26.7071C9.87955 27.11 10.3769 27.7811 10.3769 27.7811" stroke="black" stroke-width="0.467758" stroke-linecap="round" stroke-linejoin="round"/>
<path d="M21.4395 38.2955C21.4395 38.2955 21.6577 35.3073 18.8496 33.7119" stroke="black" stroke-width="0.311839" stroke-linecap="round" stroke-linejoin="round"/>
<path d="M19.909 42.2283C19.909 42.2283 17.7842 41.5377 17.5924 40.5017C17.4006 39.4658 17.2283 38.9673 17.4776 38.2571C17.7268 37.5469 17.8795 37.1256 17.7268 36.6836" stroke="black" stroke-width="0.311839" stroke-linecap="round" stroke-linejoin="round"/>
<path d="M18.7226 45.2215C18.7226 45.2215 15.6021 43.7827 15.2001 42.6892C14.7982 41.5956 14.186 39.9841 13.5922 38.9481C12.9985 37.9122 12.9801 37.8166 12.8457 37.0293" stroke="black" stroke-width="0.311839" stroke-linecap="round" stroke-linejoin="round"/>
<path d="M18.0898 46.0654C18.0898 46.0654 17.3433 46.5638 17.1136 47.5998C16.8839 48.6358 17.1802 49.7097 16.3809 50.6697" stroke="black" stroke-width="0.311839" stroke-linecap="round" stroke-linejoin="round"/>
<path d="M18.2509 45.0244C18.2509 45.0244 17.447 46.0385 17.3184 47.0112" stroke="black" stroke-width="0.311839" stroke-linecap="round" stroke-linejoin="round"/>
<path d="M19.4805 29.5379C19.4805 29.9074 19.7814 30.2067 20.1523 30.2067C20.5233 30.2067 20.8242 29.9074 20.8242 29.5379C20.8242 29.1684 20.5233 28.8691 20.1523 28.8691C19.7814 28.868 19.4805 29.1673 19.4805 29.5379Z" fill="black" stroke="black" stroke-width="0.311839" stroke-linecap="round" stroke-linejoin="round"/>
<path d="M20.3864 29.7056C20.3864 29.7056 20.6495 29.2981 20.2578 29.1162" stroke="white" stroke-width="0.311839" stroke-linecap="round" stroke-linejoin="round"/>
<path d="M16.7017 28.3669C16.7017 28.3669 16.534 28.3531 16.4341 28.2518C16.3342 28.1505 16.2331 27.9352 15.9747 27.8972C15.7163 27.8592 15.1179 27.8731 14.8354 28.1562C14.5528 28.4394 14.5482 28.6454 14.4047 28.7893C14.4047 28.7893 14.2944 28.8331 14.4426 28.9815C14.5907 29.13 14.6723 29.0483 14.8825 29.2601C15.0926 29.4708 15.6198 29.5479 15.954 29.366C16.2894 29.1841 16.4134 29.0115 16.4996 28.6178C16.5868 28.3956 16.7017 28.3669 16.7017 28.3669Z" fill="black" stroke="black" stroke-width="0.0389799" stroke-linecap="round" stroke-linejoin="round"/>
<path d="M15.626 28.1945C15.626 28.1945 15.5927 28.1035 15.7167 28.1035C15.8408 28.1035 16.0234 28.1127 16.1566 28.1703C16.291 28.2278 16.4001 28.3429 16.4001 28.549C16.4001 28.755 16.2519 29.0359 16.0532 29.1441C15.8545 29.2523 15.6915 29.273 15.6007 29.2396C15.51 29.2062 15.572 29.1291 15.6719 29.0911C15.773 29.0532 15.9407 29.0773 16.0888 28.7896C16.237 28.5018 16.1796 28.3487 16.0797 28.3004C15.9809 28.252 15.626 28.2428 15.626 28.1945Z" fill="white" stroke="white" stroke-width="0.0389799" stroke-linecap="round" stroke-linejoin="round"/>
<path d="M15.8652 28.5065C15.8583 28.488 15.8319 28.3672 15.655 28.3672C15.4781 28.3672 15.392 28.4535 15.4161 28.6458C15.4402 28.838 15.6653 28.838 15.7365 28.838C15.8387 28.8057 15.9168 28.64 15.8652 28.5065Z" fill="white" stroke="white" stroke-width="0.0389799" stroke-linecap="round" stroke-linejoin="round"/>
<path d="M15.109 28.3187C15.109 28.3187 15.0378 28.2232 14.8793 28.3809C14.7208 28.5386 14.7645 28.8171 14.8081 28.9127C14.8518 29.0082 14.9804 29.1337 15.0378 29.0761C15.0953 29.0186 14.9942 28.9656 14.9517 28.8747C14.9081 28.7838 14.9035 28.6491 14.9896 28.5627C15.0757 28.4764 15.1814 28.3912 15.109 28.3187Z" fill="white" stroke="white" stroke-width="0.0389799" stroke-linecap="round" stroke-linejoin="round"/>
<path d="M24.0189 46.1516C24.0579 46.2207 24.3232 45.2215 23.5882 44.5977C23.1288 44.2305 22.9209 44.4964 22.9209 44.4964C22.9209 44.4964 22.7348 44.6333 22.9209 44.8774C22.9209 44.8774 22.6694 44.6253 22.4833 44.7554C22.2972 44.8854 22.458 45.0466 22.458 45.0466C22.458 45.0466 22.2123 44.8578 22.0239 45.0466C21.8355 45.2354 22.0457 45.5036 22.0457 45.5036C22.0457 45.5036 21.7586 45.2227 21.522 45.4598C21.3532 45.629 21.4577 45.8489 21.5863 45.9928C21.5863 45.9928 21.2211 45.5818 20.9409 45.8627C20.6606 46.1436 20.9845 46.3738 21.2062 46.467C21.4278 46.5603 21.9458 46.9988 22.017 47.381C22.017 47.381 22.3041 47.0356 22.0813 46.5464C22.0813 46.5464 22.2973 46.726 22.3822 47.122C22.3822 47.122 22.6338 46.4382 22.3822 45.9709C22.3822 45.9709 22.7486 46.3738 22.9634 46.9712C22.9634 46.9712 23.2321 46.4279 22.9634 45.7982C22.9634 45.7982 23.3435 46.2449 23.4446 46.6615C23.4446 46.6615 23.7455 45.7913 23.3585 45.2941C23.3573 45.2952 23.7455 45.6624 24.0189 46.1516Z" fill="white" stroke="black" stroke-width="0.233879" stroke-linecap="round" stroke-linejoin="round"/>
<path d="M22.9199 44.8789C22.9199 44.8789 23.2829 45.1793 23.3575 45.2956" stroke="black" stroke-width="0.233879" stroke-linecap="round" stroke-linejoin="round"/>
<path d="M22.457 45.0479C22.457 45.0479 22.8337 45.4979 22.9635 45.7995" stroke="black" stroke-width="0.233879" stroke-linecap="round" stroke-linejoin="round"/>
<path d="M22.0449 45.5039C22.0449 45.5039 22.3056 45.771 22.3826 45.9712" stroke="black" stroke-width="0.233879" stroke-linecap="round" stroke-linejoin="round"/>
<path d="M21.584 45.9941C21.584 45.9941 21.8573 46.2186 22.0801 46.5467" stroke="black" stroke-width="0.233879" stroke-linecap="round" stroke-linejoin="round"/>
<path d="M15.2324 56.691C15.2645 56.7751 15.7412 55.7069 15.0004 54.8827C14.5341 54.3935 14.2492 54.6525 14.2492 54.6525C14.2492 54.6525 14.0115 54.7722 14.1849 55.0772C14.1849 55.0772 13.9391 54.7526 13.7014 54.8643C13.4648 54.9759 13.6233 55.1843 13.6233 55.1843C13.6233 55.1843 13.3729 54.9299 13.1237 55.1083C12.8745 55.2856 13.0709 55.6217 13.0709 55.6217C13.0709 55.6217 12.7883 55.258 12.4748 55.4813C12.252 55.6401 12.3347 55.9037 12.4576 56.0867C12.4576 56.0867 12.1061 55.5641 11.7375 55.8277C11.3676 56.0913 11.7007 56.4044 11.9407 56.5483C12.1808 56.6922 12.701 57.2723 12.7194 57.7098C12.7194 57.7098 13.1088 57.3748 12.9353 56.7912C12.9353 56.7912 13.1524 57.0295 13.1846 57.4853C13.1846 57.4853 13.59 56.7682 13.3798 56.2018C13.3798 56.2018 13.7324 56.7152 13.8783 57.4185C13.8783 57.4185 14.2791 56.8603 14.077 56.1109C14.077 56.1109 14.4387 56.6749 14.4835 57.1584C14.4835 57.1584 14.9785 56.241 14.6168 55.6194C14.6179 55.6194 15.0015 56.0971 15.2324 56.691Z" fill="white" stroke="black" stroke-width="0.233879" stroke-linecap="round" stroke-linejoin="round"/>
<path d="M14.1855 55.0771C14.1855 55.0771 14.5519 55.4754 14.6185 55.6193" stroke="black" stroke-width="0.233879" stroke-linecap="round" stroke-linejoin="round"/>
<path d="M13.623 55.1846C13.623 55.1846 13.9802 55.7521 14.0779 56.1112" stroke="black" stroke-width="0.233879" stroke-linecap="round" stroke-linejoin="round"/>
<path d="M13.0703 55.6221C13.0703 55.6221 13.3253 55.9662 13.3793 56.2022" stroke="black" stroke-width="0.233879" stroke-linecap="round" stroke-linejoin="round"/>
<path d="M12.459 56.0869C12.459 56.0869 12.7346 56.385 12.9356 56.7902" stroke="black" stroke-width="0.233879" stroke-linecap="round" stroke-linejoin="round"/>
<path d="M24.2144 56.2587C24.2546 56.3392 24.6072 55.2181 23.8044 54.4745C23.3014 54.0348 23.0521 54.326 23.0521 54.326C23.0521 54.326 22.8339 54.4722 23.0326 54.7588C23.0326 54.7588 22.7604 54.4607 22.5422 54.5977C22.324 54.7346 22.4986 54.9269 22.4986 54.9269C22.4986 54.9269 22.2298 54.7001 22.0059 54.905C21.7819 55.1099 22.007 55.4241 22.007 55.4241C22.007 55.4241 21.6958 55.0915 21.4144 55.3482C21.2145 55.5312 21.3213 55.7867 21.4603 55.9559C21.4603 55.9559 21.0664 55.4713 20.7345 55.7752C20.4025 56.0791 20.7574 56.3565 21.0055 56.4739C21.2536 56.5913 21.6487 56.947 21.7107 57.3833C21.7107 57.3833 21.9978 56.8584 21.7704 56.292C21.7704 56.292 22.2298 56.8238 22.3079 57.2774C22.3079 57.2774 22.6272 56.5154 22.3665 55.972C22.3665 55.972 22.7616 56.2541 22.9752 56.9424C22.9752 56.9424 23.3071 56.5326 23.0349 55.8051C23.0349 55.8051 23.4438 56.33 23.5368 56.8089C23.5368 56.8089 23.9227 55.8362 23.5081 55.2538C23.5093 55.2538 23.9296 55.69 24.2144 56.2587Z" fill="white" stroke="black" stroke-width="0.233879" stroke-linecap="round" stroke-linejoin="round"/>
<path d="M23.0332 54.7588C23.0332 54.7588 23.4294 55.1179 23.5087 55.2549" stroke="black" stroke-width="0.233879" stroke-linecap="round" stroke-linejoin="round"/>
<path d="M22.5 54.9268C22.5 54.9268 22.9043 55.4563 23.0364 55.805" stroke="black" stroke-width="0.233879" stroke-linecap="round" stroke-linejoin="round"/>
<path d="M22.0078 55.4238C22.0078 55.4238 22.2903 55.7404 22.3673 55.9717" stroke="black" stroke-width="0.233879" stroke-linecap="round" stroke-linejoin="round"/>
<path d="M21.4609 55.957C21.4609 55.957 21.6079 56.0606 21.771 56.2931" stroke="black" stroke-width="0.233879" stroke-linecap="round" stroke-linejoin="round"/>
<path d="M27.9664 61.3744H29.4595V15.4463L29.9763 14.065L28.7704 10.1514L27.5645 14.065L28.1961 15.7341L27.9664 61.3744Z" fill="white" stroke="black" stroke-width="0.233879" stroke-linecap="round" stroke-linejoin="round"/>
<path d="M29.4597 31.1445C29.4597 31.1445 30.0478 31.3886 30.1776 31.6913C30.1776 31.6913 30.5933 31.7201 30.6657 32.1805C30.738 32.6409 30.3211 32.7054 30.3211 32.7054C30.3211 32.7054 30.8598 32.6122 30.8598 33.0645C30.8598 33.5169 30.2568 33.5181 30.2568 33.5181C30.2568 33.5181 30.7518 33.4824 30.7093 34.0499C30.7093 34.5322 30.1994 34.3307 30.1994 34.3307C30.1994 34.3307 30.73 34.5471 30.4647 35.0651C30.1994 35.5831 29.6067 34.9891 29.4988 34.8821C29.3908 34.775 28.8924 34.4539 28.7339 34.4539C28.7339 34.4539 29.423 34.2674 29.9329 34.2674C29.9329 34.2674 29.222 33.8864 28.8418 33.7782C28.8418 33.7782 29.5815 33.6631 29.9467 33.5411C29.9467 33.5411 29.129 33.3396 28.8774 33.1819C28.8774 33.1819 29.5275 33.007 30.0616 32.7722C30.0616 32.7722 29.3311 32.832 29.0543 32.5546C29.0543 32.5546 28.5191 33.1463 28.1814 33.19C27.8438 33.2337 27.5601 32.5707 27.7955 32.2553C28.031 31.9399 28.6765 31.9676 29.1152 32.0113C29.4597 32.055 29.4597 32.055 29.4597 32.055V31.1445Z" fill="white" stroke="black" stroke-width="0.233879" stroke-linecap="round" stroke-linejoin="round"/>
<path d="M30.1768 31.6904C30.1768 31.6904 29.8736 32.1762 29.459 32.3373C29.0444 32.4985 29.0547 32.5514 29.0547 32.5514" stroke="black" stroke-width="0.233879" stroke-linecap="round" stroke-linejoin="round"/>
<path d="M30.3209 32.7051L30.0625 32.7695" stroke="black" stroke-width="0.233879" stroke-linecap="round" stroke-linejoin="round"/>
<path d="M30.2562 33.5186L29.9473 33.5404" stroke="black" stroke-width="0.233879" stroke-linecap="round" stroke-linejoin="round"/>
<path d="M30.1989 34.3311L29.9336 34.2666" stroke="black" stroke-width="0.233879" stroke-linecap="round" stroke-linejoin="round"/>
<path d="M29.4609 32.0508V32.3386" stroke="black" stroke-width="0.233879" stroke-linecap="round" stroke-linejoin="round"/>
<path d="M29.4611 28.1086V15.8496L19.9284 18.382V16.6174C19.9284 16.6174 20.0054 15.7921 19.1245 15.9843C18.2436 16.1765 8.71094 19.0151 8.71094 19.0151L16.6161 21.2021V24.0027C16.6161 24.0027 16.5208 24.5403 17.9564 25.0007C19.3921 25.4611 29.4611 28.1086 29.4611 28.1086Z" fill="#9E9E9E" stroke="black" stroke-width="0.233879" stroke-linecap="round" stroke-linejoin="round"/>
<path d="M19.9286 18.3818L19.8333 22.1424C19.8333 22.1424 19.8333 22.6604 18.5699 22.9482C17.3066 23.2359 16.5485 23.5306 16.6496 24.1695" stroke="black" stroke-width="0.233879" stroke-linecap="round" stroke-linejoin="round"/>
<path d="M16.6172 21.2021L19.3162 21.8928C19.3162 21.8928 19.8824 22.0286 19.7572 22.3348" stroke="black" stroke-width="0.233879" stroke-linecap="round" stroke-linejoin="round"/>
<path d="M24.2981 24.0351C23.8525 24.0351 23.8824 24.3804 23.8824 24.3804V25.5177H20.8825V25.3381H20.9537V25.1942H21.0398V23.5183H20.5586V22.2809H21.0398V21.1804H20.6597V20.3459H21.2408V20.7557H21.5142V20.0938H22.1677V20.7557H22.4548V20.3459H23.0153V21.1804H22.6707V22.2809H23.0589V22.9427H23.2886V19.3525H22.5995V18.3165H23.346V18.8127H23.7124V18.0645H24.2005H24.452H24.9402V18.8127H25.3065V18.3165H26.0531V19.3525H25.364V22.9427H25.5937V22.2809H25.9819V21.1804H25.6373V20.3459H26.1978V20.7557H26.4849V20.0938H27.1338V20.7557H27.4072V20.3459H27.9883V21.1804H27.6081V22.2809H28.0894V23.5183H27.6081V25.1942H27.6943V25.3381H27.7655V25.5177H24.7656V24.3804C24.7656 24.3804 24.7943 24.0351 24.3498 24.0351H24.2981Z" fill="white" stroke="black" stroke-width="0.11694"/>
<path d="M27.6071 21.1797H25.9785" stroke="black" stroke-width="0.11694"/>
<path d="M27.6071 22.2812H27.2132V22.9351H26.4953V22.2812H25.9785" stroke="black" stroke-width="0.11694"/>
<path d="M26.4888 24.8131V24.1086C26.4888 24.1086 26.5026 23.8496 26.2304 23.8496C25.9582 23.8496 25.957 24.1086 25.957 24.1086V24.8131H26.4888Z" fill="#9E9E9E" stroke="black" stroke-width="0.11694"/>
<path d="M26.3336 24.8133V24.1514C26.3336 24.1514 26.3474 24.0225 26.213 24.0225C26.0867 24.0225 26.0959 24.1514 26.0959 24.1514V24.8133" stroke="black" stroke-width="0.11694"/>
<path d="M26.9914 22.1084V21.6422C26.9914 21.6422 27.0028 21.4707 26.7846 21.4707C26.5664 21.4707 26.5664 21.6422 26.5664 21.6422V22.1084H26.9914Z" fill="#9E9E9E" stroke="black" stroke-width="0.11694"/>
<path d="M26.8693 22.1085V21.6711C26.8693 21.6711 26.8797 21.5859 26.7729 21.5859C26.6718 21.5859 26.6798 21.6711 26.6798 21.6711V22.1085" stroke="black" stroke-width="0.11694"/>
<path d="M27.6948 25.3379H24.9453" stroke="black" stroke-width="0.11694"/>
<path d="M27.6076 25.1943H24.9453" stroke="black" stroke-width="0.11694"/>
<path d="M21.0391 21.1797H22.6676" stroke="black" stroke-width="0.11694"/>
<path d="M21.0391 22.2812H21.4342V22.9351H22.1508V22.2812H22.6676" stroke="black" stroke-width="0.11694"/>
<path d="M22.1603 24.8131V24.1086C22.1603 24.1086 22.1465 23.8496 22.4187 23.8496C22.6909 23.8496 22.692 24.1086 22.692 24.1086V24.8131H22.1603Z" fill="#9E9E9E" stroke="black" stroke-width="0.11694"/>
<path d="M22.3129 24.8133V24.1514C22.3129 24.1514 22.2991 24.0225 22.4335 24.0225C22.5598 24.0225 22.5506 24.1514 22.5506 24.1514V24.8133" stroke="black" stroke-width="0.11694"/>
<path d="M21.6564 22.1084V21.6422C21.6564 21.6422 21.6449 21.4707 21.8631 21.4707C22.0813 21.4707 22.0813 21.6422 22.0813 21.6422V22.1084H21.6564Z" fill="#9E9E9E" stroke="black" stroke-width="0.11694"/>
<path d="M21.7796 22.1085V21.6711C21.7796 21.6711 21.7692 21.5859 21.876 21.5859C21.9771 21.5859 21.9691 21.6711 21.9691 21.6711V22.1085" stroke="black" stroke-width="0.11694"/>
<path d="M23.7012 25.5181V24.3233C23.7012 24.3233 23.6943 23.8271 24.2616 23.8271H24.3834C24.9508 23.8271 24.9439 24.3233 24.9439 24.3233V25.5181" stroke="black" stroke-width="0.11694"/>
<path d="M20.9531 25.3379H23.7015" stroke="black" stroke-width="0.11694"/>
<path d="M21.0391 25.1943H23.7013" stroke="black" stroke-width="0.11694"/>
<path d="M25.3613 19.3525H23.2871" stroke="black" stroke-width="0.11694"/>
<path d="M25.3613 22.9414H24.8468V22.3037H23.8131V22.9414H23.2871" stroke="black" stroke-width="0.11694"/>
<path d="M27.6062 23.5176H21.0391" stroke="black" stroke-width="0.11694"/>
<path d="M24.6655 21.0771H24.043V22.0751H24.6655V21.0771Z" fill="#9E9E9E" stroke="black" stroke-width="0.11694"/>
<path d="M24.5117 21.2871H24.2051V21.911H24.5117V21.2871Z" stroke="black" stroke-width="0.11694"/>
<path d="M40.0753 37.1064H22.541L22.618 49.2308C22.618 49.2308 22.8856 56.981 31.3087 57.3263C39.7308 56.8659 39.9605 49.2308 39.9605 49.2308L40.0753 37.1064Z" fill="#9E9E9E" stroke="black" stroke-width="0.311839"/>
<path d="M27.9961 45.7774L29.2388 40.6022L37.7584 40.54L38.4096 41.1927L37.376 45.7395L27.9961 45.7774Z" fill="white" stroke="black" stroke-width="0.233879"/>
<path d="M37.3752 45.7395L36.6953 45.058L37.7577 40.54" stroke="black" stroke-width="0.233879"/>
<path d="M37.5784 41.3008H29.7375L29.1816 43.878" stroke="black" stroke-width="0.233879"/>
<path d="M29.2383 40.6025L29.7379 41.3012" stroke="black" stroke-width="0.233879"/>
<path d="M38.1121 40.8945C38.1121 40.8945 37.7515 41.4148 38.2809 41.7544L38.4084 41.1927L38.1121 40.8945Z" fill="white" stroke="black" stroke-width="0.233879"/>
<path d="M33.0495 40.5239C33.0495 40.5239 32.9347 39.5225 33.8535 39.5225C34.6574 39.5225 34.5426 40.5285 34.5426 40.5285L33.0495 40.5239Z" fill="white" stroke="black" stroke-width="0.233879"/>
<path d="M33.4707 40.5265C33.4707 40.5265 33.38 39.9268 33.8153 39.9268C34.2127 39.9268 34.1265 40.5288 34.1265 40.5288L33.4707 40.5265Z" fill="#9E9E9E" stroke="black" stroke-width="0.233879"/>
<path d="M28.1388 46.1514H36.9824V50.4967L34.4844 53.1442H25.5547V48.7125L28.1388 46.1514Z" fill="white" stroke="black" stroke-width="0.233879"/>
<path d="M25.5547 50.0079C25.5547 50.0079 26.5022 49.6522 26.5022 48.7129H25.5547V50.0079Z" fill="white" stroke="black" stroke-width="0.233879" stroke-linejoin="round"/>
<path d="M25.5547 53.1447H26.5022C26.5022 53.1447 26.5022 52.1087 25.5547 51.9648V53.1447Z" fill="white" stroke="black" stroke-width="0.233879" stroke-linejoin="round"/>
<path d="M34.4851 53.144L35.3431 52.2346C35.3431 52.2346 35.0732 51.5475 34.4851 51.7489C34.4851 51.7489 33.4802 51.8502 33.293 53.144H34.4851Z" fill="white" stroke="black" stroke-width="0.233879"/>
<path d="M34.4843 48.7132H33.3496C33.3496 48.7132 33.3358 49.8643 34.4843 49.9794C34.4843 49.9794 35.4939 49.3659 34.8886 48.2988L34.4843 48.7132Z" fill="white" stroke="black" stroke-width="0.233879"/>
<path d="M34.4844 53.1445V48.7129" stroke="black" stroke-width="0.233879"/>
<path d="M36.3867 46.7626C36.3867 46.7626 36.4947 47.5465 36.9828 47.5465V46.1514L36.3867 46.7626Z" fill="white" stroke="black" stroke-width="0.233879" stroke-linejoin="round"/>
<path d="M25.5547 48.7125H34.4844L36.9824 46.1514" stroke="black" stroke-width="0.233879" stroke-linejoin="round"/>
<path d="M36.6611 50.838C36.6611 50.838 36.1787 50.0081 36.9827 49.375V50.4973L36.6611 50.838Z" fill="white" stroke="black" stroke-width="0.233879" stroke-linejoin="round"/>
<path d="M29.9912 48.7129C29.9912 48.7129 29.603 49.3598 28.7715 49.4473C28.7715 49.4473 29.4824 49.9146 30.1635 49.2309C30.1635 49.2309 30.0773 49.6338 30.6229 50.1805C30.6229 50.1805 30.9961 49.8789 30.9961 49.2309C30.9961 49.2309 31.4268 50.108 32.2882 49.7627C32.2882 49.7627 31.6898 49.5325 31.498 48.7129H29.9912Z" fill="white" stroke="black" stroke-width="0.233879" stroke-linejoin="round"/>
<path d="M33.3489 48.7126L35.1578 43.9494C35.1578 43.9494 35.3014 43.2588 34.1104 42.8996C32.9849 42.5601 32.7035 43.3889 32.7035 43.3889L30.952 48.0219L29.4314 42.7178L25.8848 44.0219L27.5363 48.7126H33.3489Z" fill="white" stroke="black" stroke-width="0.233879" stroke-linejoin="round"/>
<path d="M28.3408 48.7126L26.834 44.3097L29.4331 42.7178" stroke="black" stroke-width="0.233879" stroke-linejoin="round"/>
<path d="M30.9531 48.0225L31.1978 48.7131" stroke="black" stroke-width="0.233879" stroke-linejoin="round"/>
<path d="M31.9297 48.7131L33.5812 44.6555C33.5812 44.6555 32.5717 44.2722 32.7681 43.2627" stroke="black" stroke-width="0.233879" stroke-linejoin="round"/>
<path d="M35.1151 44.0645C35.1151 44.0645 34.5983 44.9278 33.2925 43.9932L33.1328 44.3684" stroke="black" stroke-width="0.233879" stroke-linejoin="round"/>
<path d="M32.6184 47.2166C32.9038 47.2166 33.1352 46.9847 33.1352 46.6986C33.1352 46.4126 32.9038 46.1807 32.6184 46.1807C32.333 46.1807 32.1016 46.4126 32.1016 46.6986C32.1016 46.9847 32.333 47.2166 32.6184 47.2166Z" fill="#9E9E9E" stroke="black" stroke-width="0.233879" stroke-linejoin="round"/>
<path d="M12.2609 60.9137C6.34609 54.2179 6.34609 50.8418 6.34609 50.8418C6.34609 50.8418 4.77608 52.5684 4.35572 55.1388C4.35572 55.1388 2.67086 53.3742 0.335938 53.3742C0.335938 53.3742 1.94385 60.8942 6.84454 64.6547C6.84339 64.6547 7.01567 65.2683 12.2609 60.9137Z" fill="white" stroke="black" stroke-width="0.467758"/>
<path d="M6.84312 64.655C6.84312 64.655 7.35076 64.7505 7.35076 64.1462C7.35076 63.5419 5.74285 62.1123 5.46491 61.8348C5.46491 61.8348 4.52658 61.0866 4.69885 60.4915C4.87113 59.8964 5.44538 59.954 5.61766 60.1266L5.90479 59.8389L8.96097 63.5074C8.96097 63.5074 8.19492 64.0265 7.41852 64.5272C7.41967 64.5272 7.02573 64.8369 6.84312 64.655Z" fill="#9E9E9E" stroke="black" stroke-width="0.467758"/>
<path d="M50.2129 61.0981C56.3046 54.5634 56.3942 51.1885 56.3942 51.1885C56.3942 51.1885 57.9171 52.9565 58.2697 55.5373C58.2697 55.5373 60.0005 53.8175 62.3354 53.8809C62.3354 53.8809 60.5277 61.356 55.5282 64.983C55.5282 64.983 55.3398 65.5919 50.2129 61.0981Z" fill="white" stroke="black" stroke-width="0.467758"/>
<path d="M55.5283 64.9828C55.5283 64.9828 55.0183 65.0646 55.0344 64.4614C55.0505 63.8571 56.6963 62.4712 56.9811 62.2007C56.9811 62.2007 57.939 61.4778 57.7828 60.8792C57.6266 60.2795 57.0512 60.3221 56.8743 60.4902L56.5952 60.1943L53.4414 63.7788C53.4414 63.7788 54.1937 64.3187 54.9563 64.8401C54.9563 64.8401 55.3422 65.1601 55.5283 64.9828Z" fill="#9E9E9E" stroke="black" stroke-width="0.467758"/>
<path d="M4.70117 60.4917C4.70117 60.4917 6.09546 58.6499 9.00579 56.7598C10.4816 55.8263 11.5911 57.7866 11.5911 57.7866C11.5911 57.7866 18.5212 66.9573 30.5231 66.6695C41.2778 66.6695 47.1007 61.7256 50.2752 58.6096C50.4566 58.4312 50.9402 57.9109 51.1745 57.6715C51.7797 57.0511 52.9753 56.0508 53.7632 56.8404C55.107 58.1872 57.2501 59.527 57.7841 60.8796C57.7841 60.8796 57.5016 59.9437 56.3359 60.8853C55.0817 61.8983 47.4636 73.0004 30.4083 73.0004C14.3866 73.0004 6.34699 61.1443 6.34699 61.1443C6.34699 61.1443 5.15024 59.5328 4.70117 60.4917Z" fill="white" stroke="black" stroke-width="0.467758"/>
<path d="M17.5068 68.1656C17.6538 67.8617 17.833 67.6614 18.0455 67.5624C18.2579 67.4645 18.4624 67.4634 18.6611 67.5601C18.7897 67.6222 18.8885 67.7155 18.9585 67.8398C19.0286 67.9641 19.0619 68.1103 19.0561 68.2795C19.0504 68.4487 19.001 68.6283 18.9091 68.8205C18.7817 69.0841 18.6174 69.2706 18.4176 69.3776C18.1971 69.4962 17.9811 69.5043 17.7675 69.4007C17.5527 69.2959 17.4253 69.1186 17.3862 68.8677C17.3495 68.6398 17.3897 68.4061 17.5068 68.1656ZM17.7055 68.2657C17.5987 68.4856 17.5642 68.6789 17.6021 68.847C17.64 69.015 17.7273 69.1325 17.864 69.1992C18.0041 69.2671 18.1523 69.2637 18.3073 69.1877C18.4624 69.1117 18.5967 68.9552 18.7116 68.7169C18.7862 68.5638 18.8276 68.4153 18.8368 68.2703C18.8437 68.1598 18.823 68.0574 18.7736 67.9653C18.7242 67.8732 18.6553 67.8041 18.5646 67.7604C18.4199 67.6902 18.2717 67.6925 18.119 67.7684C17.9662 67.8456 17.8284 68.0113 17.7055 68.2657Z" fill="black"/>
<path d="M18.9336 69.9079L19.6755 68.0742L20.3394 68.3436C20.4783 68.4 20.5737 68.4587 20.6253 68.5197C20.677 68.5807 20.7092 68.659 20.7184 68.7568C20.7287 68.8535 20.7126 68.9548 20.6701 69.0595C20.6139 69.1977 20.5323 69.2955 20.4267 69.3519C20.3198 69.4083 20.1935 69.4198 20.0465 69.3876C20.0901 69.4452 20.12 69.497 20.1361 69.543C20.1659 69.6362 20.1866 69.7352 20.1958 69.84L20.2544 70.4443L20.0052 70.343L19.9592 69.8814C19.942 69.7007 19.9248 69.5775 19.9064 69.5096C19.888 69.4417 19.8639 69.3911 19.834 69.3588C19.8042 69.3254 19.7559 69.2955 19.6905 69.269L19.4619 69.1758L19.1334 69.9896L18.9336 69.9079ZM19.5469 68.9652L19.9707 69.1378C20.0637 69.1758 20.1384 69.1931 20.1958 69.1896C20.2532 69.1862 20.3049 69.1666 20.3532 69.1298C20.4014 69.0929 20.4381 69.0423 20.4634 68.9778C20.5013 68.8857 20.5036 68.8017 20.4714 68.7269C20.4393 68.6521 20.3704 68.5934 20.2636 68.5496L19.7915 68.3585L19.5469 68.9652Z" fill="black"/>
<path d="M20.6562 70.5895L21.2764 68.7109L21.4832 68.78L21.8025 70.5273L22.2906 69.0494L22.4847 69.1138L21.8645 70.9924L21.6566 70.9233L21.3373 69.1794L20.8492 70.6563L20.6562 70.5895Z" fill="black"/>
<path d="M22.2559 71.1109L23.3607 69.3555L23.5847 69.4142L23.7202 71.4953L23.4836 71.4332L23.4549 70.8047L22.7957 70.6309L22.4741 71.1673L22.2559 71.1109ZM22.9082 70.4421L23.4446 70.5825L23.4204 70.0104C23.4124 69.8343 23.4101 69.6927 23.4136 69.5845C23.3607 69.7019 23.2999 69.8159 23.2309 69.9276L22.9082 70.4421Z" fill="black"/>
<path d="M24.1035 71.5836L24.4745 69.6406L24.7892 69.7005L24.9029 71.1485L24.9236 71.4501C24.9557 71.3822 25.0039 71.2832 25.0671 71.1543L25.7057 69.8754L25.9871 69.9295L25.6161 71.8726L25.4151 71.8334L25.7252 70.207L24.9534 71.7448L24.7639 71.708L24.6192 69.9675L24.3034 71.6193L24.1035 71.5836Z" fill="black"/>
<path d="M26.1914 71.9579L26.4326 69.9941L27.5903 70.1369L27.5616 70.3694L26.6175 70.2531L26.544 70.8528L27.4306 70.9622L27.4019 71.1947L26.5153 71.0854L26.4337 71.753L27.4169 71.8738L27.3882 72.1064L26.1914 71.9579Z" fill="black"/>
<path d="M27.8945 72.151L28.0174 70.1758L28.2345 70.1896L28.9879 71.7965L29.0844 70.2425L29.2888 70.2552L29.1671 72.2305L28.9477 72.2166L28.1954 70.612L28.099 72.1637L27.8945 72.151Z" fill="black"/>
<path d="M30.1569 72.2497L30.1661 70.5047L29.6309 70.5012L29.632 70.2676L30.9172 70.2745L30.916 70.5081L30.3808 70.5047L30.3728 72.2509L30.1569 72.2497Z" fill="black"/>
<path d="M32.2934 70.2241L32.5082 70.2148L32.5564 71.3567C32.5645 71.5478 32.5518 71.7055 32.5208 71.8298C32.4887 71.9541 32.4255 72.0531 32.3302 72.1291C32.2348 72.2039 32.112 72.2442 31.9615 72.2511C31.749 72.2603 31.5859 72.2028 31.4757 72.0796C31.3643 71.9564 31.3023 71.7331 31.2885 71.4097L31.2402 70.2678L31.455 70.2586L31.5021 71.3981C31.5101 71.5766 31.5285 71.7055 31.5595 71.7838C31.5905 71.862 31.6388 71.9219 31.7031 71.961C31.7674 72.0002 31.8455 72.0174 31.9351 72.014C32.0867 72.0082 32.1946 71.9599 32.2601 71.8712C32.3244 71.7826 32.352 71.6123 32.3417 71.3636L32.2934 70.2241Z" fill="black"/>
<path d="M33.1558 72.1582L32.9629 70.1887L33.2822 70.1576L33.8002 71.5147L33.9047 71.7991C33.9162 71.7242 33.9345 71.6172 33.9587 71.4745L34.209 70.0667L34.4939 70.0391L34.6868 72.0074L34.4835 72.027L34.3216 70.3786L34.0161 72.073L33.8243 72.0914L33.1937 70.4638L33.358 72.1375L33.1558 72.1582Z" fill="black"/>
<path d="M36.0311 71.8121L35.6797 69.8656L36.2804 69.7562C36.4216 69.7309 36.5284 69.724 36.5996 69.7367C36.6973 69.7539 36.7823 69.8023 36.8535 69.884C36.9247 69.9646 36.9729 70.0716 36.9959 70.2051C37.028 70.3801 37.0085 70.5309 36.9396 70.6575C36.8707 70.7841 36.726 70.867 36.5078 70.9073L36.1 70.981L36.2436 71.7741L36.0311 71.8121ZM36.0587 70.7508L36.4687 70.6759C36.5985 70.6529 36.6869 70.6057 36.7363 70.5367C36.7857 70.4676 36.7995 70.3732 36.7777 70.2546C36.7639 70.1775 36.7375 70.1154 36.6973 70.0659C36.6582 70.0164 36.6157 69.9853 36.5698 69.9726C36.5238 69.96 36.4469 69.9634 36.3378 69.983L35.9312 70.0567L36.0587 70.7508Z" fill="black"/>
<path d="M37.377 71.5676L37.54 69.4991L37.7663 69.4473L38.8528 71.2257L38.6139 71.2809L38.2958 70.7376L37.6308 70.8919L37.5952 71.5169L37.377 71.5676ZM37.6446 70.672L38.1844 70.5465L37.8972 70.0504C37.8088 69.8985 37.741 69.7742 37.6939 69.6763C37.702 69.8053 37.7008 69.9342 37.6916 70.0642L37.6446 70.672Z" fill="black"/>
<path d="M39.4462 71.056L38.9742 69.3766L38.4597 69.5217L38.3965 69.296L39.6334 68.9473L39.6966 69.1717L39.1821 69.3168L39.6541 70.9962L39.4462 71.056Z" fill="black"/>
<path d="M40.5725 70.7264L39.9316 68.8547L40.6093 68.6211C40.7505 68.5727 40.8608 68.5543 40.9412 68.5658C41.0204 68.5773 41.0951 68.6165 41.1663 68.6832C41.2375 68.75 41.2915 68.8363 41.3282 68.9434C41.3765 69.085 41.3788 69.2116 41.3351 69.3244C41.2915 69.4372 41.2042 69.5293 41.0721 69.6018C41.1422 69.6156 41.1984 69.6352 41.2409 69.6605C41.3248 69.7111 41.4052 69.7733 41.481 69.8447L41.9209 70.2625L41.667 70.35L41.3305 70.0311C41.1996 69.9068 41.1054 69.824 41.0468 69.7848C40.9883 69.7457 40.9377 69.7238 40.8941 69.7181C40.8504 69.7123 40.7942 69.7215 40.7264 69.7445L40.4933 69.8251L40.7769 70.655L40.5725 70.7264ZM40.4186 69.6122L40.8516 69.4637C40.9458 69.4314 41.0135 69.3946 41.0549 69.3555C41.0962 69.3152 41.1226 69.2657 41.1341 69.207C41.1456 69.1483 41.141 69.085 41.1181 69.0193C41.0859 68.925 41.0331 68.8605 40.9596 68.8248C40.8861 68.7891 40.7953 68.7903 40.6874 68.8283L40.2061 68.994L40.4186 69.6122Z" fill="black"/>
<path d="M42.3326 70.0958L41.6113 68.2541L41.8123 68.1758L42.5336 70.0175L42.3326 70.0958Z" fill="black"/>
<path d="M42.8942 69.8798L42.668 67.817L42.8804 67.7227L44.2805 69.2663L44.0565 69.3652L43.6431 68.891L43.0194 69.1673L43.1021 69.7877L42.8942 69.8798ZM42.9896 68.9486L43.496 68.7241L43.1216 68.2913C43.0068 68.1589 42.916 68.0484 42.8517 67.9621C42.8839 68.0864 42.9069 68.2142 42.9218 68.3442L42.9896 68.9486Z" fill="black"/>
<path d="M44.6278 69.0957L43.7285 67.3345L44.7668 66.8027L44.8724 67.0111L44.026 67.445L44.3005 67.9826L45.0964 67.5751L45.2021 67.7835L44.4061 68.1909L44.7116 68.7895L45.5937 68.3371L45.6994 68.5455L44.6278 69.0957Z" fill="black"/>
<path d="M12.248 62.2661L14.0168 61.1875L14.1913 61.3406L13.3885 63.2652L13.2036 63.104L13.4563 62.5285L12.9429 62.0784L12.4169 62.4157L12.248 62.2661ZM13.1301 61.9587L13.547 62.3236L13.7802 61.7999C13.8514 61.6387 13.9122 61.511 13.9628 61.4154C13.864 61.4971 13.7583 61.572 13.6469 61.641L13.1301 61.9587Z" fill="black"/>
<path d="M13.6875 63.5059L14.8946 61.9404L15.4619 62.379C15.5802 62.4711 15.656 62.5528 15.6905 62.6253C15.7238 62.6978 15.733 62.783 15.7169 62.8786C15.7008 62.9741 15.6583 63.0673 15.5894 63.1571C15.4987 63.2757 15.3942 63.347 15.2759 63.3724C15.1576 63.3977 15.0324 63.3758 14.8992 63.3045C14.9256 63.3712 14.9405 63.4288 14.9428 63.4783C14.9463 63.5773 14.9394 63.6774 14.921 63.7799L14.8153 64.3773L14.6029 64.2127L14.6833 63.7557C14.7154 63.5773 14.7315 63.453 14.7315 63.3827C14.7315 63.3125 14.7223 63.2573 14.7028 63.2181C14.6833 63.179 14.6454 63.1364 14.5879 63.0927L14.3927 62.9419L13.8575 63.6371L13.6875 63.5059ZM14.5305 62.7635L14.8934 63.0443C14.9727 63.1053 15.0404 63.1422 15.0956 63.1548C15.1518 63.1675 15.207 63.1617 15.2633 63.1399C15.3195 63.1168 15.3678 63.0789 15.4103 63.0236C15.4711 62.9442 15.4964 62.8647 15.4849 62.7842C15.4734 62.7036 15.4229 62.6276 15.3322 62.5586L14.929 62.2466L14.5305 62.7635Z" fill="black"/>
<path d="M16.508 64.6986L16.6505 64.8725C16.4874 65.0302 16.3254 65.1211 16.1658 65.1453C16.0061 65.1694 15.8557 65.1338 15.7144 65.0382C15.5904 64.9542 15.5042 64.8517 15.4572 64.7309C15.4101 64.61 15.4032 64.4638 15.4376 64.2912C15.4721 64.1185 15.5502 63.9412 15.6731 63.7582C15.7948 63.5775 15.9258 63.444 16.0659 63.3565C16.206 63.269 16.3461 63.2264 16.4851 63.2276C16.624 63.2287 16.7527 63.269 16.871 63.3496C17.0008 63.4371 17.0846 63.5533 17.1236 63.6961C17.1627 63.8399 17.1478 64.0022 17.08 64.1841L16.8698 64.1162C16.964 63.848 16.9227 63.6523 16.7435 63.5314C16.6551 63.4716 16.562 63.4417 16.4655 63.444C16.3691 63.4463 16.2692 63.482 16.1646 63.5533C16.0601 63.6247 15.9579 63.734 15.858 63.8825C15.7064 64.107 15.6329 64.3027 15.6352 64.4684C15.6386 64.6342 15.7052 64.7608 15.8362 64.8494C15.9326 64.915 16.0395 64.9369 16.1566 64.915C16.2726 64.8955 16.3897 64.823 16.508 64.6986Z" fill="black"/>
<path d="M16.7168 65.6537L17.7103 63.9443L17.8963 64.0525L17.4886 64.7547L18.2145 65.1783L18.6222 64.4761L18.8082 64.5843L17.8148 66.2937L17.6287 66.1855L18.0962 65.3809L17.3703 64.9573L16.9029 65.7619L16.7168 65.6537Z" fill="black"/>
<path d="M18.3516 66.5777L19.2612 64.8223L19.4518 64.9213L18.5422 66.6767L18.3516 66.5777Z" fill="black"/>
<path d="M19.4707 67.1323L19.7326 65.0742L19.9427 65.1709L19.7234 66.6523C19.7061 66.7675 19.6866 66.8768 19.6648 66.9827C19.7337 66.8941 19.8049 66.8066 19.8784 66.7237L20.8753 65.6014L21.0729 65.6923L19.6774 67.2256L19.4707 67.1323Z" fill="black"/>
<path d="M22.321 66.1782L22.522 66.2553L22.1165 67.3223C22.0488 67.5008 21.9753 67.6412 21.8972 67.7425C21.8191 67.8438 21.7215 67.9105 21.6043 67.9416C21.4872 67.9727 21.3585 67.9612 21.2173 67.9082C21.0186 67.8323 20.8911 67.716 20.8383 67.5583C20.7843 67.4006 20.8153 67.1715 20.9301 66.8688L21.3356 65.8018L21.5365 65.8789L21.1311 66.9436C21.068 67.1105 21.0346 67.2372 21.0323 67.3212C21.0301 67.4052 21.0507 67.4789 21.0944 67.5399C21.138 67.602 21.2023 67.6481 21.2862 67.6803C21.4286 67.7344 21.5457 67.7333 21.6411 67.6769C21.7352 67.6205 21.8271 67.4754 21.9156 67.2429L22.321 66.1782Z" fill="black"/>
<path d="M22.3828 68.3003L22.9433 66.4033L23.2499 66.4943L23.2212 67.9469L23.212 68.2496C23.2511 68.1852 23.3085 68.092 23.3843 67.9699L24.1446 66.7602L24.4191 66.8419L23.8586 68.7389L23.6623 68.6813L24.1308 67.0928L23.212 68.5478L23.0271 68.4925L23.0547 66.7463L22.5781 68.359L22.3828 68.3003Z" fill="black"/>
<path d="M25.5802 69.1193L25.903 67.4054L25.377 67.3064L25.4206 67.0762L26.6828 67.3156L26.6392 67.5458L26.1131 67.4468L25.7904 69.1608L25.5802 69.1193Z" fill="black"/>
<path d="M26.752 69.327L26.9908 67.3633L27.2045 67.3898L27.1068 68.1967L27.9407 68.298L28.0383 67.4911L28.2519 67.5175L28.013 69.4813L27.7994 69.4548L27.9119 68.5305L27.0781 68.4292L26.9656 69.3535L26.752 69.327Z" fill="black"/>
<path d="M28.6055 69.5319L28.7134 67.5566L29.878 67.6199L29.8654 67.8536L28.9156 67.8018L28.8823 68.405L29.7747 68.4533L29.762 68.687L28.8696 68.6387L28.8329 69.3097L29.8217 69.3638L29.8091 69.5975L28.6055 69.5319Z" fill="black"/>
<path d="M30.2422 68.9661L30.4432 68.9466C30.4547 69.0548 30.4799 69.1388 30.5178 69.1986C30.5557 69.2585 30.6109 69.3068 30.6821 69.3437C30.7533 69.3794 30.8325 69.3978 30.921 69.3966C31.0484 69.3955 31.1461 69.3644 31.2161 69.3011C31.2862 69.2389 31.3206 69.1572 31.3195 69.0582C31.3195 69.0007 31.3057 68.9489 31.2804 68.9063C31.254 68.8625 31.2161 68.828 31.1633 68.8004C31.1116 68.7727 30.9991 68.7336 30.8279 68.6841C30.6752 68.6392 30.5661 68.5943 30.5017 68.5483C30.4374 68.5034 30.3869 68.4447 30.3501 68.3745C30.3134 68.3043 30.295 68.2248 30.295 68.135C30.2939 67.975 30.3444 67.8438 30.4478 67.7414C30.55 67.6389 30.689 67.5871 30.8635 67.586C30.9841 67.5848 31.0886 67.6079 31.1794 67.655C31.2701 67.7022 31.3402 67.769 31.3907 67.8576C31.4412 67.9463 31.4688 68.0499 31.4722 68.1684L31.2713 68.188C31.2598 68.0614 31.2207 67.967 31.1541 67.906C31.0875 67.845 30.9933 67.815 30.8739 67.8162C30.7521 67.8173 30.6591 67.845 30.5948 67.8991C30.5305 67.9543 30.4995 68.0245 30.4995 68.1109C30.4995 68.1914 30.5236 68.2525 30.5707 68.2962C30.6177 68.3399 30.7234 68.3837 30.8865 68.4286C31.0461 68.4723 31.1587 68.5103 31.2242 68.5425C31.3229 68.5932 31.3987 68.6588 31.4493 68.7405C31.501 68.8222 31.5262 68.9201 31.5274 69.034C31.5285 69.1468 31.5021 69.2504 31.4504 69.3437C31.3987 69.4369 31.3264 69.5083 31.2368 69.5578C31.1461 69.6073 31.037 69.6314 30.9095 69.6326C30.7096 69.6338 30.55 69.5739 30.4305 69.4542C30.3111 69.3356 30.2479 69.1722 30.2422 68.9661Z" fill="black"/>
<path d="M31.8516 69.5912L32.3604 67.5802L32.5924 67.5664L33.3642 69.5037L33.1195 69.5175L32.8979 68.9281L32.2168 68.9673L32.0767 69.5773L31.8516 69.5912ZM32.265 68.7532L32.8186 68.7209L32.6188 68.1834C32.5568 68.0188 32.5108 67.8841 32.4809 67.7805C32.4672 67.9083 32.4442 68.036 32.4132 68.1627L32.265 68.7532Z" fill="black"/>
<path d="M34.5654 67.3836L34.779 67.3594L34.9088 68.4943C34.9306 68.6843 34.9294 68.8431 34.9065 68.9686C34.8835 69.0952 34.8272 69.1988 34.7376 69.2805C34.6481 69.3623 34.5286 69.4117 34.3782 69.429C34.1668 69.4532 34.0003 69.4083 33.8809 69.2932C33.7614 69.1781 33.6822 68.9605 33.6454 68.6382L33.5156 67.5033L33.7292 67.4791L33.859 68.6117C33.8797 68.789 33.9073 68.9168 33.944 68.9928C33.9808 69.0687 34.0325 69.124 34.1002 69.1585C34.168 69.193 34.2461 69.2046 34.3357 69.1942C34.4861 69.1769 34.5906 69.1217 34.6492 69.0284C34.7066 68.9352 34.7216 68.7637 34.694 68.5162L34.5654 67.3836Z" fill="black"/>
<path d="M35.575 69.2403L35.2305 67.2927L35.9357 67.1672C36.0827 67.1408 36.1952 67.1396 36.2722 67.1638C36.3491 67.188 36.4169 67.2375 36.4766 67.3146C36.5363 67.3917 36.5765 67.4849 36.596 67.5966C36.6225 67.7439 36.6052 67.8694 36.5444 67.9741C36.4835 68.0789 36.3824 68.156 36.2412 68.2078C36.3078 68.2331 36.3606 68.2608 36.3997 68.2918C36.4755 68.3552 36.5444 68.4288 36.6075 68.5106L36.9774 68.9917L36.7132 69.0389L36.4295 68.6717C36.3193 68.5278 36.2389 68.4323 36.1872 68.3851C36.1355 68.3379 36.0884 68.308 36.0459 68.2953C36.0034 68.2826 35.9471 68.2838 35.8759 68.2953L35.6324 68.3379L35.7852 69.2024L35.575 69.2403ZM35.5945 68.1157L36.0459 68.0363C36.1447 68.019 36.217 67.9937 36.2641 67.9603C36.3112 67.927 36.3445 67.8821 36.3652 67.8257C36.3859 67.7693 36.3905 67.7071 36.379 67.638C36.3618 67.5402 36.3193 67.4677 36.2526 67.4216C36.186 67.3756 36.0953 67.3629 35.9839 67.3825L35.4831 67.4711L35.5945 68.1157Z" fill="black"/>
<path d="M37.9522 66.7294L38.1612 66.6787L38.43 67.7883C38.4748 67.9748 38.4943 68.1314 38.4874 68.2591C38.4805 68.3869 38.4369 68.4974 38.3588 68.5895C38.2807 68.6816 38.167 68.746 38.02 68.7817C37.8132 68.8324 37.6433 68.8082 37.51 68.7092C37.3768 68.6102 37.2723 68.403 37.1965 68.0888L36.9277 66.9791L37.1368 66.9285L37.4055 68.0358C37.448 68.2096 37.4917 68.3317 37.5376 68.403C37.5835 68.4744 37.6421 68.5227 37.7133 68.5481C37.7845 68.5734 37.8638 68.5757 37.9511 68.555C38.0992 68.5193 38.1957 68.4514 38.2416 68.3512C38.2876 68.2511 38.2818 68.0796 38.2221 67.8367L37.9522 66.7294Z" fill="black"/>
<path d="M38.9293 67.8541L39.1154 67.777C39.1579 67.8771 39.2061 67.9508 39.2601 67.9968C39.3141 68.0429 39.3807 68.0728 39.4588 68.0877C39.5369 68.1016 39.6184 68.0958 39.7034 68.0693C39.8252 68.0313 39.9102 67.9726 39.9584 67.8921C40.0066 67.8115 40.017 67.724 39.9871 67.6296C39.9699 67.5744 39.9423 67.5295 39.9056 67.4949C39.8688 67.4616 39.8206 67.4385 39.7631 67.427C39.7057 67.4155 39.5874 67.4109 39.4083 67.4132C39.2486 67.4144 39.1315 67.404 39.0568 67.3787C38.9822 67.3545 38.9167 67.3131 38.8616 67.2567C38.8064 67.2003 38.7662 67.1289 38.7398 67.0437C38.6927 66.8906 38.7031 66.7502 38.772 66.6236C38.8409 66.4958 38.958 66.406 39.1257 66.3542C39.2406 66.3185 39.3474 66.3105 39.4485 66.3289C39.5484 66.3473 39.6357 66.3911 39.7092 66.4613C39.7827 66.5303 39.8389 66.6224 39.878 66.7352L39.6908 66.8124C39.6425 66.6938 39.5782 66.6155 39.4967 66.5775C39.4151 66.5384 39.3175 66.5372 39.2027 66.5729C39.0855 66.6098 39.0051 66.6627 38.9603 66.7341C38.9155 66.8054 38.9052 66.8814 38.9305 66.9643C38.9546 67.0403 38.9948 67.0932 39.0522 67.1208C39.1096 67.1496 39.2233 67.16 39.3933 67.1554C39.5587 67.1508 39.6782 67.1542 39.7494 67.1657C39.8585 67.1853 39.9503 67.2267 40.0227 67.2901C40.0951 67.3534 40.149 67.4397 40.1823 67.549C40.2157 67.6572 40.2214 67.7631 40.1984 67.8679C40.1755 67.9726 40.1272 68.0613 40.0549 68.1349C39.9825 68.2086 39.8849 68.2639 39.7631 68.3018C39.5725 68.3606 39.4025 68.3502 39.2532 68.2708C39.1016 68.1879 38.9948 68.0498 38.9293 67.8541Z" fill="black"/>
<path d="M42.3809 66.5541L42.6048 66.5311C42.6462 66.7544 42.6324 66.9397 42.5635 67.087C42.4957 67.2344 42.382 67.3403 42.2247 67.4047C42.0857 67.4623 41.9536 67.4772 41.8273 67.4508C41.701 67.4243 41.5758 67.3483 41.4506 67.2252C41.3265 67.102 41.222 66.9374 41.137 66.7336C41.0543 66.5322 41.0153 66.3492 41.0199 66.1834C41.0245 66.0177 41.0658 65.8772 41.1439 65.7621C41.222 65.647 41.3265 65.5618 41.4586 65.5066C41.6033 65.4467 41.7458 65.4398 41.887 65.487C42.0283 65.5342 42.1546 65.6367 42.2683 65.7932L42.096 65.9313C41.9249 65.7046 41.7389 65.6321 41.5402 65.7149C41.4414 65.7564 41.3656 65.8174 41.3139 65.8991C41.2622 65.9808 41.237 66.0844 41.2381 66.2111C41.2393 66.3377 41.2749 66.4839 41.3426 66.6485C41.446 66.8994 41.5677 67.0686 41.7079 67.1572C41.8468 67.2459 41.9904 67.2608 42.1362 67.1998C42.2442 67.1549 42.3212 67.0778 42.3671 66.9685C42.4153 66.8591 42.4188 66.721 42.3809 66.5541Z" fill="black"/>
<path d="M43.3016 66.8937L42.4609 65.1038L42.6562 65.0117L43.4969 66.8016L43.3016 66.8937Z" fill="black"/>
<path d="M44.4193 66.3424L42.9492 64.8829L43.1537 64.7747L44.1931 65.8498C44.2734 65.9338 44.3493 66.0167 44.4193 66.0984C44.3906 65.989 44.3653 65.8808 44.3447 65.7703L44.0621 64.2947L44.2551 64.1934L44.6203 66.2365L44.4193 66.3424Z" fill="black"/>
<path d="M45.5418 65.7217L44.5449 64.0146L44.731 63.9053L45.7279 65.6123L45.5418 65.7217Z" fill="black"/>
<path d="M46.5593 65.1001L45.6176 63.6325L45.1673 63.9225L45.041 63.7257L46.1218 63.0293L46.2481 63.2261L45.7979 63.5162L46.7397 64.9838L46.5593 65.1001Z" fill="black"/>
<path d="M47.2564 64.6525L46.6133 62.6807L46.8016 62.5449L48.4876 63.7674L48.289 63.9101L47.7871 63.5314L47.2335 63.9297L47.4402 64.5202L47.2564 64.6525ZM47.16 63.7225L47.6102 63.399L47.1554 63.0526C47.0153 62.9467 46.905 62.8569 46.8246 62.7855C46.8809 62.9006 46.9303 63.0203 46.9716 63.1446L47.16 63.7225Z" fill="black"/>
<path d="M48.9712 63.38L47.887 62.0148L47.4689 62.3486L47.3242 62.1656L48.3292 61.3633L48.4739 61.5463L48.0558 61.8801L49.14 63.2453L48.9712 63.38Z" fill="black"/>
<path d="M49.8941 62.6186L48.6055 61.1199L48.7686 60.9795L50.0572 62.4782L49.8941 62.6186Z" fill="black"/>
<path d="M49.9946 61.6898L50.129 61.5391C50.2106 61.6104 50.2852 61.6553 50.3541 61.6737C50.423 61.6921 50.4954 61.6898 50.5723 61.668C50.6493 61.6461 50.7193 61.6058 50.7837 61.5448C50.8767 61.4585 50.9272 61.3675 50.9364 61.2743C50.9456 61.1811 50.9157 61.0982 50.848 61.0245C50.8078 60.9819 50.7641 60.9532 50.7159 60.9393C50.6677 60.9255 50.6148 60.9255 50.5586 60.9405C50.5023 60.9555 50.3932 61.0038 50.2335 61.0832C50.0911 61.1546 49.9797 61.1949 49.9016 61.2064C49.8235 61.2167 49.7477 61.2087 49.6731 61.1811C49.5984 61.1546 49.5318 61.1085 49.4709 61.0429C49.3618 60.9255 49.3101 60.7955 49.317 60.6504C49.3228 60.5054 49.3905 60.373 49.518 60.2533C49.6053 60.1716 49.6983 60.1163 49.7971 60.0887C49.8947 60.0611 49.9923 60.0634 50.0888 60.0933C50.1853 60.1232 50.276 60.1819 50.3599 60.266L50.2255 60.4168C50.1313 60.3316 50.0383 60.289 49.9487 60.2901C49.858 60.2913 49.7695 60.3327 49.6811 60.4144C49.5915 60.4985 49.5421 60.5814 49.5329 60.6654C49.5226 60.7494 49.5479 60.8219 49.6064 60.8852C49.6604 60.9439 49.7201 60.9727 49.7845 60.9727C49.8488 60.9727 49.9556 60.9336 50.106 60.8553C50.253 60.7782 50.361 60.7298 50.4311 60.7091C50.5379 60.678 50.6378 60.6757 50.7308 60.7011C50.8239 60.7264 50.9088 60.7805 50.9869 60.8645C51.0639 60.9474 51.1156 61.0406 51.1397 61.1454C51.165 61.249 51.1604 61.3503 51.1271 61.4481C51.0938 61.546 51.0306 61.638 50.9364 61.7255C50.7906 61.8625 50.6332 61.927 50.4644 61.9201C50.2955 61.9143 50.1382 61.8372 49.9946 61.6898Z" fill="black"/>
<path d="M12.2609 13.0861C6.34609 19.7819 6.34609 23.158 6.34609 23.158C6.34609 23.158 4.77608 21.4314 4.35572 18.8611C4.35572 18.8611 2.67086 20.6257 0.335938 20.6257C0.335938 20.6257 1.94385 13.1057 6.84454 9.34508C6.84339 9.34508 7.01567 8.73156 12.2609 13.0861Z" fill="white" stroke="black" stroke-width="0.467758"/>
<path d="M6.84312 9.34533C6.84312 9.34533 7.35076 9.24979 7.35076 9.85411C7.35076 10.4584 5.74285 11.8881 5.46491 12.1655C5.46491 12.1655 4.52658 12.9137 4.69885 13.5088C4.87113 14.1039 5.44538 14.0463 5.61766 13.8737L5.90479 14.1614L8.96097 10.493C8.96097 10.493 8.19492 9.97382 7.41852 9.4731C7.41967 9.4731 7.02573 9.16346 6.84312 9.34533Z" fill="#9E9E9E" stroke="black" stroke-width="0.467758"/>
<path d="M50.2129 12.9018C56.3046 19.4365 56.3942 22.8115 56.3942 22.8115C56.3942 22.8115 57.9171 21.0434 58.2697 18.4627C58.2697 18.4627 60.0005 20.1824 62.3354 20.1191C62.3354 20.1191 60.5277 12.644 55.5282 9.01694C55.5282 9.01694 55.3398 8.40802 50.2129 12.9018Z" fill="white" stroke="black" stroke-width="0.467758"/>
<path d="M55.5283 9.01737C55.5283 9.01737 55.0183 8.93564 55.0344 9.53881C55.0505 10.1431 56.6963 11.529 56.9811 11.7995C56.9811 11.7995 57.939 12.5224 57.7828 13.121C57.6266 13.7207 57.0512 13.6781 56.8743 13.51L56.5952 13.8059L53.4414 10.2214C53.4414 10.2214 54.1937 9.68154 54.9563 9.16011C54.9563 9.16011 55.3422 8.8401 55.5283 9.01737Z" fill="#9E9E9E" stroke="black" stroke-width="0.467758"/>
<path d="M4.70117 13.5088C4.70117 13.5088 6.09546 15.3505 9.00579 17.2406C10.4816 18.1741 11.5911 16.2138 11.5911 16.2138C11.5911 16.2138 18.5212 7.04317 30.5231 7.33094C41.2778 7.33094 47.1007 12.2748 50.2752 15.3908C50.4566 15.5692 50.9402 16.0895 51.1745 16.3289C51.7797 16.9494 52.9753 17.9496 53.7632 17.16C55.107 15.8132 57.2501 14.4734 57.7841 13.1209C57.7841 13.1209 57.5016 14.0567 56.3359 13.1151C55.0817 12.1022 47.4636 1 30.4083 1C14.3866 1 6.34699 12.8561 6.34699 12.8561C6.34699 12.8561 5.15024 14.4676 4.70117 13.5088Z" fill="white" stroke="black" stroke-width="0.467758"/>
<path d="M10.1746 15.229L8.85156 13.2077L9.02269 12.9971L11.2933 13.8558L11.113 14.0779L10.4354 13.8063L9.93116 14.4256L10.3412 15.0264L10.1746 15.229ZM9.7853 14.2103L10.1942 13.7084L9.57512 13.4575C9.38447 13.3815 9.23287 13.3148 9.12031 13.2595C9.21909 13.3723 9.31097 13.492 9.39481 13.6187L9.7853 14.2103Z" fill="black"/>
<path d="M11.3979 13.7491L9.73828 12.1526L10.3171 11.5483C10.4377 11.4217 10.5434 11.3434 10.6318 11.3135C10.7203 11.2835 10.819 11.2835 10.9281 11.3135C11.0372 11.3445 11.1383 11.4055 11.2336 11.4965C11.3588 11.6162 11.4289 11.7474 11.4427 11.8867C11.4576 12.0271 11.4151 12.1699 11.3163 12.3149C11.3967 12.293 11.4656 12.2827 11.5231 12.2861C11.6379 12.2942 11.7528 12.3149 11.8699 12.3494L12.5487 12.5474L12.3316 12.7742L11.8136 12.6245C11.6115 12.5647 11.4691 12.5302 11.3875 12.5209C11.306 12.5117 11.2405 12.5152 11.1923 12.5325C11.1441 12.5497 11.0901 12.5889 11.0327 12.6499L10.834 12.8582L11.5713 13.5684L11.3979 13.7491ZM10.6422 12.674L11.0131 12.2873C11.0935 12.2032 11.1452 12.1284 11.167 12.0663C11.1888 12.003 11.19 11.9373 11.1705 11.8706C11.1509 11.8027 11.113 11.7417 11.0556 11.6853C10.9718 11.6047 10.8833 11.5667 10.7892 11.5702C10.695 11.5736 10.6008 11.6231 10.5089 11.7198L10.0978 12.1491L10.6422 12.674Z" fill="black"/>
<path d="M13.1478 10.9209L13.3855 10.8093C13.5176 11.0395 13.5739 11.249 13.5567 11.4366C13.5383 11.6242 13.4556 11.7854 13.3074 11.9178C13.1777 12.0352 13.0375 12.1031 12.8882 12.1227C12.7389 12.1422 12.5724 12.1077 12.3875 12.0202C12.2026 11.9327 12.0245 11.7935 11.8534 11.6024C11.6846 11.4136 11.5709 11.2271 11.5123 11.0441C11.4537 10.8599 11.4457 10.6896 11.4859 10.533C11.5261 10.3753 11.6088 10.2418 11.7328 10.1301C11.8684 10.0081 12.0223 9.94597 12.1957 9.94252C12.3691 9.93907 12.5471 10.0012 12.7332 10.1301L12.6 10.3465C12.3255 10.1658 12.0935 10.1589 11.9063 10.3281C11.8132 10.4122 11.7535 10.5088 11.7271 10.6182C11.7018 10.7276 11.7133 10.8519 11.7638 10.99C11.8132 11.1281 11.9085 11.2743 12.0464 11.4297C12.2565 11.6645 12.4552 11.8027 12.6424 11.8464C12.8297 11.889 12.9927 11.8499 13.1294 11.7267C13.2305 11.6358 13.2856 11.5206 13.2948 11.3825C13.3028 11.2432 13.2546 11.089 13.1478 10.9209Z" fill="black"/>
<path d="M14.0752 11.1916L12.666 9.36949L12.8647 9.21524L13.4436 9.96344L14.2177 9.36143L13.6388 8.61323L13.8375 8.45898L15.2467 10.2811L15.048 10.4354L14.3842 9.57668L13.6101 10.1787L14.2739 11.0374L14.0752 11.1916Z" fill="black"/>
<path d="M15.6056 10.0359L14.2871 8.14584L14.4927 8.00195L15.8112 9.89203L15.6056 10.0359Z" fill="black"/>
<path d="M16.5917 9.3704L14.7461 7.81184L14.9746 7.6668L16.2828 8.82018C16.3839 8.90997 16.4792 8.99975 16.5688 9.08838C16.5251 8.96407 16.4861 8.83975 16.4516 8.71428L15.9922 7.0245L16.207 6.88867L16.8134 9.23227L16.5917 9.3704Z" fill="black"/>
<path d="M17.5772 6.13924L17.7988 6.01953L18.4282 7.19248C18.5339 7.38932 18.6017 7.56083 18.6304 7.70701C18.6602 7.8532 18.6441 7.99018 18.5821 8.11795C18.5201 8.24572 18.4122 8.35047 18.2571 8.43449C18.0377 8.55306 17.839 8.57493 17.6599 8.50356C17.4807 8.43104 17.3015 8.22845 17.1235 7.89694L16.4941 6.72399L16.7158 6.60428L17.344 7.77493C17.4428 7.9591 17.5278 8.08342 17.6002 8.15018C17.6725 8.21694 17.7529 8.25493 17.8402 8.26183C17.9275 8.26989 18.0182 8.24917 18.1112 8.19852C18.2674 8.11449 18.357 8.00975 18.3788 7.88313C18.4018 7.75651 18.3444 7.56543 18.2066 7.30874L17.5772 6.13924Z" fill="black"/>
<path d="M19.2132 7.88544L18.2852 5.77551L18.6286 5.62357L19.6955 6.9358L19.9149 7.21205C19.9011 7.12572 19.8816 6.9991 19.8575 6.83335L19.6255 5.1827L19.9333 5.04688L20.8613 7.1568L20.6408 7.25349L19.8621 5.48313L20.1389 7.47565L19.9333 7.56659L18.64 5.98616L19.4325 7.78759L19.2132 7.88544Z" fill="black"/>
<path d="M22.8837 5.60998L23.1455 5.60537C23.1719 5.87012 23.1375 6.08422 23.0445 6.24767C22.9514 6.41228 22.8102 6.52393 22.6207 6.58494C22.4541 6.63789 22.2991 6.64364 22.1544 6.5999C22.0108 6.55616 21.8718 6.45717 21.7397 6.30062C21.6077 6.14523 21.502 5.94494 21.4239 5.69976C21.347 5.45803 21.3194 5.24163 21.3412 5.0494C21.363 4.85832 21.4251 4.69947 21.5261 4.57285C21.6272 4.44623 21.757 4.3576 21.9166 4.30695C22.09 4.2517 22.2566 4.25746 22.4151 4.32537C22.5747 4.39329 22.7114 4.52451 22.8285 4.71674L22.6184 4.85947C22.4415 4.58091 22.2336 4.48077 21.9924 4.55789C21.873 4.59588 21.7788 4.66034 21.711 4.75012C21.6433 4.8399 21.6031 4.95731 21.5916 5.1035C21.5801 5.24969 21.6065 5.42235 21.6697 5.62149C21.765 5.92192 21.8902 6.13026 22.043 6.24652C22.1969 6.36278 22.3611 6.39271 22.5357 6.33631C22.6654 6.29487 22.7619 6.21314 22.8274 6.08998C22.8929 5.96796 22.9112 5.80796 22.8837 5.60998Z" fill="black"/>
<path d="M23.6802 6.23045L23.0898 4.00196L23.3322 3.9375L23.9225 6.16599L23.6802 6.23045Z" fill="black"/>
<path d="M24.8369 5.94608L23.6367 3.84651L23.9009 3.78896L24.7347 5.3222C24.799 5.44191 24.8576 5.55817 24.9116 5.67212C24.9127 5.5409 24.9196 5.40968 24.9299 5.2796L25.0769 3.53457L25.3262 3.48047L25.093 5.88968L24.8369 5.94608Z" fill="black"/>
<path d="M26.0446 5.7074L25.6621 3.43402L25.9102 3.39258L26.2926 5.66596L26.0446 5.7074Z" fill="black"/>
<path d="M27.1703 5.53637L26.9176 3.51968L26.302 3.5968L26.2676 3.32515L27.7526 3.13867L27.7871 3.41033L27.1669 3.4886L27.4195 5.50529L27.1703 5.53637Z" fill="black"/>
<path d="M27.8496 5.44269L28.4078 3.08988L28.6777 3.07031L29.6149 5.31377L29.33 5.33449L29.0624 4.6542L28.2665 4.71175L28.1126 5.42312L27.8496 5.44269ZM28.3216 4.45966L28.9671 4.41247L28.7236 3.78974C28.649 3.59866 28.5927 3.44211 28.5548 3.3224C28.541 3.47204 28.5169 3.62053 28.4836 3.76902L28.3216 4.45966Z" fill="black"/>
<path d="M30.0672 5.31409L30.0236 3.28243L29.4022 3.29625L29.3965 3.02344L30.893 2.99121L30.8987 3.26402L30.2739 3.27783L30.3176 5.30948L30.0672 5.31409Z" fill="black"/>
<path d="M31.209 5.30561L31.248 3L31.4996 3.0046L31.4605 5.31022L31.209 5.30561Z" fill="black"/>
<path d="M31.8271 4.56681L32.0614 4.55875C32.066 4.68537 32.0889 4.78551 32.1291 4.85803C32.1693 4.93055 32.2291 4.99156 32.3095 5.03875C32.3898 5.08594 32.4806 5.11242 32.5839 5.11932C32.7321 5.12738 32.8493 5.09861 32.9354 5.03069C33.0215 4.96278 33.0675 4.87069 33.0744 4.75443C33.0778 4.68652 33.0663 4.62666 33.0399 4.57371C33.0135 4.52076 32.971 4.47702 32.9124 4.44134C32.8538 4.40566 32.7275 4.35271 32.5311 4.28249C32.3565 4.22033 32.2336 4.16048 32.1613 4.10177C32.0889 4.04422 32.035 3.97285 31.9971 3.88882C31.9603 3.80479 31.9442 3.7104 31.95 3.60681C31.9603 3.42033 32.0292 3.27184 32.1567 3.16019C32.283 3.04853 32.4484 2.99904 32.6517 3.0117C32.7918 3.01976 32.9124 3.05429 33.0135 3.1153C33.1146 3.1763 33.1915 3.26033 33.2432 3.36623C33.2949 3.47213 33.319 3.5953 33.3155 3.73458L33.0744 3.74264C33.0709 3.59415 33.0319 3.48249 32.9595 3.40652C32.8872 3.33055 32.7815 3.28911 32.6437 3.28105C32.5036 3.27299 32.3944 3.29832 32.3163 3.35702C32.2382 3.41573 32.1969 3.49515 32.1912 3.5953C32.1854 3.68853 32.2084 3.7622 32.2601 3.8163C32.3117 3.8704 32.4312 3.92911 32.6184 3.99242C32.801 4.05458 32.9296 4.10523 33.002 4.14782C33.1134 4.21228 33.195 4.29515 33.2478 4.39415C33.3006 4.49314 33.3224 4.6094 33.3144 4.74292C33.3064 4.8753 33.2696 4.99386 33.2018 5.09861C33.1341 5.20335 33.0456 5.28163 32.9365 5.33228C32.8274 5.38292 32.6988 5.40364 32.5495 5.39443C32.3175 5.38062 32.136 5.30005 32.0062 5.15156C31.8788 5.00192 31.8179 4.80738 31.8271 4.56681Z" fill="black"/>
<path d="M34.293 5.50036L34.6191 3.21777L35.322 3.31907C35.4644 3.33979 35.5736 3.37777 35.6505 3.43418C35.7275 3.49058 35.786 3.56885 35.8251 3.669C35.8653 3.77029 35.8768 3.87734 35.8607 3.99015C35.8458 4.0949 35.809 4.18583 35.7516 4.26295C35.6941 4.34008 35.6195 4.39878 35.5288 4.43677C35.6321 4.49202 35.7079 4.57144 35.7573 4.67504C35.8067 4.77864 35.8205 4.90065 35.801 5.03993C35.7814 5.17806 35.7355 5.29547 35.6643 5.39216C35.5931 5.48885 35.5058 5.55331 35.4047 5.5867C35.3037 5.62008 35.1704 5.62583 35.005 5.60166L34.293 5.50036ZM34.5801 5.26554L35.0452 5.33231C35.1475 5.34727 35.2256 5.34842 35.2761 5.33691C35.3507 5.31964 35.4105 5.28396 35.4564 5.22756C35.5024 5.17115 35.5322 5.09633 35.5448 5.0031C35.5575 4.91677 35.5494 4.84195 35.523 4.77749C35.4966 4.71303 35.4553 4.66238 35.399 4.62669C35.3427 4.59101 35.252 4.56339 35.1233 4.54497L34.6904 4.48281L34.5801 5.26554ZM34.7306 4.21115L35.1348 4.26986C35.2405 4.28482 35.3174 4.28828 35.3634 4.28022C35.4311 4.26756 35.4851 4.23878 35.5276 4.19159C35.5701 4.14554 35.5977 4.07878 35.6092 3.99015C35.6206 3.90842 35.6149 3.8382 35.5908 3.7795C35.5667 3.72079 35.5299 3.67705 35.4805 3.64943C35.4311 3.62065 35.3381 3.59763 35.2026 3.57806L34.827 3.52396L34.7306 4.21115Z" fill="black"/>
<path d="M35.9922 5.75336L36.4608 3.49609L37.2797 3.66645C37.4508 3.70214 37.5725 3.74933 37.6449 3.80804C37.7172 3.86674 37.7701 3.95077 37.8022 4.05897C37.8344 4.16717 37.8367 4.28688 37.8103 4.4158C37.7747 4.58616 37.7023 4.71394 37.5909 4.80142C37.4807 4.8889 37.3371 4.92804 37.1625 4.92228C37.2245 4.97868 37.2682 5.03278 37.2957 5.08343C37.3497 5.18473 37.3934 5.29408 37.4267 5.41149L37.6185 6.09293L37.3118 6.02847L37.1637 5.50818C37.1062 5.30444 37.0603 5.16631 37.0258 5.09149C36.9902 5.01667 36.9523 4.96372 36.9121 4.93264C36.8719 4.90041 36.8099 4.87624 36.7284 4.85897L36.447 4.80027L36.238 5.80401L35.9922 5.75336ZM36.501 4.54127L37.0247 4.65063C37.1395 4.6748 37.2291 4.6794 37.2934 4.66329C37.3589 4.64832 37.414 4.61494 37.4611 4.56199C37.5082 4.51019 37.5392 4.44458 37.5565 4.36631C37.5806 4.2535 37.5656 4.15681 37.5128 4.07854C37.46 4.00027 37.3681 3.94732 37.2372 3.91969L36.6549 3.79768L36.501 4.54127Z" fill="black"/>
<path d="M37.6094 6.09185L38.921 4.0625L39.1828 4.13502L39.3161 6.56379L39.0404 6.48782L39.0152 5.75689L38.2468 5.54394L37.8643 6.16207L37.6094 6.09185ZM38.3823 5.32408L39.006 5.49675L38.9841 4.82797C38.9773 4.62307 38.9761 4.45732 38.9818 4.3307C38.9187 4.46653 38.8463 4.5989 38.7648 4.72782L38.3823 5.32408Z" fill="black"/>
<path d="M39.7441 6.71494L40.3839 4.78688L39.7947 4.59005L39.8808 4.33105L41.3015 4.80415L41.2154 5.06314L40.6227 4.86516L39.983 6.79321L39.7441 6.71494Z" fill="black"/>
<path d="M40.8262 7.09462L41.6405 4.9375L41.8759 5.02613L41.0616 7.1821L40.8262 7.09462Z" fill="black"/>
<path d="M41.6549 6.60687L41.8778 6.67938C41.8399 6.80025 41.8272 6.90154 41.8399 6.98442C41.8525 7.06615 41.8892 7.14327 41.9478 7.21579C42.0064 7.28715 42.0833 7.34356 42.1787 7.385C42.3153 7.4437 42.4348 7.45521 42.5393 7.42068C42.6438 7.38615 42.7185 7.31593 42.7644 7.20888C42.7908 7.14672 42.8012 7.08572 42.7931 7.02701C42.7862 6.96831 42.761 6.91305 42.7185 6.85895C42.676 6.80485 42.5749 6.71277 42.4141 6.57924C42.2705 6.46068 42.1752 6.36284 42.127 6.28341C42.0787 6.20399 42.0512 6.11881 42.0454 6.02672C42.0397 5.93464 42.0569 5.8414 42.0971 5.74586C42.1706 5.57435 42.2855 5.45809 42.4428 5.39708C42.6002 5.33608 42.7724 5.34528 42.9597 5.42586C43.0883 5.48111 43.1905 5.55478 43.2652 5.64687C43.3398 5.73895 43.3835 5.8437 43.3961 5.96111C43.4087 6.07852 43.3903 6.20284 43.3387 6.33176L43.109 6.25694C43.1549 6.11651 43.1572 5.99795 43.1147 5.90241C43.0722 5.80687 42.9872 5.7309 42.8597 5.6768C42.73 5.62154 42.6197 5.60773 42.5267 5.63651C42.4336 5.66528 42.367 5.72629 42.328 5.81838C42.2912 5.90356 42.2878 5.98068 42.3176 6.04974C42.3475 6.11881 42.4394 6.21435 42.5944 6.33751C42.746 6.45838 42.8482 6.55046 42.9034 6.61377C42.9861 6.71277 43.0355 6.81751 43.0515 6.92917C43.0665 7.04082 43.0481 7.15708 42.9964 7.28025C42.9447 7.40226 42.8689 7.50011 42.769 7.57608C42.6691 7.65205 42.56 7.69464 42.4405 7.705C42.3211 7.71536 42.1924 7.69118 42.0558 7.63248C41.8422 7.54039 41.6997 7.40226 41.6274 7.21924C41.5562 7.03392 41.5654 6.83018 41.6549 6.60687Z" fill="black"/>
<path d="M42.998 8.00759L44.0191 5.94141L44.2442 6.05306L43.3437 7.87407L44.1764 8.28731L44.0558 8.53249L42.998 8.00759Z" fill="black"/>
<path d="M44.1055 8.55184L45.8696 6.90234L46.105 7.03587L45.6445 9.42436L45.3952 9.28278L45.548 8.56796L44.8543 8.17429L44.3329 8.68076L44.1055 8.55184ZM45.0415 7.99587L45.6043 8.31472L45.7455 7.6609C45.7892 7.45947 45.8282 7.29947 45.8638 7.1786C45.7697 7.29486 45.6674 7.40652 45.5572 7.51127L45.0415 7.99587Z" fill="black"/>
<path d="M46.0703 9.70405L46.6905 7.36621L46.9179 7.51125L46.4344 9.18837C46.3965 9.31844 46.3563 9.44276 46.3149 9.56132C46.408 9.46923 46.5045 9.3806 46.6032 9.29542L47.932 8.15815L48.1468 8.29513L46.2897 9.84333L46.0703 9.70405Z" fill="black"/>
<path d="M47.0605 10.3496L48.41 8.48145L49.5149 9.2826L49.3553 9.5036L48.4537 8.84979L48.0437 9.41842L48.8901 10.0319L48.7305 10.253L47.884 9.63943L47.4258 10.2748L48.3618 10.954L48.2022 11.175L47.0605 10.3496Z" fill="black"/>
<path d="M48.4375 11.3588L49.8996 9.57812L50.0971 9.74158L49.7135 11.7755L50.8632 10.3747L51.0492 10.5278L49.5872 12.3085L49.3885 12.1439L49.7709 10.1134L48.6224 11.5119L48.4375 11.3588Z" fill="black"/>
<path d="M50.3167 11.9561L50.5016 12.1C50.4247 12.2001 50.3787 12.2922 50.3627 12.3739C50.3466 12.4557 50.3546 12.5409 50.3856 12.6283C50.4166 12.7158 50.4695 12.7952 50.5453 12.8666C50.6532 12.9679 50.7623 13.0209 50.8715 13.0243C50.9806 13.0278 51.0759 12.9863 51.1551 12.9011C51.2022 12.8516 51.2309 12.7975 51.2447 12.74C51.2574 12.6824 51.2528 12.6214 51.2309 12.5558C51.2091 12.4914 51.1459 12.3682 51.0391 12.1898C50.945 12.0298 50.8887 11.9043 50.8703 11.8134C50.8519 11.7224 50.8554 11.6327 50.8806 11.544C50.9059 11.4554 50.9541 11.3737 51.0254 11.2977C51.1528 11.1619 51.2998 11.0916 51.4687 11.087C51.6375 11.0836 51.796 11.1503 51.9442 11.2908C52.0464 11.3863 52.1164 11.4911 52.1555 11.6027C52.1945 11.7144 52.2003 11.8283 52.1716 11.9434C52.144 12.0586 52.0831 12.1679 51.9912 12.2727L51.8006 12.123C51.8925 12.0068 51.935 11.8962 51.9269 11.7915C51.92 11.6868 51.8649 11.5866 51.7638 11.4922C51.6616 11.3955 51.5606 11.3449 51.4641 11.3403C51.3665 11.3357 51.2838 11.3702 51.216 11.4427C51.1528 11.5106 51.123 11.582 51.1276 11.6568C51.1322 11.7316 51.1861 11.8537 51.2895 12.0217C51.3906 12.1863 51.456 12.3083 51.4859 12.3878C51.5295 12.5086 51.541 12.6249 51.5169 12.7342C51.4939 12.8436 51.4365 12.9472 51.3458 13.045C51.2551 13.1417 51.1505 13.2085 51.0311 13.2453C50.9116 13.2821 50.7945 13.2856 50.6785 13.2545C50.5625 13.2234 50.4499 13.1567 50.342 13.0542C50.172 12.8954 50.0847 12.717 50.0801 12.519C50.0778 12.3233 50.1559 12.1357 50.3167 11.9561Z" fill="black"/>
<path d="M51.1445 13.788L52.7972 12.1846L52.9718 12.3653L51.3191 13.9687L51.1445 13.788Z" fill="black"/>
<path d="M52.1042 13.6939L52.2718 13.8573C52.1845 13.9494 52.1283 14.0346 52.1042 14.114C52.08 14.1934 52.0777 14.2786 52.0996 14.3696C52.1214 14.4605 52.165 14.5445 52.2328 14.6239C52.3293 14.7368 52.4315 14.8012 52.5406 14.8162C52.6497 14.8311 52.7473 14.8012 52.8358 14.7252C52.8874 14.6815 52.923 14.6309 52.9414 14.5756C52.9609 14.5204 52.9632 14.4582 52.9483 14.3914C52.9334 14.3247 52.884 14.1957 52.7979 14.0058C52.7221 13.8366 52.6796 13.7054 52.6704 13.6133C52.6612 13.5212 52.675 13.4326 52.7094 13.3474C52.745 13.2622 52.8013 13.1851 52.8794 13.1183C53.0207 12.9975 53.1757 12.9434 53.3434 12.9572C53.5111 12.971 53.6615 13.0562 53.7936 13.2116C53.8843 13.3175 53.9441 13.4291 53.9705 13.5454C53.9969 13.6616 53.99 13.7745 53.9498 13.8861C53.9096 13.9978 53.8384 14.1002 53.735 14.1934L53.5628 14.0242C53.6661 13.9183 53.7201 13.8136 53.7247 13.7088C53.7293 13.6041 53.6857 13.4993 53.5949 13.3934C53.503 13.2864 53.4089 13.2254 53.3135 13.2104C53.2171 13.1955 53.1309 13.2208 53.0551 13.2852C52.9851 13.3463 52.9472 13.413 52.9449 13.4878C52.9414 13.5627 52.9816 13.6893 53.0666 13.8677C53.1493 14.0427 53.201 14.1704 53.2217 14.2522C53.2527 14.3776 53.2504 14.4939 53.2148 14.6009C53.1792 14.708 53.1114 14.8047 53.0103 14.891C52.9104 14.9773 52.799 15.0326 52.6761 15.0568C52.5532 15.0809 52.4372 15.0706 52.3247 15.0268C52.2133 14.9831 52.1087 14.9048 52.0111 14.7909C51.8595 14.6136 51.7929 14.4271 51.809 14.2303C51.8262 14.0334 51.925 13.8539 52.1042 13.6939Z" fill="black"/>
</svg>
