<svg width="101" height="28" viewBox="0 0 101 28" fill="none" xmlns="http://www.w3.org/2000/svg">
<g clip-path="url(#clip0_3750_19569)">
<path d="M47.196 27.8922H59.1031V0.10753H47.196V27.8922ZM24.1516 9.26033L22.6699 7.51314L29.0091 0.10753H42.3682L30.6392 13.5557C29.6321 14.7111 28.7436 15.5699 28.2986 16.4583C27.8833 14.5924 27.0246 12.6376 24.1516 9.26033ZM15.5016 27.8922V21.4937C15.5016 18.8284 14.9973 17.317 12.9831 14.9469L0.335938 0.10753H13.8137L22.3451 10.0894C25.1291 13.3777 26.9652 16.5769 26.9652 20.4866V27.8922H15.5016ZM89.8794 0.10753C82.1787 0.0778634 77.29 6.17973 77.29 13.081V27.8907H88.7536V15.0062C88.7536 12.6954 89.7607 11.5399 92.0122 11.5399H100.336V0.10753H89.8794ZM81.2012 1.17395C78.002 3.18813 75.5444 7.63181 75.5444 11.7195C75.2477 11.5712 74.6263 11.5415 73.9159 11.5415H65.7108V0.10753H76.3454C78.0332 0.10753 79.604 0.404191 81.2028 1.17395H81.2012ZM47.196 27.8922H59.1031V0.10753H47.196V27.8922Z" fill="white"/>
</g>
<defs>
<clipPath id="clip0_3750_19569">
<rect width="100" height="27.7847" fill="white" transform="translate(0.335938 0.107422)"/>
</clipPath>
</defs>
</svg>
