<svg width="150" height="150" viewBox="0 0 150 150" fill="none" xmlns="http://www.w3.org/2000/svg">
<path d="M122.61 100.051L124.854 102.499L125.568 103.417L123.12 104.845H121.794L120.774 105.967L118.633 105.151L118.225 106.273L117.613 107.395L118.225 109.333L117.103 109.843L115.777 108.925L111.493 106.273L111.085 105.049L109.963 104.335L108.637 104.131L108.127 106.069L107.107 107.701L107.821 109.333L106.699 110.047L106.393 111.883L106.699 116.371L105.271 115.657L103.741 115.147L102.823 116.881L102.109 118.105L97.4173 117.697L94.9694 117.289L92.0115 117.085L92.1135 119.023L91.1956 118.207L88.2377 116.269L85.5858 114.229L85.2798 112.903L86.0958 111.883L87.7277 111.577L89.5636 111.271L88.8496 109.333L88.1357 108.007L85.8918 106.477L84.2598 106.375L82.9339 105.763H81.3019L80.282 106.579L78.548 106.783L76.2021 106.171L75.3861 107.089L74.0602 107.191L72.0203 106.171L72.3263 104.641L69.2664 104.233L67.5324 104.029L67.9404 105.559L68.0424 107.905L68.8584 110.353H67.2264L66.1045 109.129L64.7785 108.619L64.4725 106.681L64.5745 104.641L63.4526 103.621L59.8827 100.255L59.1687 101.377L57.7408 102.193L56.4148 103.213L55.2929 105.049L54.3749 106.477L53.7629 108.415L52.947 109.537L51.315 110.353L51.009 108.721L51.111 107.395L49.8871 105.559L49.2751 104.335L47.9492 102.703L47.6432 101.377L46.8272 100.051L46.4192 98.6235L44.5833 96.3796L44.0733 94.8497L42.2374 93.2177H40.8094L39.8914 91.2798L37.8515 89.2399L35.8116 86.18L35.3016 84.344L34.2816 82.8141L38.1575 80.8762L39.5855 81.1822L41.0134 80.9782L39.0755 78.0203V77.1023L37.1375 74.9604L36.3216 72.7165L35.7096 70.6765V69.1466L37.9535 67.2087L38.3615 64.3528V62.1089L38.6675 59.4569L38.0555 57.519L38.3615 56.1931L37.9535 53.9492L38.0555 52.6232L37.8515 51.2972L37.5455 49.1553L37.4435 46.0954L36.5256 44.3615L28.8758 40.8936L25 35.7938L25.306 34.4679L27.9579 31L29.4878 31.102L34.0777 31.918L51.009 32.9379L51.723 34.5699L54.1709 34.2639L57.0268 33.1419H62.3306L69.4704 33.6519L71.7143 33.9579L75.5901 34.6719L79.058 36.2018L80.588 37.0178L82.1179 38.1397L86.1978 41.1996L87.3197 42.4236L88.4417 46.5034L88.5437 48.0334L89.4616 50.7873L92.2155 66.3927L93.2355 71.0845L94.1534 73.7364L95.6834 76.4903L96.4994 78.4283L96.9074 80.2642L99.0493 82.8141L102.415 86.18L105.067 88.4239L106.801 89.5458L107.515 91.4838L109.759 92.8097L111.289 92.2998L116.185 94.6457L117.409 95.4616L120.264 97.8075L121.488 99.0315L122.61 100.051Z" stroke="#171717"/>
</svg>
