<svg width="150" height="150" viewBox="0 0 150 150" fill="none" xmlns="http://www.w3.org/2000/svg">
<path d="M139.323 50.6569L137.95 51.4292L127.051 50.0562L116.153 48.0825L114.007 49.0264L111.948 50.3136L109.116 52.6306L102.937 59.7533L101.822 61.2979L100.706 63.1L99.2472 64.9879L98.3891 66.7042L93.4977 72.0247L90.8374 76.4013L84.7446 83.2665L76.4205 90.9898L67.4958 99.7429L61.832 106.78L56.5116 112.787L44.24 125.23L40.2068 126.517L22.6148 145.568L21.4133 147.37L18.324 144.967L15.4063 142.736L12.6603 140.676L11.8021 140.162L10.5149 139.389L10 138.445L10.944 137.501L11.9737 136.643L13.2609 135.613L14.7198 134.584L16.7794 132.953L17.8091 132.095L18.6673 131.323L20.5552 129.606L19.3538 128.405L21.4133 126.431L23.4729 124.629L24.7601 123.428L26.8197 121.454L29.3083 119.051L30.4239 117.85L31.7969 116.477L32.7409 115.533L33.5132 114.675L34.2855 113.559L35.1437 112.529L36.0877 111.414L37.6323 109.783L38.9196 108.496L38.1472 106.866L37.5465 105.235L37.2033 104.034L35.916 100.773L34.9721 99.7429L34.1139 98.6273L31.7969 98.0266L29.2225 97.1684L27.592 96.6536L26.5622 96.2245L24.9317 95.2805L23.9878 94.8515L22.1857 94.4224L20.2119 93.65L19.0105 93.221L17.5517 92.4486L16.2645 91.6763L15.0631 90.9898L14.1191 90.2175L13.0893 89.5309L11.8021 88.6728L10.7723 87.8147L12.1454 86.0984L13.5184 84.3821L15.7496 86.0125L18.1524 83.2665L19.4396 81.8076L21.1559 79.9197L23.902 77.6027L26.1331 75.7148L28.0211 74.0843L29.3941 72.8829L31.7969 70.9092L34.8863 68.3347L37.2033 66.4468L34.8004 65.0738L33.599 64.4731L31.4537 63.3575L25.1892 60.0965L22.2715 58.5518L19.8687 57.2646L16.2645 55.3767L16.7794 54.4327L17.2942 53.4888L18.9247 50.4853L20.8985 46.8811L22.7006 43.8775L24.2452 41.3889L25.4466 39.3294L17.5517 34.0946L16.4361 33.5798L15.2347 32.8933L19.9545 29.2033L17.4659 27.5728L18.2382 25.3416L18.5815 24.3976L19.5254 22.0806L21.2417 21.7374L23.6445 20.5359L25.0176 19.592L27.9353 17.6183L30.7672 15.6445L33.4274 13.8424L36.0877 12.0403L39.4344 9.72332L41.3224 8.4361L42.5238 10.1524L43.811 11.9545L46.3854 10.0666L56.5116 16.1594L55.5676 16.7601L65.5221 22.5955L66.8093 23.3678L82.8566 32.55L88.6062 27.487L91.3523 24.8267L90.8374 21.9948L94.7849 20.7934L98.5607 17.0176L101.993 14.6147L104.482 12.2978L111.09 7.23467L118.727 2L119.585 2.60069L120.529 4.05955L121.302 5.34677L122.246 7.06306L122.76 8.09282L123.361 9.38004L123.962 10.6673L124.563 11.9545L125.077 13.2417L125.592 14.5289L126.107 15.8161L126.965 17.9615L127.566 19.5062L128.167 21.0509L128.767 22.5955L129.368 23.9685L129.883 25.17L130.484 26.8004L130.913 28.0876L131.342 29.4607L131.599 30.7479L131.857 32.1209L132.028 33.5798L132.2 34.7812L132.372 35.9826L132.629 37.2698L132.972 38.6429L133.401 39.9301L133.831 41.2173L134.517 43.1052L135.118 44.6499L135.633 45.7655L136.233 46.8811L137.006 48.2541L137.692 49.2839L138.722 50.7427L139.323 50.6569Z" stroke="#171717"/>
</svg>
