<svg width="150" height="150" viewBox="0 0 150 150" fill="none" xmlns="http://www.w3.org/2000/svg">
<path d="M29.0421 101.686L30.3315 103.67L36.0842 113.886L37.2744 115.671L38.663 117.258L40.25 118.647L41.6386 119.638L43.3247 120.531L45.3084 121.325L49.1766 122.316L53.8383 123.11L55.822 123.308L58.7975 123.407L62.8641 123.11L64.8478 122.812L68.1209 122.118L72.485 120.928L76.7499 119.539L91.2309 114.183L93.7105 113.489L94.008 118.349L94.9999 118.151L96.2893 117.853L97.9754 117.556L99.1656 117.357L101.05 117.06L103.034 117.159L105.613 117.853L107.596 118.151L110.671 118.547L112.556 118.845L113.746 119.638L115.134 120.035L117.019 120.432L118.804 120.829L120.59 121.325L120.788 120.035L121.185 116.762L122.077 111.902L122.871 110.811L124.359 108.034L124.656 106.744L125.45 105.852L125.251 104.463L125.35 103.075L125.45 101.488V100.198L125.747 95.6358L125.846 93.9496L126.045 92.7594L126.342 91.2716L126.64 89.9822L126.541 88.5937L126.342 87.1059L126.045 84.8246L125.846 83.5352L125.549 81.254V79.2703L125.45 76.6915V74.9062V72.4266L125.549 71.038V69.7486V68.4592L125.35 67.1698V65.8804V63.5991V62.3097L125.45 60.2269L125.945 58.9375L126.64 57.8464L127.433 56.6562L127.83 55.2676L127.433 54.0774L126.64 53.0856L125.945 52.0937L125.152 51.1019L123.962 50.11L123.069 49.3165L121.581 48.1263L120.59 47.3329L119.201 46.1426L118.804 44.9524L120.094 44.3573L121.482 42.1753V39.894L121.185 38.6046L120.788 36.9185L119.895 35.7283L118.903 35.1331L117.217 34.2405L116.92 32.5543L115.234 31.3641L113.944 32.1576L111.266 30.6698L110.175 29.8763L109.382 28.9837L108.191 28.3886L107.2 27.6943L106.109 27L102.141 30.3723L104.323 32.7527L105.018 33.6454L102.637 35.0339H101.348L100.356 36.125L98.273 35.3315L97.8762 36.4225L97.2811 37.5136L97.8762 39.3981L96.7852 39.894L95.4958 39.0013L91.3301 36.4225L90.9333 35.2323L89.8423 34.538L88.5529 34.3397L88.057 36.2242L87.0651 37.8111L87.7594 39.3981L86.6684 40.0924L86.3708 41.8777L86.6684 46.2418L85.2798 45.5475L83.792 45.0516L82.8994 46.7377L82.2051 47.9279L77.6426 47.5312L75.2621 47.1345L72.3858 46.9361L72.485 48.8206L75.2621 52.3913L75.3613 54.2758L70.7988 51.1019L68.8151 50.11L67.6249 51.3994L67.4266 52.788L69.9062 54.375L72.7825 55.9619L71.5923 56.557L70.898 57.8464L69.9062 58.8383L70.5013 61.6154L67.4266 60.0285L66.038 62.7065L67.3274 64.8885L68.8151 65.8804L67.5258 66.1779L69.1127 66.773L70.5013 67.1698L72.485 68.7567L73.8736 69.8478L73.6752 71.4347L72.8817 72.3274L72.3858 73.5176L70.9972 74.6086L72.2866 76.0964V77.5842L70.1045 76.7907L68.6168 74.9062L69.3111 78.1793L69.4103 80.3613L68.4184 82.7418L66.2364 83.6344L66.038 85.4198L66.2364 87.0067H64.3518L63.8559 88.2961L62.5665 88.6928L62.0706 89.7839L59.3926 90.4782L58.6983 92.4618L57.7065 94.7431L57.3097 96.3301L55.1277 95.5366L53.7391 95.1398L51.8546 96.1317L49.6725 97.8178L47.4904 98.4129L45.8043 98.1154L44.019 97.4211L38.7622 94.4455L36.0842 92.2635L34.0013 90.379L31.9185 88.8912L30.4307 87.6018L29.1413 86.5108L27.0584 84.2295L25.3723 83.932L24.2812 84.8246L23.587 86.8083L22 87.2051L24.0829 90.2798L27.356 94.0488L28.6454 94.9415L30.9266 98.4129L31.7201 99.9007L29.0421 101.686Z" stroke="#171717"/>
</svg>
