<svg width="150" height="150" viewBox="0 0 150 150" fill="none" xmlns="http://www.w3.org/2000/svg">
<path d="M60.7307 64.9591L57.3213 62.4263L53.2299 59.0169L47.3852 54.2437L39.2025 46.9377L33.8448 41.7748L33.5525 37.099L30.3379 30.962L28 28.3318L30.5327 24.9224L33.5525 22L36.0853 22.9741L38.1309 23.656L42.8067 22.8767L46.9955 24.0457L49.0412 27.0655L58.0032 40.1188L59.7566 42.9438L66.9651 50.7368L69.8875 53.2695L71.0565 52.9773L73.0047 57.7505L74.1737 59.6988L74.953 60.9651L75.5375 62.7186L77.2909 65.2513L78.6547 65.8358L81.5771 66.7125L85.571 68.1737L86.5451 69.0504L87.5193 70.609L88.7856 72.0702L89.1753 73.7262L90.7339 75.4797L92.0977 75.9667L92.7795 76.9409L95.6045 75.8693L97.3579 74.9926L98.1372 73.434L99.4036 72.265L100.767 72.1676L101.254 70.122L101.547 68.5633L101.644 67.297L100.962 65.7384L101.254 63.8875L102.521 62.5237L103.203 60.9651L102.91 59.7962L102.618 57.7505L103.398 55.8997V50.6394L103.592 49.0808L101.839 45.8661L100.573 43.3334L99.6959 41.9696L99.5984 40.411L100.086 39.2421L101.06 38.0731L102.813 36.9042L104.372 36.5145L106.125 36.8067L107.391 37.7809L108.56 38.3654L109.242 36.7093L111.385 35.1507L114.405 35.6378L115.574 36.3197L118.204 36.9042L116.938 38.6576L116.353 40.0214L115.769 41.2877L115.184 42.6515L114.99 44.7946L114.795 46.4506L114.21 48.0092L113.334 50.2497L112.847 56.3867L113.236 59.7962L113.821 61.3548L115.379 63.9849L116.548 65.8358L115.087 68.5633L115.282 70.7064L115.477 71.8754L115.379 73.7262L114.308 75.4797L113.334 76.4538L112.067 77.7201L112.165 79.8632V82.1037L112.262 85.4158V87.5588L112.36 89.5071V92.2347L114.016 92.8191L115.282 92.4295L116.743 92.9166L115.672 94.5726L116.353 96.4234L117.328 97.3001L118.302 97.982V99.151L118.009 100.417L118.302 101.684L119.081 102.658L119.763 103.827L120.64 104.801L121.127 106.36L121.614 107.431L122.393 109.184L121.711 110.646L120.542 111.035L120.347 112.204L121.127 113.373L121.419 114.64L119.958 115.614L118.789 116.101L117.425 117.854L116.841 119.315L116.061 120.387L115.184 121.361L114.308 122.627L113.431 123.699L113.236 124.868L109.437 128.18L108.366 127.108L107.197 125.939L104.469 123.699L103.3 122.92L98.6243 120.679L97.1631 121.166L95.02 119.9L94.4356 118.049L92.7795 116.978L90.1494 114.834L86.9348 111.62L84.9865 109.184L84.5969 107.431L83.7201 105.58L82.3564 102.853L81.4797 100.417L80.4081 95.8389L77.778 80.9348L76.9012 78.3046L76.8038 76.8434L75.7323 72.9469L74.5633 71.8754L70.6668 68.953L69.3031 67.8815L67.7444 67.1021L64.4324 65.641L60.7307 64.9591Z" stroke="#171717"/>
</svg>
