<svg width="150" height="150" viewBox="0 0 150 150" fill="none" xmlns="http://www.w3.org/2000/svg">
<path d="M134.841 38.2868L132.346 38.4785L130.044 38.5744L127.837 38.7662L126.11 38.862L124.383 38.9579L123.039 39.0538L121.888 39.3414L120.64 39.5332L119.393 40.0126L117.666 40.7796L116.323 41.4508L114.596 42.4095L112.101 43.7518L111.909 44.9024L111.237 45.957L110.47 46.9158L109.894 47.9705L109.127 49.4087L108.455 50.4633L106.728 53.5314L104.809 57.2707L103.178 60.0512L102.506 61.01L101.642 62.544L100.971 63.5987L99.9154 65.3245L99.4356 66.6668L98.1883 68.0091L97.5166 68.872L96.6531 70.3102L95.1179 72.3236L93.6786 74.1453L92.2394 76.0629L91.5678 77.0217L89.3609 79.898L88.1136 81.528L87.346 82.5826L86.3865 83.8291L84.9473 85.7466L84.1796 86.8013L82.3566 89.0065L81.4931 89.9653L80.3417 91.1158L78.2308 92.6499L74.009 95.2386L72.9536 95.8139L71.7062 96.2933L69.2115 97.7314L67.1006 98.6902L65.9492 99.649L64.7019 100.512L63.6464 101.087L62.1112 102.046L61.1517 102.621L59.5206 103.484L58.5611 104.443L57.3138 105.21L56.0664 105.689L54.915 106.456L53.5717 107.319L52.3244 108.086L51.3649 108.949L49.6378 110.004L48.5823 110.483L47.2391 111.154L46.0877 111.73L45.0322 112.209L43.8808 112.401L42.6335 112.497L41.4821 112.593L39.6591 112.88L38.4117 113.072L37.1644 113.455L36.013 113.839L35.0535 114.99L34.094 116.14L33.3264 117.003L32.175 118.249L31.7912 118.825L29.7763 118.345L28.7208 117.866L24.595 115.948L23.4436 115.852L22.4841 115.181L20.8529 115.661L19.9894 114.99L19.0299 114.318L18.2623 113.36L17.3987 112.305L16.5352 111.25L15 110.579L15.096 109.908L15.8636 108.47L16.2474 107.895L16.6312 107.415L17.2069 106.169L17.7826 105.114L18.4542 103.868L19.0299 102.717L19.8934 101.183L20.8529 99.649L21.7165 98.0191L22.8679 96.3891L23.2517 95.2386L23.8274 94.0881L24.499 93.0334L25.4585 92.0746L25.8423 90.9241L26.418 89.9653L27.1856 88.7189L28.0491 87.5683L28.2411 86.4178L28.9127 85.2672L29.1046 83.8291L29.3924 81.9115L29.5843 80.6651L29.4884 78.8434L30.3519 77.8846L29.7763 76.8299L29.5843 75.5835V74.3371V72.4195V70.3102L29.4884 68.7761L29.5843 66.2833L29.6803 64.5575L29.7763 63.2152L29.8722 61.8729L30.16 60.3388L30.5438 58.9006L31.0236 57.6542L32.079 55.449L32.8466 54.1067L33.9021 52.6685L34.9575 51.518L36.1089 50.3675L37.3563 49.9839L37.4522 48.7375L37.7401 47.6829L37.1644 46.1488L36.6846 44.9024L36.3008 43.1766V42.026L36.2049 40.492V39.3414L36.4927 38.4785L37.7401 39.0538L38.9874 39.5332L40.4266 40.0126L41.578 40.2043L42.9213 40.8755L43.9768 41.4508L45.1282 42.026L46.1836 42.5054L47.335 43.5601L48.0067 44.6148L49.1581 44.7106L50.8852 44.6148L124.766 31.8629L125.918 31.6712L127.069 31.5753L128.508 31.3835L130.235 31.2876L131.483 31.1918L134.169 31L134.265 32.2464L134.361 33.397L134.553 34.5475L134.649 35.6981L134.745 36.9445L134.841 38.2868Z" stroke="#171717"/>
</svg>
