<svg width="150" height="150" viewBox="0 0 150 150" fill="none" xmlns="http://www.w3.org/2000/svg">
<path d="M62.5203 116.748L61.2781 115.092L60.036 113.519L58.711 111.614L57.4689 109.792L56.2267 107.97L55.233 106.48L56.7236 104.575L58.0486 103.416L60.9469 100.683L61.9406 99.7722L59.9532 98.6956L57.8829 97.5363L53.8253 95.3005L51.6722 94.0583L50.4301 93.313L49.5191 92.8162L48.9395 93.8099L47.7801 92.8162L46.7036 91.8224L45.3786 90.6631L43.7224 89.2553L42.3147 88.096L40.8241 86.771L42.3975 83.9555L43.1428 82.7133L41.4866 81.8024L39.9132 80.8915L38.7539 80.229L37.7602 79.6494L36.6836 78.9869L34.5305 77.7448L36.4352 74.4324L38.3398 71.2028L39.582 69.1325L40.2444 67.9732L39.1679 68.056L38.0914 68.47L36.9321 68.9669L35.9383 69.2153L34.779 69.1325L33.7025 68.3872L32.7087 67.9732L31.4666 67.3935L30.4729 66.7311L29.4792 66.1514L28.5683 65.7373L27.7402 64.8264L27.9058 63.7499L27.7402 62.7562L27.5745 61.514L26.4152 60.8515L25.0902 59.775L24.4278 58.5329L23.8481 57.622L23.1028 56.7111L22.1091 55.8001L21.1982 55.3033L20.3701 54.4752L19.956 53.5643L19.7076 52.4877L19.542 51.3284L20.2873 50.5831L21.3638 50.2519L22.6888 50.4175L23.5997 50.8315L24.759 50.4175L25.6699 49.9206L26.9121 50.2519L27.9058 50.0863L28.7339 49.4238L28.0714 47.6848L27.4089 46.9395L27.3261 45.9458L26.5808 44.7864L26.7464 43.6271L27.2433 42.7162L26.498 41.7225L25.5871 41.06L24.4278 40.8944L23.2684 41.06L22.3575 40.6459L22.1091 39.4866L23.5168 38.6585L23.02 36.9195L21.6122 35.2633L20.1216 33.1102L19.3764 31.5369L19.2107 29.6322L18.0514 28.3901L17.6373 27.1479L17.2233 25.9886L16.8092 24.8293L18.8795 24.3324V22.4278L18.5483 20.5231L17.9686 18.2045L17.3889 17.0451L16.8092 16.0514L15.7327 15.2233L15.9811 14.1468L14.9046 12.8218L13 12.325L13.8281 12.1593L14.9046 11.9109L16.3124 11.6625L17.3061 11.4969L18.8795 11.2484L20.5357 11.3312L22.6888 11.9109L24.3449 12.1593L26.9121 12.4906L28.4854 12.739L29.4792 13.4015L30.6385 13.7327L32.2119 14.064L33.7025 14.3952L35.193 14.8093L35.3586 13.7327L35.6899 11L37.2633 11.7453L38.4226 12.0765L39.582 12.4078L41.321 12.9046L44.0537 13.2359L45.1302 13.3187L46.2067 13.5671L48.1942 14.1468L50.0988 14.6436L51.341 15.0577L52.9143 15.4717L53.9081 15.7202L54.819 15.9686L57.2205 16.7139L58.711 17.1279L60.6985 17.7076L62.4375 18.2045L64.0109 18.6185L65.253 18.8669L66.3296 19.0326L67.8201 19.1982L69.3107 19.3638L71.2981 19.4466L73.2028 19.5294H74.6933H75.7699H76.8464H78.0057L80.2416 19.4466L83.4712 19.3638H85.0446L87.6117 19.281H90.1788L95.1474 19.4466H95.9755L100.199 19.7779L101.607 19.9435L102.683 20.1091L104.174 20.3575L106.078 20.6059L107.072 20.8544L108.977 21.2684L110.881 21.6825L112.786 22.0965L115.353 22.5934L116.844 22.9246L118.251 23.3387L119.576 23.7527L120.818 24.2496L122.226 24.8293L123.551 25.5745L124.793 26.3198L127.112 27.8932L128.851 29.5494L131.17 32.0337L133.406 36.1742L134.068 37.4992L134.813 39.321L135.393 41.1428L135.89 42.9646L136.221 44.7864L136.387 46.6911V48.5957V50.5003V52.4049L136.221 54.3096L135.807 56.2142L135.476 58.1188L134.648 60.7687L133.737 62.5077L132.991 63.9983L131.749 65.9857L130.176 68.056L128.52 70.1262L127.36 72.1137L126.367 74.1011L125.539 76.0886L124.959 77.9932L124.711 80.3947L124.628 81.8024L124.545 83.7071L124.628 85.5289L124.876 87.3507L125.125 89.1725L125.373 90.9943L125.621 92.8162L126.035 95.4661L126.367 96.8738L126.864 99.1097L127.443 100.269L127.94 101.18L129.099 103.416L129.596 104.41L130.259 105.403L130.756 106.314L132.081 109.13L124.711 114.181L118.334 119.067L115.933 121.303L112.62 123.621L108.977 127.265L105.167 128.424L105.664 131.157L103.014 133.724L97.466 138.61L81.9806 129.749L80.7385 129.004L71.1325 123.373L71.9606 122.793L62.5203 116.748Z" stroke="#171717"/>
</svg>
