<svg width="150" height="150" viewBox="0 0 150 150" fill="none" xmlns="http://www.w3.org/2000/svg">
<path d="M52.5085 9.33041L52.1456 10.0499L51.57 10.663L49.8558 12.5149L45.5514 16.5627L46.0394 17.1258L46.4523 18.1081L47.0905 19.0402L46.8777 19.8536L47.4283 20.3916L47.8913 21.0235L47.7724 21.8368L47.4095 22.5063L46.9778 23.2257L46.5587 23.8701L45.9956 24.6334L45.933 25.4029L46.4899 25.8972L46.8027 26.7418L47.3532 27.9055L51.595 27.7991L53.7973 31.2401L55.2675 62.3717L35.1972 63.3289L32.0815 63.7794L31.8625 64.7616L31.3933 65.6438L30.8427 66.676L30.1545 67.2766L29.5414 67.8585L28.6718 67.4831L28.09 66.8074L27.7208 66.0442L27.0264 65.7439L25.3309 65.625L23.9921 65.6875L22.966 65.6688L21.9525 65.7877L20.1381 66.0629L19.0996 66.6698L18.2237 66.7323L17.4104 67.4268L16.1341 68.309L14.9204 68.7094L13.863 70.2171L13.1561 71.1306L12.5367 72.0252L6.89973 72.9574L7.00609 73.8646L7.14373 75.0658L7.24383 75.8854L6.98732 77.2368L1 80.9968L1.63189 81.4035L2.33886 82.442L2.88941 83.3805L3.55885 84.6443L3.91545 85.37L4.3534 86.2897L4.77258 87.2094L5.17924 88.1478L5.57964 89.0988L5.96128 90.056L6.34292 91.0132L6.96855 92.5585L7.42526 93.6972L7.88823 94.8359L8.33244 95.937L8.75786 96.9567L9.12073 97.8514L9.58371 99.0213L9.90278 99.9473L10.1906 100.936L10.4095 101.881L10.591 102.907L10.7161 103.939L10.8287 104.79L10.9789 105.634L11.1916 106.579L11.4669 107.561L11.7797 108.525L12.1113 109.444L12.6243 110.846L13.0622 111.953L13.4251 112.76L13.8443 113.592L14.4324 114.6L14.9141 115.344L15.8776 116.708L16.3155 117.309L17.2665 118.604L17.9735 119.536L18.6116 120.349L19.4812 121.45L20.6199 122.82L21.6146 123.834L22.184 124.341L23.0786 125.098L23.6667 125.642L24.186 126.193L24.7866 126.943L25.3309 127.744L25.7 128.395L26.1693 129.327L26.6197 130.228L27.0577 131.104L27.4018 131.811L27.871 132.731L28.384 133.55L28.8783 134.188L29.4476 134.808L30.2296 135.571L30.8991 136.309L31.5998 137.166L32.363 138.149L32.9824 138.818L33.7519 139.519L34.534 140.119L35.6726 140.839L36.7738 141.408L37.487 141.733L38.2002 142.015L39.8519 142.597L40.5901 142.878L41.4723 143.229L42.4733 143.667L43.7371 144.267L44.7506 144.793L45.908 145.437L47.0029 146.038L48.2416 143.416L50.2875 139.143L53.084 133.012L54.4041 130.19L60.1662 132.687L62.4435 133.688L62.1182 132.268L61.8992 131.31L61.649 130.24L61.4613 129.408L61.2548 128.489L61.1485 127.738L61.5364 126.606L61.8304 125.836L61.1735 123.621L61.4488 122.833L61.8617 122.095L62.3121 121.269L62.4435 120.499L61.4425 119.974L61.5176 118.848L62.0619 117.534L62.3872 116.595L62.8126 115.632L63.2694 114.662L64.3267 112.848L64.8147 112.053L65.9721 111.834L67.9804 111.159L69.4006 110.395L70.4579 109.413L71.0648 108.644L71.5966 107.937L72.1596 106.967L72.7415 105.666L72.9792 104.859L73.0293 103.701L72.729 102.175L72.1972 100.686L71.778 99.9348L70.8583 98.671L70.2702 98.0579L69.3505 97.1632L68.7061 96.7566L67.9241 96.3123L67.3297 95.8431L68.2807 94.254L69.2567 92.6586L70.3703 90.8068L72.1221 87.8538L72.729 86.8715L73.9302 84.882L74.7122 85.6891L75.3879 85.1072L76.1324 84.8757L75.976 83.8935L76.733 82.7298L77.0771 81.9415L77.9342 82.198L78.3659 81.4348L78.9102 80.2523L79.1229 79.1449L79.198 77.9625L79.2606 77.0428L78.4285 75.5538L77.9092 74.7905L77.4275 74.0022L77.8404 73.3766L78.2345 72.4632L78.5724 71.7374L78.1219 71.1243L77.7841 69.7854L78.0719 68.5154L78.7475 67.7083L79.6735 67.4331L80.468 67.7334L81.2313 67.3705L83.1958 66.4321L84.0029 65.9003L85.2604 65.0557L85.9173 64.5552L86.9934 63.6042L87.7191 62.9911L88.4261 62.672L89.1769 62.3279L89.9839 61.8899L91.6731 60.7638L92.6366 59.9192L93.3436 59.3311L94.013 58.7618L94.8889 57.9985L95.7773 57.2352L96.7721 56.3656L97.454 55.8088L98.1359 55.2394L99.3184 55.4084L100.263 55.546L101.283 55.4772L102.922 54.1634L103.973 54.3573L104.899 54.4824L106.532 55.1394L107.477 54.8578L108.077 54.1696L108.74 54.6451L109.372 55.2207L109.935 55.7462L110.63 56.472L111.205 57.1226L112.063 57.5731L112.857 57.767L113.658 57.7482L114.553 58.2675L115.522 58.5803L116.286 58.8181L116.986 59.1059L117.537 59.6689L117.868 60.3884L118.669 60.7513L119.451 60.939L120.227 61.0078L120.978 61.1454L121.729 61.3582L123.111 61.7836L124.688 62.4468L125.551 62.8347L126.402 63.404L127.047 64.0046L127.647 64.7053L128.066 65.4686L128.41 66.4383L129.386 67.3642L130.187 68.0149L130.907 68.4528L131.87 68.9784L133.196 69.4414L133.966 69.7854L134.892 70.2985L135.874 70.849L136.9 71.3996L137.976 72.019L139.077 72.6321L139.822 73.045L140.51 72.6759L141.749 70.2359L143.3 66.87L144.933 63.3727L146.61 59.6877L147.592 57.4167L147.699 53.8255L149 47.2188L147.505 47.3565L146.178 47.3314L144.896 47.2188L144.039 47.0562L145.315 43.8654L146.097 42.5891L146.554 41.8133L146.979 41.0876L146.36 39.7925L145.672 38.9292L144.358 36.6519L138.715 37.8155L137.839 37.5966L136.575 37.2837L135.005 36.8896L133.009 36.3891L130.994 36.2202L128.586 35.9824L127.954 33.5174L127.528 32.0472L127.047 30.5144L125.97 27.2486L125.414 25.6782L124.269 22.9442L123.362 20.229L123.036 19.253L122.386 18.1581L121.879 17.2947L121.065 16.7191L120.252 16.3563L119.345 16.1498L118.094 15.7807L117.362 15.6431L116.436 15.4241L116.511 14.2667L114.59 13.8725L112.457 13.5534L109.848 13.1655L107.314 12.7589L105.775 12.5149L104.993 12.3772L104.255 12.2521L104.205 11.4826L103.585 9.65573L103.179 8.62344L102.985 7.89145L102.653 6.67146L102.071 6.05208L101.17 4.65692L100.376 4H99.6124L82.8017 13.6097L82.2511 14.373L79.9738 16.3813L78.979 16.7379L77.7153 13.3345L77.0396 13.0029L67.9429 18.6336L67.142 18.6461L63.5134 12.6212L63.2381 11.664L63.163 10.8382L63.0942 9.83717L62.431 9.34918L62.2433 8.5859L62.406 7.71001L62.9566 6.92171L63.1567 5.93947L62.7376 5.25752L62.0118 4.75076L61.0796 4.51302L60.3101 4.45046L59.7408 5.04481L59.2528 5.73301L58.8461 6.3649L58.4144 7.04058L57.6512 7.2533L56.7252 6.70274L55.9119 6.88417L52.8463 9.61194L52.5585 9.34918L52.5085 9.33041Z" stroke="#171717"/>
</svg>
