<svg width="150" height="150" viewBox="0 0 150 150" fill="none" xmlns="http://www.w3.org/2000/svg">
<path d="M127.522 120.068L126.501 120.147L125.087 120.304L123.908 120.382L122.965 120.461L122.022 120.618L61.6004 131.06H60.1075H59.1647L58.6932 130.118L57.7503 129.254L56.886 128.783L55.9432 128.312L55.0789 127.841L53.9789 127.291L53.036 127.134L51.8574 126.742L50.836 126.349L49.8145 125.878L49.736 124.779L50.2074 123.758L50.6788 122.895L51.2289 121.952L51.7789 121.089L52.4074 120.147L53.1146 119.44L53.7432 118.655L54.3717 117.791L55.0789 117.006L55.8646 116.142L56.5718 115.2L57.0432 114.18L57.4361 113.316L57.8289 112.374V110.803V109.783L58.1432 108.684L58.4575 107.741L57.9861 106.799L56.7289 106.642L55.7075 106.878H54.686L53.8217 106.485L52.8003 105.936L51.7003 105.386L50.3646 104.758L49.3431 104.13L48.7931 103.266V102.01L48.086 101.146L47.4574 100.283L46.5145 99.8115L45.5717 99.1048L44.2359 98.0056L42.6645 96.7494L41.4859 95.7288L40.7002 94.9436L40.1502 93.9229L39.993 92.5882L40.3073 91.5675L40.8573 90.4683L42.2716 92.1956L43.3716 91.332L44.3931 90.5468L45.4931 89.7617L46.7502 88.898L47.6145 88.0344L46.5931 86.6211L45.9645 85.4434L45.6502 84.2657V82.8525L45.1002 81.4392L44.3145 80.7326L43.3716 79.9475L42.6645 79.2408L42.0359 78.3772L41.1716 77.3565L40.6216 76.1003L40.3073 74.9226L39.6787 73.9019L38.8144 72.6457L37.4787 71.782L36.6144 70.9969L36.5359 69.9762L36.9287 68.7985L38.0287 68.2489L38.5002 67.3852L37.793 66.2075L37.5573 65.1083L36.9287 64.1662L36.7716 62.0463L36.5359 61.0256L35.6716 59.9264L34.8073 59.1413L33.7073 58.2776L33.1573 57.0999L32.3715 56.3148L31.9001 55.3726L30.7215 54.2734L29.3858 52.7031L28.5215 52.1535L27.9715 51.3684L27.4215 50.2692L26.4786 49.6411L25.7715 49.4056L25.2215 48.6204L24.6714 47.7568L23.8072 46.8146L23.5714 45.8724L22.7857 44.9303L22.3929 43.5955L22.4714 42.4963L22.3929 41.4757L22 40.612V39.4343L22.6286 38.4136L22.7071 37.4714V36.5293L22.7857 35.5086V34.4879L23.2572 33.5458L23.3357 32.2895L22.7071 31.5044V30.4052L23.5714 30.0126L24.5929 29.7771L25.7715 29.8556L26.7143 30.0126L27.6572 30.1697L28.5215 29.7771L29.5429 29.2275L30.7215 28.9134L31.6644 28.5994L32.6072 27.8927L32.9215 26.558L33.7073 25.9299L34.5715 25.0662L35.6716 24.9092L35.9073 23.81L36.8501 23.4175L38.2645 23.1819L39.2073 22.8679H40.2288L41.1716 22.6323L41.5645 21.6902L42.9002 21.5331L43.9216 21.6902H44.8645L45.4145 20.8265L46.2788 20.2769L47.2217 19.8843H48.5574L49.5788 19.4918L50.4431 20.0414L51.386 19.8058L52.486 19.9628L53.3503 19.7273L54.7646 20.0414H55.7075L56.7289 20.1199L57.8289 19.8843L59.4789 20.3554L60.7361 21.062L62.3075 21.3761H63.2504L64.2718 21.2976L65.2147 20.748L66.3147 20.0414L67.1004 19.1777L67.9647 18.5496L69.4576 18L70.2433 18.5496L71.1076 19.4918L71.6576 20.6695L71.8933 22.0042L71.9719 23.0249L71.8933 24.0456L72.2862 24.9877L73.3077 25.5373L74.4862 26.0084L75.4291 26.7936L76.2934 27.1861L77.2363 27.2646H78.2577L79.2791 27.5787L80.222 27.9713L82.0291 28.4423L82.972 28.6779L83.9934 28.3638L84.5435 29.2275L85.172 30.0126L85.6435 30.8763L86.1935 31.6614L87.1363 32.4466L87.4506 33.5458L88.0006 34.3309L88.7078 35.0375L89.3364 35.9797L90.4364 36.5293L91.2221 37.3144L91.9292 38.2566L92.7935 38.8062L93.6578 39.5128L94.6007 40.0624L95.3079 40.769L95.8579 41.7112L96.0936 43.0459L96.8007 44.1451L97.0364 45.2443L97.1936 46.1865L97.4293 47.2857L98.2936 47.8353L99.315 48.5419L100.101 49.17L100.651 50.2692L101.201 51.2114L101.751 52.1535L102.065 53.5668L102.301 54.509L102.851 55.4511L103.479 56.1577L104.187 57.0999L104.894 58.0421L105.601 58.6702L106.387 59.4553L107.565 59.9264L108.351 60.5545L109.765 61.5752L111.022 62.5959L111.808 63.381L112.594 64.0877L113.065 65.0298L113.772 65.8935L114.872 67.3852L115.972 67.8563L116.208 68.877L116.444 69.8977L115.501 70.1332L115.894 71.1539L116.129 72.3316L116.444 73.5093L116.837 74.53L117.229 75.4722L117.779 76.7284L118.487 78.0631L118.958 79.1623L119.351 80.1045L119.822 81.1252L120.372 81.9888L120.844 82.8525L121.315 83.7161L121.865 84.8153L122.337 86.5426L122.808 88.584L123.594 92.9808L123.83 93.9229L123.908 96.3569L123.83 98.0056L123.908 99.733V100.754L124.065 102.167L124.537 103.973L125.165 106.014L125.794 108.055L126.108 109.39L126.422 110.411L126.894 111.981L127.208 112.923L127.522 120.068Z" stroke="#171717"/>
</svg>
