<svg width="150" height="150" viewBox="0 0 150 150" fill="none" xmlns="http://www.w3.org/2000/svg">
<path d="M149.34 60.4252L148.388 62.4876L142.201 68.7544L140.693 69.7063L139.504 70.8962L138.552 72.7207L137.996 73.5933L137.6 76.1317L137.124 77.163L136.648 78.5908L134.347 80.8913L131.968 84.0644L133.237 84.699L136.013 85.5716L137.044 87.7927L135.141 88.6653L132.761 88.348L130.698 87.5547L127.287 89.5379L125.701 91.4417L123.242 94.6941L121.496 97.3119L120.545 98.6604L119.434 100.644L118.323 101.278L116.975 102.309L109.836 108.338L109.28 109.528L107.376 111.987L106.187 113.415L103.886 115.874L102.617 117.064L100.792 118.651L99.3645 120.316L97.1434 122.141L97.778 123.252L94.3669 125.631L92.7011 126.742L91.5112 127.218L89.6074 128.566L88.4968 127.614L87.4656 126.901L86.5137 126.107L85.5617 124.997L84.7685 124.203L83.1819 122.617L82.1507 121.903H80.8815L79.9296 122.062L78.8983 122.3L77.7084 122.617L76.3599 122.458L75.5666 121.982L74.694 121.586L73.7421 121.982L71.4417 123.648L68.7446 125.631L67.9513 124.838L66.9994 123.807L66.0475 122.934L65.1749 121.824L64.6196 121.03L63.9057 120.316L62.9538 119.523L62.2398 118.73L61.6845 117.857L61.0499 116.588L60.336 115.557L59.6221 114.843L58.7495 113.812L58.0355 113.018L57.4803 112.067L56.5283 111.035L55.6557 110.321L54.8625 109.687L54.0692 108.973L53.276 108.259L52.3241 107.704L50.9755 107.307L49.5476 106.514L46.6919 105.007L43.9155 107.307L42.0117 108.973L39.8698 110.877L38.3626 112.225L36.7761 113.574L34.3963 115.557L32.3338 117.223L30.2714 118.889L28.6055 120.237L25.9878 122.458L23.846 124.362L21.8628 126.107L19.8797 127.852L19.483 126.583L17.5792 123.965L16.1513 122.379L14.6441 121.11L13.2162 119.92L11.6297 118.809L8.29802 116.588L7.18746 115.874L5.44227 115.319L4.49035 115.081L2.98316 114.208L1 112.78L2.11056 111.115L18.4518 93.5835L22.1801 92.3936L33.5237 80.8913L38.442 75.3385L43.6775 68.8337L52.0068 60.6631L59.7014 53.5238L65.3336 47.0984L67.7927 43.0527L72.3142 38.1344L73.1075 36.5479L74.4561 34.8028L75.4873 33.1369L76.5186 31.709L82.23 25.125L84.8478 22.9832L86.7516 21.7933L88.7348 21L98.8092 22.8245L108.884 24.0937L110.153 23.3798L110.708 24.0937L111.898 25.7596L112.771 26.9495L113.564 27.9807L114.674 29.4086L116.102 31.1537L117.372 32.423L118.085 33.0576L119.196 34.0095L119.91 34.7234L120.545 35.4374L121.338 36.3893L122.052 37.4205L122.528 38.2138L123.083 39.4037L123.638 40.5142L124.194 41.6248L124.67 42.4974L125.225 43.6873L125.859 44.7186L126.494 45.5118L127.208 46.3051L128.239 47.257L129.112 48.2089L129.984 49.3195L130.936 50.5887L131.73 51.4613L132.681 52.3339L133.713 53.1271L135.141 53.9997L136.568 54.7137L137.441 55.1103L138.314 55.4276L140.376 56.1415L141.328 56.4588L142.439 56.9348L143.708 57.4901L145.294 58.2833L146.564 58.9179L147.991 59.7112L149.34 60.4252Z" stroke="#171717"/>
</svg>
