<svg width="150" height="150" viewBox="0 0 150 150" fill="none" xmlns="http://www.w3.org/2000/svg">
<path d="M110.144 118.153L86.6968 119.277L83.057 119.806L82.8012 120.951L82.2603 121.987L81.6171 123.206L80.8131 123.911L80.0969 124.594L79.0809 124.153L78.3939 123.36L77.9626 122.464L77.1513 122.112L75.1706 121.965L73.6065 122.038L72.4078 122.016L71.2238 122.163L69.1042 122.479L67.8909 123.198L66.8677 123.264L65.9102 124.08L64.4192 125.115L63.0012 125.585L61.766 127.362L60.9401 128.427L60.2165 129.477L53.6312 130.571L53.7481 131.636L53.9089 133.038L54.0259 134.008L53.7262 135.587L46.7388 140L45.5402 137.54L45.1163 136.725L44.5608 135.844L44.1149 134.992L43.0624 132.987L42.6312 132.15L42.105 131.144L41.6372 129.139L41.3522 127.883L40.9721 125.556L40.7528 123.918L40.5336 122.273L40.307 120.628L40.1096 118.976L40 117.338L40.0512 115.657L40.1316 114.408L40.3216 112.293L40.8186 110.575L41.5203 108.842L42.3754 107.087L43.406 105.31L44.8458 103.503L46.2345 101.69L47.3016 99.9124L47.9448 98.62L48.7269 97.0632L49.4724 94.6913L51.5627 95.7267L53.1926 97.0338L54.9833 98.4805L61.0059 90.4468L61.2544 89.4775L62.4677 89.5583L64.5142 89.2425L65.5959 88.7138L65.9541 87.649L66.4876 86.3272L66.9115 85.1816L67.8763 84.9026L68.9069 84.4766L69.6889 83.9185L69.6524 82.2369L69.4258 80.5186L69.6889 78.5799L69.8936 77.0451L69.9886 76.1492L70.0909 75.0404L69.6816 74.0784L68.2783 73.3734L68.2125 71.6698L67.372 71.3981L66.1002 71.1778L64.8431 70.7592L64.061 70.348L63.3886 69.5182L62.7454 68.4901L62.285 67.4547L62.5262 66.5881L63.1913 65.7951L63.776 65.0901L64.3534 64.3411L65.1208 63.4672L66.0198 62.7916L66.8677 61.9838L67.4012 61.2789L68.0883 60.5299L68.768 59.7882L69.4623 58.8556L69.5866 57.967L69.3308 56.5718L69.1992 54.7066L69.0969 53.7813L68.9507 52.7605L68.0663 52.5843L68.0298 51.6884L67.9786 50.2565L67.9202 49.2504L67.7228 48.3692L67.3062 47.4513L66.7946 46.7169L65.976 45.8871L65.384 44.7342L64.675 43.6768L64.4923 42.8029L64.3899 41.5692L64.3095 40.688L63.4398 40.409L62.4019 40.2841L61.3348 40.2254L59.2883 39.8142L56.9275 40.1079L54.4644 40.4163L53.9308 39.1165L53.5508 38.1766L52.9661 36.7887L52.5275 35.7165L51.8624 34.0937L51.2338 32.5589L50.8903 31.7364L50.2544 30.1796L49.5893 28.5714L49.1654 27.3231L48.6026 26.1408L48.0179 24.8704L47.2212 23.5339L46.6219 22.5425L45.8837 21.3308L45.4013 20.4276L44.8531 19.7153L44.188 18.5257L43.384 17.3581L43.6618 17.2479L44.6412 16.6384L45.3575 15.9188L46.578 15.2652L47.3528 14.8099L48.5222 14.0976L49.2824 13.635L50.2691 12.9667L51.1461 12.2544L52.7395 11.4834L54.6325 10.3745L55.5754 10L56.1162 10.3965L57.6511 10.1689L58.0896 10.9987L78.2331 11.6743L79.3294 11.8505L80.2723 12.5188L81.5367 13.3853L83.2178 14.5602L84.0437 15.133L85.0889 15.86L86.0756 16.5503L86.8649 17.1084L88.2902 18.1071L89.3938 18.9369L90.1174 19.5317L91.0237 20.6039L91.8716 20.9416L92.7267 21.1546L93.6622 20.8609L94.6636 20.8462L95.8622 20.8535L96.9513 20.8682L97.8941 21.0665L98.837 21.3823L99.4363 22.3295L99.0124 23.6881L100.416 24.584L101.951 26.3097L102.389 27.257L102.535 29.1809L102.236 30.0181L101.205 31.7438L100.131 32.9261L99.3778 31.942L98.318 31.8392L97.1925 31.9861L95.8915 32.5148L95.1313 32.9481L94.3712 33.3813L93.6184 33.8366L92.8144 34.4535L92.1785 35.2466L91.8131 36.047L91.5353 37.2293L91.4623 38.228L92.2151 38.7934L93.0921 39.5571L93.8304 40.2107L94.8244 40.945L95.6357 41.5766L96.4616 42.2522L97.2582 42.9351L97.8283 43.618L98.2961 44.3671L99.1074 45.7917L99.8529 47.4586L100.46 48.2297L101.176 48.7804L102.974 49.6323L103.814 50.2124L104.173 51.1009L105.817 53.8033L106.943 55.8888L106.511 56.7333L105.839 57.453L103.836 59.6266L98.8077 64.3778L99.3705 65.0387L99.8529 66.1916L100.606 67.2858L100.357 68.2404L101 68.8719L101.541 69.6136L101.395 70.5683L100.971 71.354L100.467 72.1985L99.9772 72.9549L99.3121 73.8508L99.2463 74.7613L99.8968 75.3341L100.262 76.3328L100.898 77.6913L105.854 77.5739L108.426 81.6127L110.144 118.153Z" stroke="#171717"/>
</svg>
