    <svg width="150" height="150" viewBox="0 0 150 150" fill="none" xmlns="http://www.w3.org/2000/svg">
        <path d="M114.764 69.8768L112.568 69.3529L111.417 68.8291L106.92 66.7339L105.665 66.6291L104.62 65.8958L102.946 66.4196L101.9 65.6862L100.855 64.9529L100.018 64.01L99.0767 62.8576L98.1354 61.7053L96.4621 60.9719L94.998 61.81L94.3705 60.6576L92.488 61.4957L91.2331 62.0195L88.514 62.6481L87.0498 62.7529L85.5856 62.8576L84.2261 62.3338L83.2849 61.0767L82.1345 60.4481L80.5657 59.8195L79.2062 59.0862L78.2649 58.1433L77.3237 56.9909L75.8596 55.7337L73.8725 54.3718L72.4083 53.7432L70.4213 52.9051L69.1663 52.6956L67.8068 52.3813L66.3426 52.1718L64.9831 51.9623L63.5189 51.648L62.3685 51.1242L61.009 50.9146L59.6494 50.8099L58.0807 50.6004L56.8257 50.286L55.5707 49.5527L53.4791 49.2384L51.492 48.9241L49.8187 48.6099L48.4592 48.2956L46.4721 47.4575L45.008 46.7241L42.8117 45.2574L41.5568 44.4193L40.6155 43.5812L39.6743 42.7431L38.5239 41.3812L37.7918 40.3335L36.8506 38.8669L34.236 34.1525L33.2948 32.5811L32.5628 31.2192L31.9353 29.962L30.994 28.4953L29.6344 26.8191L28.7978 25.8762L27.4382 24.7238L25.242 22.9429L24.0916 22L24.51 23.781L24.8237 25.1429V27.5525L23.3595 29.8572L22 30.4858L22.4183 31.743L23.8825 33.0001L24.9283 33.8383L26.497 35.0954L27.4382 35.9335L28.6932 36.9811L29.5299 38.0288L30.2619 39.0764L31.0986 40.124L31.5169 41.3812L31.0986 42.8479L30.2619 44.105L29.5299 45.2574L29.007 46.6193L29.2161 48.4003V49.7622V52.1718V53.5337L29.4253 54.8956V56.2576V57.6195L29.3207 59.0862V61.7053V63.591L29.4253 66.3148V68.4101L29.739 70.8196L29.9482 72.1816L30.2619 74.5911L30.4711 76.1625L30.5757 77.6292L30.2619 78.9912L29.9482 80.5626L29.739 81.8198L29.6344 83.6007L29.3207 88.4198V89.7818L29.2161 91.458L29.1115 92.9246L29.3207 94.3913L28.484 95.3342L28.1703 96.6961L26.6016 99.6295L25.7649 100.782L24.8237 105.915L26.8108 106.858L28.2749 107.277L29.739 107.696L31.9353 108.325L35.3864 108.744L36.746 108.849L38.1056 109.163L40.6155 109.896L43.0209 110.525L44.5896 111.049L46.5767 111.572L47.8317 111.887L48.9821 112.201L52.0149 113.144L53.8974 113.668L56.4074 114.401L58.6036 115.03L60.5906 115.553L62.1594 115.868L63.5189 116.077L65.4014 116.287L67.2839 116.496L69.7938 116.601L72.1992 116.706H74.0817H75.4412H76.8008H78.2649L81.0886 116.601L85.1673 116.496H87.1544L90.3964 116.392H93.6384L99.9134 116.601H100.959L101.168 115.03V112.725L102.214 111.572L103.678 111.049L104.933 110.63L106.188 109.792H107.548L108.803 109.896L110.162 110.001L111.417 110.106L113.091 110.315L115.287 110.525L116.542 110.63L118.006 110.839L119.261 110.944L120.621 111.049L121.98 110.315L122.503 109.058L123.13 107.382L123.549 106.125L124.176 104.449L124.595 103.296L125.013 102.144L125.85 99.9438L126.373 98.6866L127 97.2199L125.85 96.5914L124.281 96.2771L122.608 95.9628L121.353 95.7533L119.993 95.5437L118.424 95.2295L117.065 95.0199L115.81 94.9151L114.241 94.7056L114.032 93.4485L114.555 92.2961L114.869 90.7246L115.391 88.7341L115.705 87.3722L116.124 86.2198L116.333 84.9626L116.646 83.7055L116.856 82.3436L117.169 80.7721L117.378 79.4102L116.124 77.6292L115.601 75.8483L114.346 70.8196L114.764 69.8768Z" stroke="#171717" stroke-linejoin="round"/>
    </svg>