<svg width="150" height="150" viewBox="0 0 150 150" fill="none" xmlns="http://www.w3.org/2000/svg">
<path d="M141 92.4756L140.639 92.4666L138.14 92.2587L135.992 91.7437L133.547 91.1564L131.381 90.4426L129.216 89.7288L126.003 89.1776L123.639 90.036L121.086 90.9486L118.514 92.0328L115.554 93.0539L114.517 93.4153L112.911 93.9665L111.9 94.3189L110.564 94.7706L109.373 95.1772L107.262 95.873L106.008 96.2796L104.808 96.6591L101.487 97.6801L99.8719 98.0867L97.1649 98.7734L94.4579 99.4782L92.4006 100.147L90.8035 100.68L88.6379 101.746L87.14 102.496L85.8858 103.12L83.4676 104.321L80.9591 105.559L79.5154 106.273L77.2505 107.393L74.4172 108.875L72.6126 109.815L71.5298 110.384L70.2394 110.727L69.1296 111.026L68.3265 110.24L66.6843 110.619L64.5638 111.116L63.4088 111.36L62.2448 110.971L61.0808 110.727L59.7363 110.709L58.2565 110.7L57.0203 110.718L55.8653 111.08L54.8096 110.818L53.7629 110.402L52.644 109.083L51.7507 108.351L50.3882 107.33L48.6287 106.101L47.6542 105.415L46.436 104.565L45.1457 103.671L44.1261 102.966L42.0507 101.52L40.4897 100.454L39.3257 99.6318L37.9722 99.4149L13.104 98.5837L12.5626 97.5626L10.6677 97.8427L10 97.3548L11.0377 96.8217L14.9718 94.4273L16.984 92.9906L18.0668 91.8973L18.915 90.9847L20.5753 88.8523L21.3423 87.9036L22.6958 86.0603L23.553 84.9128L24.2478 83.9641L25.4298 82.4099L27.5232 79.6722L28.209 78.7776L29.5625 76.9795L30.916 75.2176L32.3236 73.3563L33.0996 72.028L33.7673 71.1697L34.9043 69.9227L35.4096 68.6487L36.4202 66.9862L36.9796 66.0646L37.8549 64.6008L38.4955 63.6792L39.9844 61.0408L41.8251 57.5169L43.4313 54.6887L44.0088 53.6677L44.7848 52.2943L45.3532 51.3004L45.9939 50.3878L46.6977 49.412L46.8872 48.3186L49.2062 47.0988L50.8394 46.123L52.0756 45.4995L53.7178 44.7948L54.8908 44.3882L56.0278 44.1442L57.1557 43.9364L58.3919 43.8099L60.007 43.7286L61.6222 43.6201L63.7336 43.4756L65.8902 43.34L66.964 43.2768L69.0845 43.1413L70.3928 43.0419L71.8997 42.9425L73.0096 42.8702L74.336 42.7798L75.5542 42.7075L76.7633 42.6172L78.0085 42.5268L79.1454 42.4455L80.2914 42.3461L81.699 42.2558L82.872 42.1564L84.1804 42.0389L85.2903 41.9305L88.5838 41.5962L91.1735 41.289L94.3316 40.8733L96.3167 40.6113L99.0688 40.2499L102.209 39.8523L105.493 39.4186L107.388 39.1927L108.787 39.0391L111.377 38.7771L114.444 38.506L117.458 38.2982L121.573 38L121.789 38.9036L121.889 40.1956L121.798 41.5691L121.844 43.2045L121.934 44.352L122.024 45.5628L122.223 46.8007L122.8 47.8036L122.962 49.0505L122.656 50.1619L121.807 51.1739L120.31 52.3214L118.956 53.5231L118.442 54.4809L117.982 55.7911L117.648 57.0109L116.917 58.3391L116.132 59.2246L115.031 59.7216H113.678L112.577 59.3782L111.738 60.5077L112.775 62.1792L113.371 63.1461L114.066 64.3839L114.887 65.8206L115.987 67.1398L116.628 68.0614L117.675 69.8414L118.424 71.1968L119.046 72.3353L119.822 73.7538L120.283 74.7749L120.842 76.2206L121.311 78.0186L122.881 80.0065L123.513 80.9552L124.307 81.9039L125.254 82.8979L126.184 83.5665L126.996 84.705L128.034 85.5363L128.503 86.8374L130.001 88.2831L131.417 88.8975L133.096 88.7168L134.133 88.2921L135.234 87.9849L136.777 87.8945L137.986 88.527L138.97 88.9969L140.233 90.1444L140.847 91.057L141 92.4756Z" stroke="#171717"/>
</svg>
