<svg width="150" height="150" viewBox="0 0 150 150" fill="none" xmlns="http://www.w3.org/2000/svg">
<path d="M69.4996 136.6L70.3046 136.511L71.5567 136.421L73.0771 136.332L74.1504 136.243L75.4919 136.153L76.744 136.064L77.9067 135.974L79.1588 135.885L80.3215 135.796L81.4842 135.706L82.9152 135.617L84.0779 135.528L85.4194 135.438L86.4927 135.349L89.8019 134.991L92.3955 134.723L95.5258 134.276L97.4935 134.008L100.266 133.651L103.396 133.293L106.616 132.846L108.494 132.668L109.925 132.489L112.519 132.221L115.56 131.953L118.511 131.774L122.625 131.506L122.089 129.361L122.178 127.842L123.251 126.144L124.235 125.071L125.398 124.535L128.796 124.714L129.244 121.407L129.601 118.905L131.032 117.832L133.268 116.402L132.106 114.525L131.301 113.006L130.585 111.397L129.244 108.448L128.707 107.465L127.902 106.035L126.739 103.801L124.682 102.013L123.699 101.298L122.804 100.494L119.406 97.9024L117.617 94.7744L116.633 93.1657L116.096 92.272L115.649 91.1996L113.592 88.0716L112.877 86.9098L110.82 83.8712L109.746 82.3518L109.031 81.4581L108.137 80.3857L106.169 78.2408L105.096 77.079L104.38 76.2746L102.77 74.3978L100.713 72.0742L96.0625 67.695L95.0786 66.9801L94.0949 66.2651L92.9322 65.3714L91.1434 64.1202L89.8019 63.1371L88.9075 62.5115L87.4765 61.5284L86.4032 60.6347L85.5983 59.9197L84.2568 58.7579L82.2891 56.9705L81.3948 56.2555L80.2321 55.0937L79.2483 54.2L78.0856 53.0382L76.9229 51.9657L76.2074 50.8039L75.5814 49.9102L74.5975 48.9271L73.6137 47.7653L72.7194 47.0503L71.6461 46.3354L70.7518 45.531L69.5891 44.4586L68.6947 43.833L67.0848 43.118L65.9221 42.403L65.1172 41.5093L63.6862 39.99L62.613 39.2751L61.6291 38.2026L60.7348 37.4876L59.1249 37.3983L57.9622 36.862L57.0678 36.0577L55.9052 34.9853L54.6531 34.1809L53.6692 33.0191L52.5066 32.6616L51.0756 32.5722L49.8235 32.3041L48.8396 31.4104L47.8558 30.5167L46.6037 30.4273L45.441 30.1592L44.3678 29.7124L43.5629 28.9974L42.3107 28.8187L41.5058 28.0143L40.7009 27.2993L39.8959 26.4056L38.8227 25.9588L37.8389 25.3332L37.2128 24.3501L36.6762 23.367L35.9607 22.4733L35.0663 21.4009L34.6191 20.4178L33.9931 19.4347L33.6353 18.2729L33.9036 16.843L33.9931 15.6811L33.2776 14.4299L33.0987 13.1787L30.8628 13L28.4479 13.9831L27.1064 15.1449L25.9437 16.2174L24.6916 17.2898L24.155 18.7197L23.6183 19.9709L23.0817 21.1328L21.919 22.6521L21.1141 23.6351L20.1303 24.5289L19.057 25.1545L18.0733 25.6013L17 26.0482L17.6261 27.0312L18.3416 27.9249L18.8782 28.908L19.5042 29.8017L20.5775 30.6954L20.9352 31.9466L21.5613 32.8404L22.3662 33.6447L23.0817 34.7171L24.3339 35.3427L25.2282 36.2364L26.0332 37.3089L27.017 37.9345L28.0008 38.7388L29.074 39.3644L29.8789 40.1688L30.505 41.2412L30.7733 42.7605L31.5782 44.0117L31.8466 45.2629L32.0254 46.3354L32.2938 47.5866L33.2776 48.2121L34.4403 49.0165L35.3346 49.7315L35.9607 50.9826L36.5867 52.0551L37.2128 53.1275L37.5706 54.7362L37.8389 55.8087L38.4649 56.8811L39.1804 57.6855L39.9854 58.7579L40.7903 59.8304L41.5952 60.5453L42.4896 61.439L43.8312 61.9753L44.7255 62.6902L46.3354 63.8521L47.7664 65.0139L48.6608 65.9076L49.5551 66.7119L50.0918 67.7844L50.8967 68.7675L52.1488 70.4655L53.4009 71.0017L53.6692 72.1636L53.9375 73.3254L52.8643 73.5935L53.3115 74.7553L53.5798 76.0959L53.9375 77.4364L54.3847 78.5983L54.8319 79.6707L55.458 81.1006L56.2629 82.62L56.7995 83.8712L57.2467 84.9436L57.7834 86.1054L58.4094 87.0885L58.946 88.0716L59.4827 89.0547L60.1087 90.3059L60.6453 92.272L61.182 94.5957L62.0763 99.6004L62.3447 100.673L62.4341 103.443L62.3447 105.32L62.4341 107.286V108.448L62.613 110.057L63.1496 112.112L63.8651 114.436L64.5806 116.76L64.9383 118.279L65.2961 119.441L65.8327 121.228L66.1904 122.301L66.5482 130.076L69.0525 129.897L69.1419 131.059L69.2313 132.221L69.3208 133.293L69.4102 134.366L69.4996 135.528V136.6Z" stroke="#171717"/>
</svg>
