<svg width="150" height="150" viewBox="0 0 150 150" fill="none" xmlns="http://www.w3.org/2000/svg">
<path d="M123.972 33.8274H123.556L120.674 33.5856L118.197 32.9862L115.378 32.3028L112.88 31.4721L110.393 30.6414L106.679 30L103.953 30.9884L101.008 32.0609L98.0322 33.3227L94.6298 34.5109L93.4332 34.9315L91.5811 35.5729L90.4053 35.983L88.8653 36.5192L87.5023 36.9924L85.0675 37.8021L83.6212 38.2752L82.2373 38.7274L78.4082 39.9156L76.5457 40.3887L73.4346 41.1879L70.3131 42.0185L67.9511 42.7966L66.099 43.4065L63.6122 44.6578L61.8849 45.5305L60.4386 46.256L57.6501 47.6545L54.7575 49.0951L53.0926 49.9257L50.481 51.2191L47.2034 52.9435L45.1327 54.0371L43.8737 54.6995L42.3858 55.0991L41.1164 55.4461L40.1903 54.5313L38.2966 54.9729L35.8514 55.5512L34.5299 55.8246L35.3832 57.181L34.7797 59.1263L36.7775 60.4091L38.9625 62.8696L39.5868 64.226L39.7845 66.9809L39.3579 68.1796L37.8908 70.6506L36.3508 72.333L35.2895 70.924L33.7704 70.7768L32.168 70.9871L30.3159 71.7336L29.2338 72.354L28.1516 72.9744L27.0799 73.6263L25.9353 74.5096L25.0197 75.6452L24.4994 76.7913L24.1041 78.4842L24 79.9142L25.0717 80.7239L26.3203 81.8174L27.3713 82.7427L28.7863 83.7942L29.9413 84.709L31.1171 85.6764L32.2512 86.6438L33.0732 87.6217L33.7288 88.6942L34.8941 90.7236L35.9555 93.1104L36.8191 94.2145L37.8388 95.0031L40.3984 96.2229L41.595 97.0641L42.1153 98.3363L44.446 102.206L46.0484 105.192L46.527 105.634L51.6255 101.049L52.9782 100.744L54.5181 101.67L55.7876 101.312L56.5055 100.176L57.1818 99.1145L57.9934 97.9578L58.9403 96.9589L60.2201 97.0641L61.7705 97.4636L62.9775 98.3153L63.6746 99.4614L63.3417 101.112L62.426 102.437L62.1555 103.909L62.4676 105.192L63.5706 106.012L63.685 107.695L63.8099 109.083L64.2677 110.691L66.2031 113.94L70.3027 120.817L71.6345 120.796L86.7635 111.333L87.8873 111.89L89.9891 117.61L91.6435 117.011L95.431 113.636L96.3466 112.353L124.305 96.1913L124.617 92.9422L124.524 91.6804L127 84.8983L124.732 81.4179L125.991 78.9258L126.521 77.7797L126.064 73.1742L124.076 71.271L122.89 70.8188L122.006 69.7043L121.048 68.7684L119.956 67.5697L118.884 66.2238L118.156 65.1724L118.218 63.5846L120.091 61.9653L120.362 59.7677L118.686 58.3587L119.373 56.2242L119.04 54.2053L119.196 51.3978L119.03 49.6418L118 47.0341L116.782 46.4138L115.201 46.582L114.556 45.173L115.065 43.8061L113.858 42.6179L112.527 42.8913L111.34 43.5011L109.863 43.9007L106.408 43.7956L106.939 42.6179L107.626 41.1248L108.562 39.2005L108.76 37.2132L109.249 35.9725L110.581 35.0051L112.558 35.1102L114.774 35.2154L116.168 35.983L117.24 36.8978L118.593 37.066L120.892 37.0134L122.318 36.3089L123.306 35.1313L123.983 33.8169L123.972 33.8274Z" stroke="#171717"/>
</svg>
