<svg width="150" height="150" viewBox="0 0 150 150" fill="none" xmlns="http://www.w3.org/2000/svg">
    <path d="M91.921 96.5534L92.3192 95.8567L92.4685 95.1599L92.6675 94.4632L93.0657 93.5674L93.6131 92.9701L93.9615 91.9748L94.3597 90.6311L94.2601 89.9841L93.9615 88.6901L94.8076 87.8441L95.2057 87.3962L95.9522 86.8487L96.5992 86.6496L97.296 86.3013L98.0425 85.7538L98.5401 85.4054L99.436 85.505L100.431 85.6045L101.128 86.0524L101.626 86.4008L102.87 87.0975L103.616 87.1473L104.512 87.4957L105.159 87.7943L105.756 87.9436L106.403 88.3915L107.598 89.2376L108.145 90.0338L108.543 90.6311L108.991 91.3278L109.589 92.2734L110.236 92.3232L110.982 91.8255L110.385 91.4273L110.186 90.8301L109.937 90.2827L110.036 89.4864L109.788 88.8892L110.186 88.2422V87.5952L110.385 87.0478L111.032 86.998L111.679 87.1971L112.226 87.4459L112.674 87.8938L113.321 87.9934L114.117 87.7943L114.416 87.1971L115.013 86.998L115.362 86.4506L115.561 85.8534L115.959 85.4054L116.506 85.1068L116.904 84.5594H117.551L118.149 84.7585L118.597 85.1566L119.194 84.9575L119.492 85.4552L120.04 85.7538L120.637 85.7041L121.234 85.7538L121.632 86.2515L122.279 86.5003L122.827 86.1022L123.374 85.7041L124.021 85.6045L124.22 85.0571L124.419 84.4101L124.618 83.8129L124.867 83.2157L125.017 82.6185L125.365 82.0212L125.664 81.4738L126.111 81.0259L126.659 80.7273L126.958 80.1798L127.206 79.6324L126.858 79.1347L126.51 78.5873L126.012 77.99L125.863 77.3928L125.365 76.7956L125.116 75.9496L125.166 75.2528L125.116 74.6058L124.867 74.0584V73.3119L125.265 72.6649L125.315 72.0677V71.4705L125.365 70.8235V70.1765L125.664 69.5793L125.713 68.783L125.315 68.2853V67.5886L125.863 67.3398L126.51 67.1904L127.256 67.2402L127.853 67.3398L128.451 67.4393L128.998 67.1904L129.645 66.8421L130.392 66.643L130.989 66.4439L131.586 65.996L131.785 65.15L132.283 64.7518L132.83 64.2044L133.527 64.1048L133.676 63.4081L134.273 63.1593L135.169 63.01L135.766 62.8109H136.413L137.011 62.6616L137.259 62.0644L138.106 61.9648L138.752 62.0644H139.35L139.698 61.5169L140.246 61.1686L140.843 60.9197H141.689L142.336 60.6709L142.883 61.0192L143.48 60.8699L144.177 60.9695L144.725 60.8202L145.62 61.0192H146.218L146.865 61.069L147.561 60.9197L148.507 60.3225L148.756 59.6755L149.054 58.4811L149.701 56.0425L150 54.9973L148.855 54.9476H147.86L147.163 54.7485L146.118 54.5494L145.372 54.4997L143.381 54.4001L142.435 54.8978L141.241 55.6443L139.947 56.0425L139.151 56.4406L138.155 57.9336L137.757 58.4313L136.712 58.8295L136.065 58.929L135.169 58.7797H134.572L133.726 58.4811L132.979 58.3318L131.088 57.635L130.392 57.2369L129.147 56.3411L128.65 55.7936L128.152 55.4453L127.405 55.296L126.559 55.1467L125.962 54.8978L125.415 54.5992L123.971 54.3006L123.324 54.1015L122.23 54.0518L121.433 53.7034H120.836L119.841 53.6039L119.144 53.1062L118.348 52.6085L117.352 52.5587L116.307 52.708L115.461 52.8076L114.864 52.9569L114.366 53.9025L114.167 54.4997L113.67 55.2462L112.674 55.4453L112.077 55.7439L111.43 55.8932L110.335 55.3955L109.539 55.1964L108.792 54.4997L108.145 54.3006H107.399L107.05 53.5541L106.105 53.0564L105.259 52.5587L104.214 52.0113L103.417 51.862L103.318 52.6085L103.865 53.355L104.214 54.2508L104.363 54.9476L103.517 55.2462L103.567 55.8932L103.616 56.4904L103.716 57.4857L103.567 58.282L103.616 59.1778L102.969 60.3225L102.621 60.9197L102.024 61.0192L100.929 61.4174L100.581 61.9648L100.232 63.0597L99.9336 63.7067L99.3364 64.1048L99.0876 64.7021L98.9881 65.349L99.1373 66.1453L99.0378 66.8918L99.3862 67.4393L99.4857 68.2356V69.0319L99.0378 69.5295L97.1466 69.7784L95.9024 69.0319L95.1559 68.3849L94.5587 68.4346L93.862 67.8872L93.3643 66.9416L92.9662 66.3444L92.0703 64.7518L92.0206 63.6569L92.2694 63.0597L92.2196 62.363L91.6224 61.5667L91.0252 61.3179L90.3782 61.069L89.5322 60.9695L88.6861 61.1686L87.9894 61.1188L87.2926 60.8699L86.5959 60.8202L85.8494 60.9197L84.9038 60.7704L84.4061 60.3723L83.7591 59.7253H83.1121L82.1666 59.3271L81.1214 58.9788L80.1758 58.5309L78.5335 58.3318L77.0405 58.0332H76.1944L74.8507 57.4857L74.3032 56.9383L73.8056 55.9927L72.6609 52.6085L72.3623 51.2648L73.4074 50.2196L72.1135 49.075L71.6158 49.4731L70.919 50.3192L68.8786 50.7173L67.3358 50.8169L65.6934 50.7173L64.7976 50.8666L63.8023 50.3192L62.6576 50.7671L61.9609 50.9164L60.6669 51.3643L59.8208 51.5634L59.3232 50.568L56.1878 51.0657L55.5408 51.5136L54.6948 51.5634L54.1473 51.3643L53.4506 51.6629H52.6045L52.3557 52.4592L52.1068 53.0066L51.4101 53.1559L50.7631 53.4048L50.6138 54.2508L47.4287 53.3052L46.2342 52.9569L41.0086 51.2648L38.6198 50.6676L36.4798 50.7671L35.0863 50.6178L33.643 50.2196L33.8918 49.2741L32.4486 48.6271L31.1546 48.428L30.3086 48.5275L29.7113 48.9257L28.4672 49.2741L27.7206 49.1248L26.6755 49.3238L26.5262 48.6768L25.282 48.8759L24.5355 48.6271L24.2369 48.0299L23.3908 47.9801L22.495 47.2833L21.8978 45.9396L21.5494 45.3922L20.8527 44.6954L16.921 41.0624L14.9801 39.0219L14.2833 38.2256L13.0889 37.28L12.2926 36.5335L11.5461 35.6875L10.0531 34.7419L8.56006 34.9409L5.67352 34.2442L5.07631 34.0451L3.33444 33.4977L2.23955 33.2488L0.746516 33L0.696749 33.8958L0.447911 34.493L0 34.8912L1.74187 35.4884V36.9814L1.89118 38.2256V38.9224L2.78699 39.42L3.63305 39.5693L3.83212 40.4154L4.42933 40.5149L4.87724 41.0624L5.57399 41.6098L6.46981 42.5056L9.2568 46.3875L10.7996 48.7764L19.3597 62.9602L22.7936 60.7206L24.3862 59.7253L27.0239 64.9509L28.716 64.1048L36.3305 79.284L39.3165 77.4426L41.7551 77.2435L42.4021 80.0305L42.8998 83.2654L41.9542 87.2469L41.2077 88.8892L42.9496 88.6403L43.5965 88.1924L46.8315 89.0385H48.7724L50.0664 89.5362L51.0617 89.8845L53.5003 89.4864L55.6403 90.0836L56.6855 91.6264L61.2641 98.2953L62.1102 99.7386L65.8427 103.72L67.286 104.964L67.8832 104.865L68.8786 107.253L69.5256 108.249L69.9237 108.896L70.2223 109.792L71.0683 111.036L71.7651 111.334L73.2581 111.782L75.2986 112.529L75.846 112.977L76.3437 113.773L76.9907 114.52L77.1898 115.366L77.9861 116.261L78.6828 116.51L79.0312 117.008L80.4745 116.51L81.3703 116.062L81.7684 115.266L82.4652 114.669L83.1619 114.619L83.4108 113.574L83.5601 112.778V112.131L83.2117 111.334L83.361 110.339L84.008 109.642L84.3563 108.846L84.207 108.249L84.0577 107.204L84.4559 106.258V103.571L84.5554 102.725L83.6596 101.082L82.9628 99.7883L82.5149 99.0916V98.2953L82.7638 97.6483L83.2614 97.0511L84.1573 96.5037L84.9536 96.3046L85.8494 96.4539L86.4963 96.9516L87.0936 97.2502L87.4419 96.4041L88.5368 95.6078L90.0796 95.8567L90.6271 96.2051L91.921 96.5534Z" stroke="#171717"/>
</svg>
