<svg width="150" height="150" viewBox="0 0 150 150" fill="none" xmlns="http://www.w3.org/2000/svg">
<path d="M27.8785 126.646L25.7686 124.536L24.8895 123.657L22.9555 121.635L22.1643 120.932L20.494 119.173L19.527 118.206L18.3842 117.064L17.4172 116.272L15.659 114.69L14.4283 113.635L13.6371 112.932L12.8459 112.141L11.791 110.822L10.4723 109.24L9.76904 108.448L8.3625 106.251L7.74712 105.108L7.04386 103.877L6.16476 102.47L5.54938 101.503L4.934 100.361L4.0549 98.9541L3.52746 97.9871L3 96.9322L4.31865 96.4047L6.16476 95.174L9.94487 92.5367L9.2416 91.3059L11.7031 89.284L13.2854 87.4379L15.3074 85.6797L16.7139 84.3611L19.2633 81.6358L20.582 80.1414L22.6918 77.4162L23.3072 76.0975L31.2191 69.4164L32.7135 68.2736L33.9442 67.5703L35.175 65.3725L36.2299 63.8781L38.1639 60.977L40.8891 57.3727L42.6473 55.2629L46.4274 53.0651L48.7131 53.9442L51.3504 54.2959L53.4602 53.3289L52.3174 50.8674L49.2406 49.9004L47.834 49.1971L50.4713 45.6807L53.0207 43.1313L53.5481 41.549L54.0756 40.4061L54.5152 37.593L55.1305 36.626L56.1854 34.6041L57.5041 33.2854L59.1744 32.2305L66.0313 25.2856L67.0862 23L68.1412 23.5274L69.1961 23.967L70.6906 24.5824L71.8334 25.0219L72.8883 25.4615L74.119 26.1647L75.086 26.7801L76.2289 27.6592L77.108 28.4504L78.2508 29.5053L80.3606 31.2635L81.5914 32.2305L83.3496 33.5492L85.6352 35.2194L86.6022 35.8348L88.3604 37.0656L90.9977 38.8238L91.9647 39.4391L93.2834 40.2303L94.3383 40.8457L95.8328 41.6368L96.9756 42.2522L97.9426 42.7797L98.9096 43.3072L100.668 44.1863L101.723 44.7137L102.778 45.1532L103.833 45.5928L106.206 46.4719L107.613 46.9994L108.843 47.5268L110.338 48.318L113.063 49.8125L114.997 50.9553L116.052 51.5707L117.722 52.6256L118.777 53.4168L119.744 54.208L120.623 55.0871L121.59 56.3178L122.382 57.5486L123.085 58.8672L123.964 60.5375L124.667 61.7682L125.634 63.3506L126.425 64.6692L127.48 66.2516L128.096 67.2187L129.151 68.9768L130.03 70.8229L130.557 71.8779L131.612 74.2514L132.315 75.4821L133.194 76.7129L133.898 77.592L134.777 78.4711L135.568 79.1744L136.799 80.2293L137.678 81.0205L138.733 81.9875L139.612 82.8666L140.667 84.0094L141.546 84.9765L142.689 86.383L143.744 87.7016L144.711 89.1082L145.59 90.251L146.381 91.1301L147.26 92.0092L145.326 93.5037V95.9652L143.568 97.2838L141.81 98.2508L140.315 99.4816L138.821 100.449L137.15 100.888L135.48 101.24L133.81 101.767L131.26 102.91L129.326 103.701L127.832 104.317L126.425 104.932L124.843 105.635L122.382 105.459L120.096 105.284L117.722 105.108L116.14 105.02L113.854 103.701L111.217 102.207L109.898 101.416L107.964 100.185L106.382 99.2178H104.184H102.25L99.6129 99.1299H97.4151L96.0965 99.3058L94.1625 98.8662L92.9317 98.4267L91.3494 97.8113L89.8549 97.3717L88.2725 97.1959L87.1297 97.3717L85.7231 97.8113L84.7561 98.6025L84.2287 101.152L83.1737 102.558L80.1848 101.767L77.3717 100.976L76.2289 101.24L73.9432 102.119L72.4487 102.646L71.0422 103.525L70.0752 104.141L66.8225 105.811L64.6248 106.866L61.8117 108.185L59.0864 109.327L56.625 110.558L55.5701 111.086L53.9877 111.877L52.2295 112.492L50.2075 112.932L48.7131 113.547L46.6912 114.338L44.2297 115.569L42.4715 116.8L39.7463 118.206L37.2848 119.525L35.5266 120.756L33.9442 121.371L32.3619 122.338L30.7795 123.305L29.6367 124.184L27.8785 126.646Z" stroke="#171717"/>
</svg>
